<svg width="13" height="17" viewBox="0 0 13 17" fill="none" xmlns="http://www.w3.org/2000/svg">
<path d="M2.57262 5.20403C2.49387 6.06542 2.43861 7.58986 2.9346 8.23874C2.9346 8.23874 2.70111 6.56412 4.7942 4.46307C5.63696 3.61726 5.83176 2.46685 5.53749 1.60404C5.37032 1.11525 5.06499 0.711477 4.79972 0.429542C4.64499 0.26378 4.7638 -0.00965488 4.989 0.000262465C6.35123 0.0626 8.55899 0.450793 9.49708 2.86496C9.90879 3.9247 9.93919 5.01985 9.743 6.13343C9.61866 6.84464 9.17656 8.42575 10.1851 8.61985C10.9049 8.75869 11.2531 8.17215 11.4092 7.74996C11.4741 7.57428 11.6993 7.53036 11.8209 7.67062C13.0367 9.0888 13.1403 10.7592 12.8889 12.1972C12.4025 14.9769 9.65735 17 6.93011 17C3.52315 17 0.811112 15.0009 0.10789 11.3825C-0.175334 9.92185 -0.0316494 7.03166 2.16506 4.99152C2.32808 4.83851 2.59473 4.97452 2.57262 5.20403V5.20403Z" fill="url(#paint0_radial)"/>
<path d="M8.19402 10.4324C6.86118 8.78279 7.45795 6.9005 7.78493 6.1504C7.82892 6.0517 7.71162 5.95865 7.61924 6.01928C7.04593 6.39432 5.87144 7.27696 5.32452 8.51912C4.58405 10.1984 4.63683 11.0204 5.07525 12.0243C5.33918 12.6291 5.03273 12.7574 4.87877 12.78C4.72921 12.8026 4.59138 12.7067 4.48141 12.6066C4.16504 12.3145 3.93959 11.9434 3.83038 11.535C3.80692 11.4476 3.68815 11.4236 3.6339 11.4955C3.22334 12.0412 3.01073 12.9168 3.00047 13.5357C2.96821 15.4491 4.61191 17 6.60018 17C9.10605 17 10.9316 14.3352 9.49168 12.1075C9.07379 11.4589 8.68083 11.0345 8.19402 10.4324Z" fill="url(#paint1_radial)"/>
<defs>
<radialGradient id="paint0_radial" cx="0" cy="0" r="1" gradientUnits="userSpaceOnUse" gradientTransform="translate(6.25532 17.044) rotate(-179.745) scale(9.75223 16.409)">
<stop offset="0.314" stop-color="#FF9800"/>
<stop offset="0.662" stop-color="#FF6D00"/>
<stop offset="0.972" stop-color="#F44336"/>
</radialGradient>
<radialGradient id="paint1_radial" cx="0" cy="0" r="1" gradientUnits="userSpaceOnUse" gradientTransform="translate(6.738 7.13855) rotate(90.6018) scale(10.4135 8.1499)">
<stop offset="0.214" stop-color="#FFF176"/>
<stop offset="0.328" stop-color="#FFF27D"/>
<stop offset="0.487" stop-color="#FFF48F"/>
<stop offset="0.672" stop-color="#FFF7AD"/>
<stop offset="0.793" stop-color="#FFF9C4"/>
<stop offset="0.822" stop-color="#FFF8BD" stop-opacity="0.804"/>
<stop offset="0.863" stop-color="#FFF6AB" stop-opacity="0.529"/>
<stop offset="0.91" stop-color="#FFF38D" stop-opacity="0.209"/>
<stop offset="0.941" stop-color="#FFF176" stop-opacity="0"/>
</radialGradient>
</defs>
</svg>
