<svg width="20" height="20" viewBox="0 0 20 20" fill="none" xmlns="http://www.w3.org/2000/svg">
<path d="M1.69871 7.41938C3.29575 7.41938 4.89279 7.41938 6.45656 7.41938C6.85582 7.41938 7.15527 7.7097 7.15527 8.0968C7.15527 8.48389 6.85582 8.77422 6.45656 8.77422C5.09242 8.77422 3.72828 8.77422 2.36414 8.77422V10.1291C7.45471 10.1291 12.5453 10.1291 17.6026 10.1291V8.74196C16.2384 8.74196 14.8743 8.74196 13.5102 8.74196C13.1442 8.74196 12.8115 8.45164 12.8115 8.06454C12.8115 7.7097 13.1109 7.38712 13.5102 7.38712C15.1072 7.38712 16.7043 7.38712 18.3013 7.38712C18.7006 7.38712 19 7.67744 19 8.06454V8.0968V10.7742C19 11.1613 18.7006 11.4516 18.3013 11.4516H17.4362L16.4381 18.4194C16.3715 18.742 16.0721 19 15.7394 19H4.26063C3.89464 19 3.59519 18.7097 3.56192 18.3871L2.56377 11.4516H1.69871C1.29945 11.4516 1 11.1613 1 10.7742V8.0968C1 7.7097 1.29945 7.41938 1.69871 7.41938ZM5.79113 12.5484V16.3871C5.79113 16.6129 5.99076 16.7742 6.22366 16.7742C6.45656 16.7742 6.65619 16.6129 6.65619 16.3871V12.5484C6.65619 12.3226 6.45656 12.1613 6.22366 12.1613C5.99076 12.1291 5.79113 12.3226 5.79113 12.5484ZM8.31978 12.5484V16.3871C8.31978 16.6129 8.51941 16.7742 8.75231 16.7742C8.98521 16.7742 9.15157 16.6129 9.15157 16.3871V12.5484C9.15157 12.3226 8.95194 12.1613 8.75231 12.1613C8.51941 12.1291 8.31978 12.3226 8.31978 12.5484ZM10.8484 12.5484V16.3871C10.8484 16.6129 11.0481 16.7742 11.281 16.7742C11.5139 16.7742 11.6802 16.6129 11.6802 16.3871V12.5484C11.6802 12.3226 11.4806 12.1613 11.281 12.1613C11.0481 12.1291 10.8484 12.3226 10.8484 12.5484ZM13.3771 12.5484V16.3871C13.3771 16.6129 13.5767 16.7742 13.7763 16.7742C14.0092 16.7742 14.1756 16.6129 14.1756 16.3871V12.5484C14.1756 12.3226 14.0092 12.1613 13.7763 12.1613C13.5767 12.1291 13.3771 12.3226 13.3771 12.5484ZM16.0721 1.22583L10.0166 7.96777L3.92791 1.22583C3.69501 0.935507 3.22921 0.903249 2.96303 1.16131C2.66359 1.41938 2.66359 1.83873 2.89649 2.0968L9.48429 9.41938C9.51756 9.45164 9.51756 9.4839 9.55083 9.51615C9.85028 9.74196 10.2828 9.7097 10.5157 9.45164L17.1035 2.0968C17.3697 1.80647 17.3364 1.38712 17.037 1.16131C16.7708 0.935507 16.305 0.935507 16.0721 1.22583ZM16.1386 10.9033H3.89464L4.89279 17.6774H15.1738L16.1386 10.9033Z" fill="white"/>
</svg>
