<svg width="20" height="21" viewBox="0 0 20 21" fill="none" xmlns="http://www.w3.org/2000/svg">
<path d="M0.77634 7.14783C2.55083 7.14783 4.32532 7.14783 6.06285 7.14783C6.50647 7.14783 6.83919 7.47041 6.83919 7.90052C6.83919 8.33063 6.50647 8.65321 6.06285 8.65321C4.54713 8.65321 3.03142 8.65321 1.51571 8.65321V10.1586C7.1719 10.1586 12.8281 10.1586 18.4473 10.1586V8.61737C16.9316 8.61737 15.4159 8.61737 13.9002 8.61737C13.4935 8.61737 13.1238 8.29479 13.1238 7.86468C13.1238 7.47041 13.4566 7.11199 13.9002 7.11199C15.6747 7.11199 17.4492 7.11199 19.2237 7.11199C19.6673 7.11199 20 7.43457 20 7.86468V7.90052V10.8754C20 11.3055 19.6673 11.6281 19.2237 11.6281V11.6281H18.2625L17.1534 19.3701C17.0795 19.7285 16.7468 20.0152 16.3771 20.0152H3.62292C3.21627 20.0152 2.88355 19.6926 2.84658 19.3342L1.73752 11.6281H0.77634C0.332717 11.6281 0 11.3055 0 10.8754V7.90052C0 7.47041 0.332717 7.14783 0.77634 7.14783ZM5.32347 12.8468V17.112C5.32347 17.3629 5.54529 17.5421 5.80407 17.5421C6.06285 17.5421 6.28466 17.3629 6.28466 17.112V12.8468C6.28466 12.5959 6.06285 12.4167 5.80407 12.4167C5.54529 12.3808 5.32347 12.5959 5.32347 12.8468ZM8.13309 12.8468V17.112C8.13309 17.3629 8.3549 17.5421 8.61368 17.5421C8.87246 17.5421 9.0573 17.3629 9.0573 17.112V12.8468C9.0573 12.5959 8.83549 12.4167 8.61368 12.4167C8.3549 12.3808 8.13309 12.5959 8.13309 12.8468ZM10.9427 12.8468V17.112C10.9427 17.3629 11.1645 17.5421 11.4233 17.5421C11.6821 17.5421 11.8669 17.3629 11.8669 17.112V12.8468C11.8669 12.5959 11.6451 12.4167 11.4233 12.4167C11.1645 12.3808 10.9427 12.5959 10.9427 12.8468ZM13.7523 12.8468V17.112C13.7523 17.3629 13.9741 17.5421 14.1959 17.5421C14.4547 17.5421 14.6396 17.3629 14.6396 17.112V12.8468C14.6396 12.5959 14.4547 12.4167 14.1959 12.4167C13.9741 12.3808 13.7523 12.5959 13.7523 12.8468ZM16.7468 0.266113L10.0185 7.75715L3.25323 0.266113C2.99445 -0.0564679 2.47689 -0.0923102 2.18115 0.194428C1.84843 0.481167 1.84843 0.947117 2.10721 1.23385L9.42699 9.37006C9.46396 9.4059 9.46396 9.44174 9.50092 9.47758C9.83364 9.72848 10.3142 9.69264 10.573 9.4059L17.8928 1.23385C18.1885 0.911274 18.1516 0.445324 17.8189 0.194428C17.5231 -0.0564679 17.0055 -0.0564679 16.7468 0.266113ZM16.8207 11.0188H3.21627L4.32532 18.5457H15.7486L16.8207 11.0188Z" fill="black"/>
</svg>
