<svg width="21" height="20" viewBox="0 0 21 20" fill="none" xmlns="http://www.w3.org/2000/svg">
<path d="M17.4101 19.8295L15.5039 18.0103L16.5047 17.0552L18.4109 18.8744C18.6969 19.1473 18.6969 19.5566 18.4109 19.8295C18.1726 20.0569 17.6961 20.0569 17.4101 19.8295Z" fill="#37474F"/>
<path d="M3.58973 19.8295L5.49595 18.0103L4.49518 17.0552L2.58896 18.8744C2.30303 19.1473 2.30303 19.5566 2.58896 19.8295C2.82724 20.0569 3.3038 20.0569 3.58973 19.8295Z" fill="#37474F"/>
<path d="M10.5 19.5565C15.764 19.5565 20.0313 15.4841 20.0313 10.4605C20.0313 5.43683 15.764 1.36438 10.5 1.36438C5.23604 1.36438 0.96875 5.43683 0.96875 10.4605C0.96875 15.4841 5.23604 19.5565 10.5 19.5565Z" fill="#C62828"/>
<path d="M10.5 17.7374C14.7112 17.7374 18.125 14.4794 18.125 10.4605C18.125 6.44157 14.7112 3.18359 10.5 3.18359C6.28883 3.18359 2.875 6.44157 2.875 10.4605C2.875 14.4794 6.28883 17.7374 10.5 17.7374Z" fill="#EEEEEE"/>
<path d="M6.25655 14.7721L5.98682 14.5147L10.3669 10.3346L10.6366 10.5916L6.25655 14.7721Z" fill="#E53935"/>
<path d="M10.0234 4.5481H10.9766V10.4605H10.0234V4.5481Z" fill="black"/>
<path d="M13.9716 13.032L13.1972 13.7715L10.0977 10.8135L10.8725 10.0735L13.9716 13.032Z" fill="black"/>
<path d="M10.5 11.37C11.0264 11.37 11.4531 10.9627 11.4531 10.4604C11.4531 9.95803 11.0264 9.55078 10.5 9.55078C9.9736 9.55078 9.54688 9.95803 9.54688 10.4604C9.54688 10.9627 9.9736 11.37 10.5 11.37Z" fill="black"/>
<path d="M10.5 10.9152C10.7632 10.9152 10.9766 10.7116 10.9766 10.4604C10.9766 10.2092 10.7632 10.0056 10.5 10.0056C10.2368 10.0056 10.0234 10.2092 10.0234 10.4604C10.0234 10.7116 10.2368 10.9152 10.5 10.9152Z" fill="#C62828"/>
<path d="M9.54688 0H11.4531V1.36437H9.54688V0Z" fill="#37474F"/>
<path d="M20.2217 6.91302C21.4131 5.3212 21.2225 3.09265 19.7451 1.68275C18.2678 0.272849 15.9326 0.090927 14.2646 1.22794L20.2217 6.91302Z" fill="#37474F"/>
<path d="M0.778113 6.91302C-0.413292 5.3212 -0.222667 3.09265 1.25468 1.68275C2.73202 0.272849 5.06717 0.090927 6.73514 1.22794L0.778113 6.91302Z" fill="#37474F"/>
</svg>
