<svg width="41" height="41" viewBox="0 0 41 41" fill="none" xmlns="http://www.w3.org/2000/svg">
<rect width="41" height="41" rx="8" fill="#534DAA"/>
<g clip-path="url(#clip0)">
<path d="M23.7522 13.8449C23.6194 13.8449 23.5233 13.8449 23.4271 13.8449C19.3895 13.8449 15.3564 13.8449 11.3188 13.8449C10.6688 13.8449 10.243 13.4191 10.298 12.8286C10.3346 12.4212 10.6413 12.087 11.0487 12.0183C11.1632 12 11.2776 12 11.3921 12C15.7639 12 20.1357 12 24.5075 12C25.2491 12 25.597 12.3525 25.597 13.0987C25.597 13.2635 25.597 13.4283 25.597 13.6205C25.7023 13.6205 25.7847 13.6205 25.8671 13.6205C26.8514 13.6205 27.8356 13.6251 28.8198 13.616C29.2822 13.6114 29.5981 13.8037 29.8041 14.2202C30.5411 15.7035 31.2781 17.1821 32.038 18.6516C32.2028 18.972 32.4363 19.2604 32.656 19.5534C32.9719 19.9746 33.2969 20.3866 33.622 20.8032C33.7822 21.0046 33.86 21.2243 33.86 21.4761C33.8554 23.1928 33.86 24.9095 33.8554 26.6261C33.8554 27.2213 33.48 27.5921 32.8804 27.5966C32.2074 27.6012 31.539 27.6012 30.8661 27.5921C30.7288 27.5921 30.6738 27.6333 30.6235 27.766C30.1199 29.1256 28.8839 30 27.4694 29.9954C26.0548 29.9954 24.828 29.1256 24.3198 27.7614C24.2695 27.6287 24.2054 27.5921 24.0726 27.5921C22.6627 27.5966 21.2481 27.5966 19.8381 27.5921C19.6962 27.5921 19.6276 27.6287 19.5772 27.7706C19.0874 29.1165 17.8514 29.9863 16.4414 29.9908C15.0314 30 13.7908 29.1302 13.2827 27.766C13.2323 27.6287 13.1682 27.5829 13.0218 27.5829C12.4358 27.5921 11.8453 27.5875 11.2593 27.5875C10.6962 27.5829 10.2934 27.2075 10.2842 26.6811C10.2796 26.1455 10.6825 25.7518 11.2547 25.7518C11.8407 25.7472 12.4312 25.7472 13.0172 25.7518C13.1362 25.7518 13.2049 25.7335 13.2506 25.6007C13.7817 24.1587 14.9994 23.2843 16.4414 23.2981C18.007 23.3118 19.2247 24.3464 19.623 25.6511C19.6321 25.6785 19.6459 25.706 19.6642 25.7518C19.7283 25.7518 19.7969 25.7518 19.8656 25.7518C21.2481 25.7518 22.626 25.7472 24.0085 25.7564C24.1779 25.7564 24.2557 25.7152 24.3152 25.5458C24.7639 24.2182 25.9953 23.3347 27.4099 23.3026C28.8061 23.2706 30.0787 24.1267 30.5869 25.4359C30.6235 25.5366 30.6601 25.6373 30.6967 25.7426C31.1225 25.7426 31.5482 25.7426 32.0014 25.7426C32.006 25.6694 32.0106 25.5961 32.0106 25.5229C32.0106 24.3235 32.0151 23.1287 32.006 21.9293C32.006 21.8194 31.9602 21.6913 31.8961 21.5997C31.6123 21.2152 31.3056 20.8398 31.0172 20.4552C30.9302 20.3408 30.8386 20.295 30.6922 20.295C28.7328 20.2996 26.769 20.2996 24.8097 20.2996C24.0955 20.2996 23.7476 19.9517 23.7476 19.2284C23.7476 17.5346 23.7476 15.8408 23.7476 14.147C23.7522 14.0646 23.7522 13.973 23.7522 13.8449ZM25.6062 18.4502C27.0299 18.4502 28.4261 18.4502 29.8453 18.4502C29.8269 18.4044 29.8224 18.3769 29.8086 18.3494C29.3463 17.4293 28.8885 16.5092 28.417 15.5936C28.3804 15.5249 28.2568 15.4654 28.1698 15.4608C27.5426 15.4517 26.92 15.4563 26.2929 15.4563C26.0686 15.4563 25.8397 15.4563 25.6016 15.4563C25.6062 16.468 25.6062 17.4476 25.6062 18.4502ZM16.4368 25.1567C15.6082 25.1567 14.9353 25.8204 14.9353 26.649C14.9307 27.473 15.5991 28.1506 16.4231 28.1551C17.2608 28.1597 17.9429 27.4822 17.9383 26.6536C17.9338 25.825 17.2608 25.1567 16.4368 25.1567ZM27.4694 28.1506C28.2934 28.1506 28.9709 27.4776 28.9755 26.6582C28.98 25.8342 28.3071 25.1567 27.4831 25.1521C26.6454 25.1475 25.9678 25.8204 25.9678 26.6536C25.9724 27.4822 26.6408 28.1506 27.4694 28.1506Z" fill="white"/>
<path d="M13.6719 15.3188C14.798 15.3188 15.9287 15.3188 17.0549 15.3188C17.65 15.3188 18.0529 15.6987 18.0483 16.2435C18.0437 16.7791 17.6409 17.1545 17.0595 17.1545C14.7889 17.1545 12.5183 17.1545 10.2477 17.1545C9.75784 17.1545 9.38704 16.8203 9.32295 16.3442C9.26344 15.9047 9.55184 15.4698 9.99131 15.3554C10.1012 15.3279 10.2156 15.3233 10.3301 15.3233C11.4471 15.3142 12.5595 15.3188 13.6719 15.3188Z" fill="white"/>
<path d="M12.3719 20.3317C11.2274 20.3317 10.083 20.3363 8.93852 20.3317C8.52651 20.3317 8.20606 20.1074 8.06415 19.7457C7.9314 19.3978 8.00464 18.9675 8.30678 18.7478C8.48531 18.615 8.73251 18.5051 8.94767 18.5006C11.2274 18.4822 13.5118 18.4868 15.7915 18.4914C16.3317 18.4914 16.73 18.8897 16.7345 19.407C16.7391 19.938 16.3409 20.3271 15.7824 20.3317C14.6425 20.3317 13.5072 20.3317 12.3719 20.3317Z" fill="white"/>
<path d="M12.1109 21.6685C12.6969 21.6685 13.2829 21.6685 13.8734 21.6685C14.4685 21.6685 14.8805 22.0484 14.8851 22.584C14.8851 23.1196 14.4685 23.5087 13.878 23.5087C12.6877 23.5087 11.4975 23.5087 10.3118 23.5087C9.7442 23.5087 9.32761 23.1196 9.32304 22.5886C9.31846 22.0622 9.73504 21.673 10.3073 21.6685C10.3164 21.6685 10.321 21.6685 10.3302 21.6685C10.9207 21.6685 11.5158 21.6685 12.1109 21.6685Z" fill="white"/>
</g>
<defs>
<clipPath id="clip0">
<rect width="25.8555" height="18" fill="white" transform="translate(8 12)"/>
</clipPath>
</defs>
</svg>
