<svg width="20" height="20" viewBox="0 0 20 20" fill="none" xmlns="http://www.w3.org/2000/svg">
<path d="M15.8903 3.61739C16.0729 4.10434 16.2555 4.5913 16.3773 5.07825C16.5599 5.62608 16.6816 6.17391 16.7425 6.72173C16.986 8.30434 16.986 9.76521 16.7425 11.1043C16.3773 12.7478 15.7077 14.1478 14.612 15.1826C13.5773 16.2783 12.1773 17.0087 10.5338 17.2522C9.31639 17.4956 7.97726 17.4348 6.51639 17.1304C5.96857 17.0087 5.05552 16.7043 4.08161 16.4609C3.04683 16.0956 2.01205 15.7304 1.40335 15.5478C1.099 15.4261 0.916393 15.0609 1.03813 14.7565C1.099 14.5739 1.28161 14.4522 1.46422 14.3913C2.07291 14.2696 2.55987 13.9043 2.92509 13.4783C3.35118 12.9913 3.71639 12.4435 4.08161 11.8348C5.11639 10.0696 6.57726 8.1826 8.28161 6.53913C9.74248 5.19999 11.386 4.04347 13.0294 3.43478C13.3338 3.31304 13.699 3.1913 14.0642 3.13043C14.2468 3.13043 14.4294 3.06956 14.612 3.06956C14.6729 2.70434 14.7947 2.21739 14.8555 1.54782C14.9164 1.1826 15.2207 0.999994 15.5251 0.999994C15.8903 0.999994 16.0729 1.36521 16.0729 1.66956C16.0729 2.5826 15.9512 3.31304 15.8903 3.61739ZM9.01205 13.2348C9.07292 13.4174 9.13378 13.6609 9.19465 13.8435L9.31639 14.2696L9.43813 14.6956C9.499 14.8783 9.37726 15.1217 9.13379 15.1217C8.95118 15.1826 8.7077 15.0609 8.7077 14.8174L8.64683 14.3913L8.52509 13.9652L8.34248 13.6C7.85552 13.8435 7.3077 14.087 6.75987 14.3304C6.57726 14.4522 6.33378 14.3304 6.27292 14.1478C6.21205 13.9652 6.27291 13.7217 6.45552 13.6609C7.00335 13.4174 7.49031 13.1739 8.03813 12.9304C8.52509 12.687 9.01205 12.3826 9.43813 12.0783L9.55987 12.0174L9.31639 11.8956L8.46422 11.5913C8.28161 11.5304 8.15987 11.287 8.22074 11.1043C8.28161 10.9217 8.52509 10.8 8.7077 10.9217L9.55987 11.2261L10.1686 11.4696C10.3512 11.3478 10.5338 11.1652 10.6555 11.0435C11.0207 10.6783 11.4468 10.2522 11.812 9.82608C11.9338 9.64347 12.0555 9.46086 12.2381 9.27825L11.8729 9.15652L11.4468 9.03478L10.9599 8.85217C10.7773 8.7913 10.6555 8.60869 10.7164 8.42608C10.7773 8.24347 10.9599 8.12173 11.2034 8.1826L11.6903 8.30434L11.9947 8.42608L12.6034 8.60869L12.7251 8.42608C13.3947 7.45217 13.8816 6.47826 14.3077 5.32173C14.4294 4.95652 14.5512 4.5913 14.6729 4.22608C14.3077 4.28695 13.9425 4.40869 13.5773 4.53043C12.0555 5.07825 10.5338 6.11304 9.19465 7.3913C7.55118 8.91304 6.21205 10.7391 5.17726 12.3826C4.81205 13.113 4.38596 13.7826 3.83813 14.2696C3.65552 14.513 3.47292 14.6956 3.22944 14.8783C3.59465 15 4.02074 15.1217 4.44683 15.2435C5.35987 15.5478 6.27291 15.7913 6.75987 15.913C8.099 16.1565 9.25552 16.2174 10.3512 16.0348C11.7512 15.7913 12.9077 15.1826 13.7599 14.2696C14.6729 13.3565 15.2816 12.2 15.5251 10.8C15.7686 9.64347 15.7686 8.30434 15.5251 6.84347C15.4642 6.35652 15.3425 5.80869 15.1599 5.32173L15.099 5.13912L15.0381 5.62608C14.8555 6.17391 14.612 6.72173 14.3686 7.20869C14.612 7.81738 14.7947 8.48695 15.0381 9.09565C15.099 9.27825 14.9773 9.52173 14.7947 9.5826C14.612 9.64347 14.3686 9.52173 14.3077 9.33912C14.186 8.91304 14.0034 8.48695 13.8816 8.06086C13.699 8.36521 13.5164 8.60869 13.3947 8.85217C12.9686 9.52173 12.4816 10.1304 11.9338 10.7391C12.2381 11.7739 12.5425 12.8087 12.786 13.8435C12.8468 14.0261 12.7251 14.2087 12.5425 14.2696C12.3599 14.3304 12.1164 14.2087 12.1164 14.0261C11.8729 13.113 11.6294 12.2609 11.386 11.3478L11.2034 11.5304C11.0207 11.713 10.7773 11.8956 10.5947 12.1391C10.5947 12.2 10.5338 12.2 10.4729 12.2C10.2903 12.3826 10.1077 12.5043 9.86422 12.6261C9.62074 12.8696 9.31639 13.0522 9.01205 13.2348Z" fill="white"/>
</svg>
