<svg width="37" height="36" viewBox="0 0 37 36" fill="none" xmlns="http://www.w3.org/2000/svg">
<path d="M18.2671 0.0229492C27.9273 0.0382196 36.1521 7.76505 36.1521 18.0344C36.1445 28.0365 28.2235 36 18.2671 36C8.04499 36 0.351786 27.7082 0.359381 17.9733C0.366975 8.07809 8.39433 0.0229492 18.2671 0.0229492ZM15.442 18.0726C15.442 21.6535 15.442 25.1733 15.442 28.6855C16.8698 28.6855 18.2596 28.6855 19.6873 28.6855C19.6873 25.1428 19.6873 21.6306 19.6873 18.0726C20.7505 18.0726 21.7682 18.0726 22.8162 18.0726C22.9453 16.6372 23.0744 15.2399 23.2036 13.7969C22.6112 13.7969 22.072 13.7969 21.5328 13.7969C20.9784 13.7969 20.424 13.7969 19.8392 13.7969C19.8392 13.2548 19.8392 12.7585 19.8392 12.2622C19.8392 11.3612 20.1278 11.0711 21.0239 11.0711C21.715 11.0711 22.4061 11.0711 23.1276 11.0711C23.1276 9.84182 23.1276 8.65073 23.1276 7.46728C23.082 7.45201 23.0441 7.42146 23.0137 7.42146C21.7834 7.42146 20.5531 7.35275 19.3304 7.43673C17.3027 7.57417 16.0116 8.67364 15.5787 10.5672C15.4496 11.1169 15.4496 11.6972 15.4192 12.2698C15.3964 12.7585 15.4116 13.2548 15.4116 13.7969C14.6902 13.7969 14.0142 13.7969 13.3459 13.7969C13.3459 15.2399 13.3459 16.6372 13.3459 18.0573C14.0446 18.0726 14.7053 18.0726 15.442 18.0726Z" fill="white"/>
</svg>
