<svg width="18" height="24" viewBox="0 0 18 24" fill="none" xmlns="http://www.w3.org/2000/svg">
<path d="M3.48061 7.16161C3.37406 8.34702 3.29929 10.4449 3.97033 11.3379C3.97033 11.3379 3.65444 9.03332 6.48627 6.14191C7.62647 4.97794 7.89003 3.39479 7.49189 2.20742C7.26572 1.53477 6.85263 0.97911 6.49374 0.59112C6.28439 0.363005 6.44514 -0.0132867 6.74982 0.000361195C8.59284 0.086148 11.5798 0.620365 12.849 3.94265C13.406 5.40103 13.4471 6.90815 13.1817 8.44061C13.0135 9.41936 12.4153 11.5952 13.7799 11.8623C14.7537 12.0534 15.2247 11.2462 15.436 10.6652C15.5238 10.4235 15.8285 10.363 15.993 10.556C17.6379 12.5077 17.7781 14.8064 17.4379 16.7853C16.7799 20.6106 13.0658 23.3948 9.37604 23.3948C4.76661 23.3948 1.09739 20.6438 0.145968 15.6642C-0.237216 13.6541 -0.0428198 9.67672 2.92919 6.86915C3.14976 6.65859 3.51051 6.84576 3.48061 7.16161Z" fill="url(#paint0_radial)"/>
<path d="M11.0858 14.3567C9.28253 12.0865 10.0899 9.4962 10.5323 8.46394C10.5918 8.32811 10.4331 8.20005 10.3082 8.28349C9.53249 8.79961 7.94348 10.0143 7.20353 11.7237C6.20171 14.0346 6.27313 15.1659 6.86628 16.5474C7.22336 17.3798 6.80875 17.5564 6.60046 17.5874C6.39811 17.6185 6.21163 17.4865 6.06285 17.3487C5.63482 16.9468 5.32981 16.4362 5.18205 15.8741C5.15031 15.7538 4.98962 15.7208 4.91622 15.8198C4.36076 16.5707 4.07311 17.7756 4.05923 18.6274C4.01558 21.2605 6.23941 23.3948 8.92942 23.3948C12.3197 23.3948 14.7895 19.7276 12.8414 16.6619C12.2761 15.7693 11.7444 15.1853 11.0858 14.3567Z" fill="url(#paint1_radial)"/>
<defs>
<radialGradient id="paint0_radial" cx="0" cy="0" r="1" gradientUnits="userSpaceOnUse" gradientTransform="translate(8.46308 23.4554) rotate(-179.741) scale(13.1942 22.5814)">
<stop offset="0.314" stop-color="#FF9800"/>
<stop offset="0.662" stop-color="#FF6D00"/>
<stop offset="0.972" stop-color="#F44336"/>
</radialGradient>
<radialGradient id="paint1_radial" cx="0" cy="0" r="1" gradientUnits="userSpaceOnUse" gradientTransform="translate(9.11589 9.8238) rotate(90.5917) scale(14.3307 11.0263)">
<stop offset="0.214" stop-color="#FFF176"/>
<stop offset="0.328" stop-color="#FFF27D"/>
<stop offset="0.487" stop-color="#FFF48F"/>
<stop offset="0.672" stop-color="#FFF7AD"/>
<stop offset="0.793" stop-color="#FFF9C4"/>
<stop offset="0.822" stop-color="#FFF8BD" stop-opacity="0.804"/>
<stop offset="0.863" stop-color="#FFF6AB" stop-opacity="0.529"/>
<stop offset="0.91" stop-color="#FFF38D" stop-opacity="0.209"/>
<stop offset="0.941" stop-color="#FFF176" stop-opacity="0"/>
</radialGradient>
</defs>
</svg>
