<svg width="28" height="28" viewBox="0 0 28 28" fill="none" xmlns="http://www.w3.org/2000/svg">
<circle cx="14" cy="14" r="14" fill="#01B1D8"/>
<path d="M21.1999 17.474L19.6159 16.556L20.9479 15.98C21.2359 15.854 21.3799 15.512 21.2539 15.224C21.1279 14.936 20.7859 14.792 20.4979 14.918L18.3559 15.836L15.1699 14L18.3379 12.164L20.4799 13.082C20.5519 13.118 20.6239 13.136 20.7139 13.136C20.9479 13.136 21.1639 13.01 21.2539 12.776C21.3799 12.488 21.2359 12.146 20.9479 12.02L19.6159 11.444L21.1999 10.526C21.4699 10.364 21.5779 10.004 21.4159 9.73395C21.2539 9.46395 20.8939 9.35595 20.6239 9.51795L19.0399 10.436L19.2199 8.99595C19.2559 8.67195 19.0399 8.38395 18.7159 8.34795C18.3919 8.31195 18.1039 8.52795 18.0679 8.85195L17.7799 11.156L14.5759 12.992V9.31995L16.4299 7.91595C16.6819 7.71795 16.7359 7.35795 16.5379 7.10595C16.3399 6.85395 15.9799 6.79995 15.7279 6.99795L14.5759 7.86195V6.02595C14.5759 5.70195 14.3239 5.44995 13.9999 5.44995C13.6759 5.44995 13.4239 5.70195 13.4239 6.02595V7.86195L12.2719 6.99795C12.0199 6.79995 11.6419 6.85395 11.4619 7.10595C11.2639 7.35795 11.3179 7.73595 11.5699 7.91595L13.4239 9.31995V12.974L10.2379 11.156L9.94993 8.85195C9.91393 8.52795 9.62593 8.29395 9.30193 8.34795C8.97793 8.38395 8.76193 8.67195 8.79793 8.99595L8.97793 10.436L7.39393 9.51795C7.12393 9.35595 6.76393 9.44595 6.60193 9.73395C6.43993 10.004 6.52993 10.364 6.79993 10.526L8.38393 11.444L7.05193 12.02C6.76393 12.146 6.61993 12.488 6.74593 12.776C6.83593 12.992 7.05193 13.136 7.28593 13.136C7.35793 13.136 7.44793 13.118 7.51993 13.082L9.66193 12.164L12.8299 14L9.66193 15.836L7.51993 14.918C7.23193 14.792 6.88993 14.936 6.76393 15.224C6.63793 15.512 6.78193 15.854 7.06993 15.98L8.40193 16.556L6.79993 17.474C6.52993 17.636 6.42193 17.996 6.58393 18.266C6.69193 18.446 6.88993 18.554 7.08793 18.554C7.19593 18.554 7.28593 18.536 7.37593 18.482L8.95993 17.564L8.77993 19.004C8.74393 19.328 8.95993 19.616 9.28393 19.652C9.30193 19.652 9.33793 19.652 9.35593 19.652C9.64393 19.652 9.89593 19.436 9.93193 19.148L10.2199 16.844L13.3879 15.008V18.68L11.5339 20.084C11.2819 20.282 11.2279 20.642 11.4259 20.894C11.6239 21.146 11.9839 21.2 12.2359 21.002L13.3879 20.138V21.974C13.3879 22.298 13.6399 22.55 13.9639 22.55C14.2879 22.55 14.5399 22.298 14.5399 21.974V20.138L15.6919 21.002C15.7999 21.074 15.9259 21.128 16.0339 21.128C16.2139 21.128 16.3939 21.056 16.5019 20.894C16.6999 20.642 16.6459 20.264 16.3939 20.084L14.5759 18.68V15.008L17.7439 16.844L18.0319 19.148C18.0679 19.436 18.3199 19.652 18.6079 19.652C18.6259 19.652 18.6619 19.652 18.6799 19.652C19.0039 19.616 19.2199 19.328 19.1839 19.004L19.0039 17.564L20.5879 18.482C20.6779 18.536 20.7859 18.554 20.8759 18.554C21.0739 18.554 21.2719 18.446 21.3799 18.266C21.5599 17.996 21.4699 17.636 21.1999 17.474Z" fill="white"/>
</svg>
