<svg width="41" height="41" viewBox="0 0 41 41" fill="none" xmlns="http://www.w3.org/2000/svg">
<rect width="41" height="41" rx="8" fill="#534DAA"/>
<path d="M15.0829 17.9778C16.749 18.5138 17.5492 20.4673 17.1726 23.1929C17.9916 22.0209 18.3116 20.8852 17.888 19.6132C17.3327 17.9505 17.135 16.2788 17.7186 14.5797C18.2269 13.1079 19.1965 12.0085 20.5897 11.2271C20.7214 11.1635 20.8626 11.109 21.1074 11C19.2247 14.8614 20.7873 17.7961 23.5548 20.5763C23.4513 18.3685 24.7033 17.1782 26.4824 16.3514C25.5693 18.2049 26.2 19.9494 26.8119 21.6938C27.179 22.7478 27.659 23.7835 27.8944 24.8647C28.2897 26.7273 27.5555 28.2446 26.0211 29.4075C25.2116 30.0163 24.3079 30.4342 23.216 30.7613C23.3289 30.625 23.3666 30.5614 23.4136 30.5251C24.402 29.7164 24.6656 28.7715 24.0067 27.7085C23.5078 26.909 23.0748 26.1458 23.2536 25.1645C22.3311 25.846 22.3123 26.7273 22.5947 27.6903C22.0393 27.4359 21.7287 26.5546 21.9263 25.8005C22.1146 25.0918 22.3029 24.3923 22.1429 23.6563C21.964 22.8295 21.531 22.2026 20.7591 21.7392C21.2392 23.6381 20.5614 25.5461 19.1212 26.3093C19.2812 25.4098 18.867 24.8102 18.0763 24.3287C18.3022 25.4371 17.9539 26.3638 17.5397 27.2906C17.0879 28.3082 16.9561 29.3258 17.8504 30.198C18.161 30.5069 18.5752 30.7159 18.9612 30.9794C18.8858 30.9884 18.8105 31.0066 18.7352 30.9975C17.3232 30.7704 16.0054 30.307 14.8664 29.4711C13.1061 28.1901 12.5601 26.3638 13.3602 24.3196C13.605 23.7017 13.9062 23.0839 14.3298 22.5751C15.1864 21.5484 15.3276 20.3946 15.2241 19.1589C15.1864 18.7682 15.1299 18.3776 15.0829 17.9778Z" fill="white"/>
</svg>
