<svg width="37" height="36" viewBox="0 0 37 36" fill="none" xmlns="http://www.w3.org/2000/svg">
<path d="M18.4545 35.9389C8.58172 35.9389 0.577148 27.899 0.577148 17.9733C0.577148 8.03987 8.58932 0 18.4697 0C28.3274 0 36.3319 8.04751 36.3319 17.9656C36.3319 27.8914 28.3349 35.9389 18.4545 35.9389ZM18.4393 28.8C19.4874 28.8 20.5278 28.8076 21.5759 28.8C22.5404 28.7847 23.5049 28.7847 24.4466 28.5709C26.8768 28.0288 28.3957 26.54 28.9729 24.0967C29.2083 23.0965 29.2159 22.0657 29.2235 21.0426C29.2387 18.9735 29.2387 16.9043 29.2235 14.8352C29.2159 13.8503 29.2083 12.8653 28.9957 11.8957C28.4868 9.58218 27.1198 8.06278 24.8339 7.41379C23.9074 7.15419 22.9581 7.10838 22.0087 7.10074C19.6241 7.08547 17.2318 7.08547 14.8472 7.10074C14.027 7.10838 13.1992 7.13892 12.3866 7.3298C10.1386 7.84136 8.65007 9.17752 7.98176 11.4146C7.70076 12.3538 7.6476 13.3311 7.6476 14.3007C7.63241 16.7287 7.63241 19.1567 7.6476 21.5847C7.6552 22.4017 7.68557 23.2187 7.87544 24.0204C8.42983 26.4407 9.89556 27.9601 12.303 28.5328C13.2903 28.7695 14.3004 28.7771 15.3028 28.7924C16.3509 28.8153 17.3989 28.8 18.4393 28.8Z" fill="white"/>
<path d="M9.53101 17.9427C9.56138 16.431 9.59176 14.9268 9.62973 13.4151C9.64492 12.8195 9.73606 12.2392 9.93351 11.6742C10.4044 10.3533 11.3385 9.55164 12.6827 9.26914C13.2979 9.13934 13.9358 9.07826 14.5661 9.07062C16.161 9.03245 17.7558 9.02481 19.3507 9.03245C20.5506 9.03245 21.7505 9.06299 22.9504 9.10116C23.6643 9.12407 24.363 9.24623 25.0161 9.544C26.1629 10.0708 26.8388 10.9871 27.0818 12.2087C27.2033 12.8424 27.2717 13.4914 27.2793 14.1328C27.3021 16.6829 27.2945 19.2331 27.2869 21.7756C27.2869 22.4857 27.2413 23.1881 27.0514 23.8753C26.6186 25.4558 25.5781 26.372 23.9985 26.6698C23.4441 26.769 22.8745 26.8225 22.3125 26.8301C19.738 26.8454 17.1634 26.8454 14.5889 26.8301C13.9054 26.8301 13.2143 26.7767 12.546 26.5934C10.9891 26.1659 10.0854 25.1275 9.77403 23.5546C9.58417 22.6078 9.60695 21.6382 9.58417 20.6761C9.56138 19.7675 9.57658 18.8513 9.57658 17.9427C9.55379 17.9427 9.5386 17.9427 9.53101 17.9427ZM18.4393 12.369C15.4091 12.3538 12.9105 14.8428 12.8954 17.8817C12.8802 20.9892 15.3332 23.5088 18.3938 23.5241C21.4771 23.5393 23.9757 21.0655 23.9909 17.9809C23.9985 14.881 21.5303 12.3843 18.4393 12.369ZM24.2035 13.4532C24.9174 13.4532 25.5022 12.8653 25.5022 12.14C25.5022 11.4299 24.9098 10.8496 24.2035 10.8496C23.4896 10.8496 22.8973 11.4452 22.9049 12.1629C22.9125 12.8806 23.4896 13.4532 24.2035 13.4532Z" fill="white"/>
<path d="M18.4469 14.316C20.4442 14.3237 22.0543 15.95 22.0467 17.9504C22.0391 19.9661 20.4291 21.5847 18.4241 21.5771C16.4192 21.5695 14.8016 19.9279 14.8168 17.9275C14.8395 15.9194 16.4648 14.3008 18.4469 14.316Z" fill="white"/>
</svg>
