<svg width="190" height="45" viewBox="0 0 190 45" fill="none" xmlns="http://www.w3.org/2000/svg">
<g opacity="0.6">
<path fill-rule="evenodd" clip-rule="evenodd" d="M103.208 13.1863V24.0305C103.208 24.0601 103.208 24.1093 103.208 24.1388C103.336 24.1093 103.483 24.0601 103.66 23.9617V14.2688C103.66 13.5504 103.611 12.9108 103.523 12.3597C103.424 11.7693 103.267 11.2772 103.051 10.8639C103.011 10.7852 102.972 10.7065 102.932 10.6376C102.982 10.8246 103.031 11.0411 103.06 11.2576C103.159 11.8185 103.208 12.4581 103.208 13.1863ZM65.3952 23.9026C65.3952 23.9813 65.3952 24.0306 65.405 24.0896C65.5132 24.0601 65.6706 23.9912 65.8477 23.8829H65.8575V13.2552C65.8575 12.6352 65.7985 12.094 65.6903 11.6315C65.5821 11.228 65.4444 10.8836 65.2476 10.5982C65.346 11.0411 65.405 11.5725 65.405 12.1629V23.9026H65.3952ZM55.1649 13.1863V13.3437C55.2829 13.1961 55.3911 13.0584 55.5092 12.9304L55.5485 12.8812C55.5288 12.6943 55.5092 12.5171 55.4797 12.3597C55.3714 11.7693 55.2141 11.2576 55.0075 10.8639C54.9681 10.7852 54.9288 10.7065 54.8894 10.6376C54.9386 10.8246 54.9878 11.0411 55.0173 11.2576C55.1255 11.8185 55.1649 12.4581 55.1649 13.1863ZM76.3632 13.698C76.6288 13.511 76.9436 13.4126 77.2879 13.4126C77.6027 13.4126 77.8683 13.4618 78.1043 13.5602C78.3306 13.6586 78.5273 13.7866 78.6945 13.9735C78.7044 13.9932 78.7241 14.0031 78.7339 14.0227C78.7142 13.8653 78.6749 13.7177 78.6355 13.5898L78.6257 13.5602C78.5372 13.2847 78.4093 13.0682 78.2322 12.8714C78.065 12.6943 77.8683 12.5565 77.642 12.4581C77.4059 12.3597 77.1305 12.3105 76.8256 12.3105C76.4813 12.3105 76.1665 12.4187 75.9009 12.5959C75.6058 12.8222 75.3304 13.1371 75.0943 13.5996C74.8287 14.1113 74.6418 14.6525 74.5041 15.2725C74.3762 15.8924 74.3073 16.5616 74.3073 17.2996C74.3073 17.6047 74.3172 17.9097 74.3368 18.1754V18.1951C74.3565 18.5002 74.386 18.7659 74.4352 19.0512C74.4549 19.2087 74.4844 19.3661 74.5237 19.5334L74.7992 19.2776C74.7795 19.002 74.7697 18.7068 74.7697 18.4018C74.7697 17.6637 74.8385 16.9946 74.9762 16.3746C75.1041 15.7547 75.3107 15.2134 75.5566 14.7017C75.7927 14.2392 76.0583 13.9047 76.3632 13.698ZM165.662 13.4421H167.501V12.3597H165.209V12.34C165.131 12.34 165.052 12.34 164.983 12.3105C164.826 12.6155 164.875 12.9796 165.121 13.2158C165.259 13.3634 165.465 13.4421 165.662 13.4421ZM178.145 3.20801C177.368 3.28673 176.541 3.31625 175.656 3.31625C174.899 3.31625 174.318 3.33594 173.915 3.33594C173.531 3.35562 173.266 3.36546 173.089 3.39498V8.48253C173.246 8.48253 173.403 8.48253 173.541 8.48253V4.49712C173.718 4.4676 173.994 4.44791 174.367 4.43807C174.771 4.41839 175.351 4.41839 176.099 4.41839C176.984 4.41839 177.82 4.38887 178.587 4.29047C179.355 4.23142 180.043 4.11334 180.663 3.95589C181.342 3.79844 181.961 3.49338 182.512 3.09976C183.063 2.68646 183.535 2.15507 183.958 1.52528C184.194 1.17102 184.096 0.698677 183.732 0.452664C183.673 0.403461 183.604 0.37394 183.535 0.354259C183.526 0.38378 183.516 0.403461 183.496 0.432983C183.083 1.05294 182.601 1.58432 182.05 1.99763C181.499 2.41093 180.879 2.6963 180.201 2.87343C179.601 3.02104 178.912 3.12928 178.145 3.20801ZM185.001 11.5134V23.1646C185.001 23.2138 185.001 23.263 185.001 23.2925C185.109 23.2728 185.257 23.2433 185.414 23.1941L185.463 23.1744V12.6155C185.572 12.5959 185.68 12.586 185.788 12.5663C186.122 12.5171 186.486 12.4384 186.88 12.34C187.352 12.2121 187.765 11.9858 188.129 11.6709C188.149 11.6512 188.159 11.6413 188.178 11.6217C188.493 11.3166 188.769 10.9328 188.995 10.4703C189.182 10.0865 189.014 9.62403 188.631 9.43706C188.591 9.41738 188.562 9.40754 188.523 9.38786C188.296 9.85036 188.031 10.2145 187.716 10.5195C187.706 10.5392 187.686 10.549 187.667 10.5687C187.313 10.9033 186.89 11.1099 186.427 11.2379C186.044 11.3363 185.68 11.415 185.336 11.4642C185.208 11.4839 185.099 11.4937 185.001 11.5134ZM185.001 23.3417C185.011 23.3614 185.011 23.3614 185.001 23.3417V23.3417ZM185.454 3.74924C185.454 3.43434 185.267 3.15881 185.001 3.05056V8.26604H185.454V3.74924ZM126.128 14.9084C126.108 14.9084 126.078 14.9281 126.049 14.9281C125.931 14.9576 125.803 14.9773 125.646 14.9773H125.311C125.114 14.9773 124.947 14.8985 124.81 14.7903C124.15 14.2983 123.59 13.7669 123.147 13.1961C122.921 12.8911 122.724 12.586 122.557 12.2908L122.577 12.34L122.586 12.3695C122.803 13.0387 123.147 13.6882 123.609 14.2786C124.062 14.869 124.613 15.3906 125.282 15.8924C125.41 16.0007 125.587 16.0696 125.783 16.0696H126.118C126.275 16.0696 126.413 16.0696 126.521 16.04C126.541 16.04 126.57 16.0204 126.59 16.0204C126.718 15.9712 126.836 15.8924 126.934 15.8137V15.794C127.102 15.6366 127.19 15.4398 127.19 15.2036C127.19 15.1741 127.18 15.1249 127.18 15.0954C127.121 14.19 127.141 13.3241 127.239 12.4975C127.347 11.6709 127.534 10.8738 127.82 10.1062H127.81H127.82C128.134 9.21073 128.331 8.3546 128.4 7.528C128.479 6.68171 128.43 5.85511 128.252 5.05803C128.243 5.02851 128.233 4.99898 128.233 4.9793C128.105 4.62504 127.967 4.29047 127.81 4.00509C127.977 4.78249 128.026 5.59926 127.957 6.42586C127.888 7.25246 127.692 8.11843 127.367 9.00408C127.082 9.77164 126.905 10.5687 126.797 11.3953C126.688 12.2219 126.669 13.0879 126.738 13.9932C126.747 14.0424 126.747 14.0719 126.747 14.1015C126.747 14.3376 126.659 14.5344 126.492 14.6919L126.482 14.7116C126.374 14.8001 126.256 14.8592 126.128 14.9084ZM136.929 13.3339L137.224 12.9501L137.322 12.8222C137.322 12.714 137.302 12.5959 137.302 12.4876C137.243 11.7988 137.145 11.2576 137.017 10.8443C136.929 10.5589 136.81 10.303 136.653 10.0767C136.732 10.4408 136.791 10.8738 136.84 11.3855C136.899 11.9464 136.919 12.586 136.929 13.3339ZM116.979 25.7526L117.009 25.851C117.157 26.2053 117.294 26.5399 117.442 26.8548H117.432C116.95 25.3197 116.694 23.696 116.645 21.9444C116.606 20.1927 116.783 18.3132 117.186 16.2861C117.196 16.2565 117.196 16.2369 117.196 16.2073C117.255 15.4595 117.491 14.5541 117.924 13.5012C118.357 12.4286 118.986 11.2084 119.803 9.82084C120.324 9.17136 120.845 8.63998 121.337 8.20699C121.436 8.10859 121.544 8.02986 121.652 7.95114C121.632 7.54768 121.613 7.12454 121.613 6.66203C121.613 6.63251 121.613 6.60299 121.622 6.56363C121.377 6.71123 121.14 6.8982 120.885 7.10485H120.894C120.393 7.53784 119.881 8.07907 119.35 8.7187C118.544 10.1062 117.914 11.3363 117.471 12.4187C117.048 13.4717 116.802 14.3672 116.743 15.115C116.743 15.1446 116.734 15.1741 116.734 15.2134C116.33 17.2209 116.153 19.1004 116.202 20.8619C116.232 22.5938 116.497 24.2175 116.979 25.7526ZM151.635 15.2134C151.339 15.981 151.182 16.8076 151.182 17.6834C151.182 18.2935 151.231 18.8151 151.339 19.2481C151.428 19.6318 151.566 19.9369 151.733 20.1534C151.743 20.1829 151.753 20.1829 151.772 20.2026C151.684 19.7991 151.644 19.3268 151.644 18.7659C151.644 17.9097 151.802 17.0733 152.097 16.3156C152.392 15.5382 152.854 14.8001 153.464 14.1113C154.064 13.4422 154.753 12.9304 155.53 12.6155C155.973 12.4286 156.455 12.281 156.966 12.2022V11.0509C156.278 11.1001 155.648 11.2772 155.068 11.5134C154.29 11.848 153.602 12.34 153.012 13.0092C152.392 13.698 151.939 14.4459 151.635 15.2134ZM163.045 23.7944L163.094 23.7747V10.1948C163.094 9.87988 162.908 9.60435 162.642 9.47642V23.9518H162.662C162.78 23.9223 162.908 23.8731 163.045 23.8042V23.7944ZM110.753 27.9471C110.772 27.9766 110.782 27.9963 110.792 28.0258C110.763 27.9471 110.723 27.8683 110.684 27.7896C110.704 27.8388 110.723 27.9077 110.753 27.9471ZM110.212 26.5005C110.212 26.4808 110.202 26.471 110.202 26.4513L110.163 26.3529C110.172 26.4021 110.182 26.4513 110.202 26.5104V26.5005H110.212ZM131.026 13.2552C130.918 13.2847 130.8 13.3339 130.662 13.4028C130.525 13.4618 130.377 13.5602 130.21 13.6882C130.043 13.8161 129.856 13.9735 129.649 14.1507C129.453 14.3376 129.167 14.4262 128.892 14.3278C128.695 14.7116 128.843 15.1839 129.226 15.3807C129.521 15.5283 129.876 15.4791 130.112 15.2528C130.308 15.0658 130.495 14.9182 130.672 14.7903C130.83 14.6624 130.977 14.564 131.125 14.5049C131.203 14.4754 131.272 14.4262 131.341 14.4065V13.3044C131.341 13.2453 131.361 13.2257 131.351 13.2257C131.351 13.206 131.322 13.2257 131.233 13.2257C131.164 13.2158 131.095 13.2355 131.026 13.2552ZM106.385 24.001C106.336 23.9715 106.287 23.9518 106.238 23.942L106.228 23.9617C105.903 24.5324 105.539 25.0343 105.146 25.4771C104.733 25.9199 104.28 26.3037 103.778 26.6284C103.296 26.9335 102.814 27.1697 102.372 27.3271C101.89 27.5043 101.427 27.6027 100.995 27.6027C100.513 27.6027 100.08 27.5239 99.6765 27.3763C99.2633 27.2287 98.8895 27.0122 98.5748 26.7072C98.4272 26.5792 98.2895 26.4218 98.1813 26.2447C98.2108 26.3923 98.2501 26.5202 98.2895 26.6481C98.4567 27.1106 98.6928 27.4944 99.0273 27.8093C99.342 28.1144 99.7158 28.3309 100.129 28.4785C100.532 28.6261 100.965 28.6851 101.437 28.6851C101.87 28.6851 102.323 28.6064 102.814 28.4293C103.267 28.2718 103.739 28.0258 104.221 27.7109C104.723 27.4058 105.175 27.0221 105.588 26.5792C105.992 26.1364 106.356 25.6346 106.67 25.0638C106.887 24.68 106.759 24.2077 106.385 24.001ZM129.334 27.3763C129.305 27.3173 129.275 27.2484 129.226 27.1697C129.177 27.1106 129.128 27.0614 129.089 26.9925C129.315 27.8388 129.423 28.6162 129.394 29.3247C129.364 30.299 129.098 31.1256 128.607 31.8242L128.587 31.8538C128.154 32.4442 127.721 32.9559 127.269 33.3692C126.797 33.6743 126.147 34.0187 125.498 34.2155H125.488C124.406 34.5501 123.088 34.7075 121.524 34.7075C119.458 34.737 117.589 34.186 115.907 33.0641C114.609 32.208 113.438 30.9878 112.386 29.4428L112.405 29.4724C112.415 29.5019 112.435 29.5314 112.445 29.5511C113.655 31.5881 115.042 33.1232 116.596 34.1564C117.589 34.8059 118.652 35.2684 119.783 35.544C121.258 35.8785 125.331 35.7998 127.062 34.7961C127.967 34.2548 128.538 33.6349 129.03 32.9264L129.059 32.8969C129.541 32.208 129.807 31.3617 129.846 30.4072C129.876 29.5117 129.698 28.4981 129.325 27.3763H129.334ZM97.4534 13.698C97.4435 13.6783 97.4534 13.698 97.4337 13.698C97.3255 13.6488 97.1583 13.639 96.9222 13.639C96.7156 13.639 96.4402 13.7472 96.086 14.0227C95.6532 14.3376 95.1417 14.8395 94.5712 15.5087C93.4793 16.7978 92.9383 17.4669 92.9383 17.5161V24.4537C92.9383 24.5127 92.9284 24.5816 92.9088 24.6407C92.8005 25.054 92.5743 25.4377 92.2398 25.8018C91.9447 26.1167 91.5414 26.4218 91.0398 26.7269C90.5577 27.0024 90.0757 27.2189 89.5937 27.3665C89.0921 27.5141 88.6002 27.5928 88.1084 27.5928C87.9903 27.5928 87.892 27.5633 87.7936 27.5141V27.9176C87.7936 28.3505 88.1379 28.6851 88.5707 28.6851C89.0527 28.6851 89.5544 28.6261 90.0561 28.4785C90.5381 28.3309 91.0201 28.1144 91.5119 27.829C92.0038 27.5436 92.3972 27.2386 92.7022 26.9237C93.0465 26.5596 93.2727 26.1561 93.3711 25.7625C93.3908 25.7034 93.3907 25.6346 93.3907 25.5755V18.6084C93.3907 18.5592 93.9416 17.8704 95.0335 16.601C95.604 15.9121 96.1057 15.4398 96.5484 15.115C96.8927 14.8395 97.1779 14.7116 97.3845 14.7116C97.473 14.7116 97.5517 14.7116 97.6206 14.7313C97.6107 14.5246 97.6009 14.3278 97.5714 14.1605C97.5419 13.9735 97.5025 13.8062 97.4534 13.698ZM37.4291 13.9539C37.2324 14.0818 36.9963 14.1113 36.77 14.0523C36.6028 14.3573 36.6717 14.7509 36.9569 14.997C37.2225 15.2233 37.6062 15.2331 37.8816 15.0462C38.4226 14.7313 38.8751 14.4852 39.2489 14.3081V13.0288C39.1407 13.0584 39.0128 13.1076 38.8554 13.1863C38.4718 13.3437 37.9996 13.6193 37.4291 13.9539ZM49.3218 13.698C49.312 13.6783 49.312 13.698 49.3021 13.698C49.2038 13.6488 49.0365 13.639 48.8005 13.639C48.6037 13.639 48.3283 13.7472 47.9742 14.0227C47.5315 14.3376 47.0298 14.8395 46.4691 15.5087C45.8691 16.2073 45.4264 16.7682 45.151 17.1619C44.9444 17.4374 44.8461 17.4768 44.8461 17.5161V24.4537C44.8461 24.5127 44.8362 24.5816 44.8264 24.6407C44.7182 25.054 44.4919 25.4377 44.1575 25.8018C43.8624 26.1167 43.4591 26.4218 42.9672 26.7269C42.4852 27.0024 42.0032 27.2189 41.5114 27.3665C41.0097 27.5141 40.5179 27.5928 40.026 27.5928C39.908 27.5928 39.7998 27.5633 39.7112 27.5141V27.9176C39.7112 28.3505 40.0555 28.6851 40.4785 28.6851C40.9703 28.6851 41.472 28.6261 41.9639 28.4785C42.4459 28.3309 42.9279 28.1144 43.4099 27.829C43.9116 27.5436 44.305 27.2386 44.61 26.9237C44.9444 26.5596 45.1707 26.1561 45.2789 25.7625C45.2985 25.7034 45.2985 25.6346 45.2985 25.5755V18.6084C45.2985 18.5789 45.3969 18.5297 45.6035 18.2443C45.8888 17.8605 46.3216 17.2996 46.9216 16.601C47.4922 15.9318 47.9938 15.4398 48.4267 15.115C48.7709 14.8395 49.0464 14.7116 49.2529 14.7116C49.3316 14.7116 49.4103 14.7116 49.4792 14.7313C49.4694 14.5246 49.4595 14.318 49.4398 14.1605C49.4103 13.9735 49.371 13.8062 49.3218 13.698ZM68.3069 23.9813C68.2872 23.9813 68.2774 23.9813 68.2577 23.9617C68.0609 24.4537 67.8052 24.8867 67.4904 25.3C67.1658 25.733 66.7822 26.1266 66.3297 26.4808C65.8673 26.8449 65.3657 27.1205 64.8246 27.2976C64.2934 27.4846 63.7229 27.583 63.1229 27.583C62.0408 27.583 61.1948 27.2287 60.6243 26.53C60.5456 26.4513 60.4768 26.3431 60.4177 26.2447C60.5456 26.8056 60.7719 27.2484 61.0866 27.6322C61.667 28.3309 62.5031 28.6654 63.5852 28.6654C64.1754 28.6654 64.7459 28.5867 65.287 28.3899C65.8182 28.2128 66.3198 27.9471 66.792 27.5731C67.2445 27.2189 67.6281 26.8253 67.9527 26.3923C68.2774 25.9593 68.5429 25.4968 68.7397 24.9851C68.8971 24.6013 68.7003 24.1388 68.3069 23.9813ZM86.1607 22.2297C86.1017 22.1805 86.023 22.151 85.9443 22.1313C85.9246 22.151 85.9148 22.1805 85.8951 22.2101C85.2754 23.0859 84.636 23.8633 83.9572 24.5226C83.2687 25.2114 82.5506 25.7625 81.7931 26.2151C80.2586 27.1205 78.5175 27.583 76.56 27.583C75.1631 27.583 73.9434 27.3566 72.9203 26.9335C71.858 26.4907 71.012 25.8215 70.3824 24.9064C70.0775 24.4635 69.8119 24.0109 69.5856 23.5484C69.8808 24.4045 70.3037 25.2213 70.8448 25.9987C71.4743 26.8941 72.3104 27.5731 73.3728 28.0258C74.3959 28.4588 75.6058 28.6654 77.0124 28.6654C78.97 28.6654 80.7111 28.2226 82.2456 27.2976C83.0031 26.8548 83.7212 26.2939 84.4097 25.6247C85.0786 24.9752 85.7279 24.188 86.3476 23.3122C86.5935 22.9579 86.505 22.4856 86.1607 22.2297ZM85.5115 13.9539C85.2262 14.131 84.8524 14.131 84.5868 13.8948C84.5179 13.8456 84.4589 13.7669 84.4196 13.7078L75.5861 21.9542C75.7238 22.1116 75.8714 22.2593 76.0189 22.3675C76.1566 22.4757 76.3042 22.5938 76.4616 22.6726L84.8819 14.8001C84.9212 14.8789 84.9803 14.9477 85.059 15.0068C85.3246 15.2331 85.7082 15.243 85.9836 15.056C86.5148 14.7411 86.9771 14.4951 87.3509 14.318V13.0387C87.2427 13.0682 87.105 13.1174 86.9476 13.1961C86.5542 13.3437 86.082 13.6193 85.5115 13.9539ZM59.6013 13.7964C59.5718 13.7472 59.5226 13.7177 59.4636 13.6882C59.375 13.6586 59.2472 13.639 59.0799 13.639C58.9127 13.639 58.6668 13.7472 58.3323 14.0227C57.9093 14.3278 57.4175 14.8198 56.847 15.489C56.8371 15.489 56.8273 15.5087 56.8175 15.5185C56.2076 16.2369 55.7551 16.7978 55.4698 17.1914C55.2632 17.4669 55.155 17.4669 55.155 17.5063V24.4438C55.155 24.5029 55.1452 24.5718 55.1255 24.6308C55.0173 25.0441 54.8009 25.4279 54.4763 25.792C54.1714 26.1069 53.7877 26.412 53.3156 26.6973H53.3057C52.8237 26.9827 52.3319 27.209 51.8302 27.3468C51.3187 27.4944 50.7875 27.5731 50.2465 27.5731C50.1284 27.5731 50.0301 27.5436 49.9317 27.4944V27.8979C49.9317 28.3309 50.276 28.6654 50.7088 28.6654C51.24 28.6654 51.7712 28.6064 52.2827 28.4588C52.7942 28.3112 53.286 28.0947 53.7582 27.8093H53.768C54.2402 27.5239 54.6337 27.2189 54.9288 26.8843C55.2632 26.53 55.4797 26.1364 55.578 25.733C55.5977 25.6739 55.6075 25.605 55.6075 25.546H55.6174V18.6084C55.6174 18.5592 55.7157 18.5592 55.9223 18.2935C56.2174 17.8901 56.6601 17.339 57.27 16.6206C57.2798 16.601 57.2995 16.5911 57.3093 16.5714C57.87 15.922 58.3618 15.4201 58.7848 15.1052C59.1193 14.8493 59.3652 14.7214 59.5423 14.7214C59.6406 14.7214 59.7292 14.7411 59.798 14.7509C59.7882 14.5148 59.7685 14.3081 59.739 14.1408C59.6996 13.9834 59.6603 13.8751 59.6013 13.7964ZM161.137 28.6654C161.648 28.6654 162.16 28.567 162.691 28.3505C163.193 28.1439 163.685 27.8388 164.186 27.4452C164.668 27.0614 165.081 26.6776 165.436 26.284C165.79 25.8707 166.085 25.4574 166.311 25.0244C166.508 24.6603 166.35 24.1782 165.977 23.9912C165.937 23.9715 165.898 23.9617 165.849 23.942C165.623 24.375 165.337 24.7883 164.973 25.1819C164.629 25.5853 164.216 25.9593 163.724 26.3431C163.222 26.7465 162.721 27.0417 162.219 27.2484C161.698 27.4747 161.176 27.583 160.675 27.583C160.33 27.583 159.937 27.4747 159.524 27.2779C159.179 27.1008 158.786 26.8449 158.363 26.5005C158.019 26.225 157.743 25.9298 157.517 25.5755C157.576 25.8117 157.655 26.0577 157.763 26.2742C157.999 26.7859 158.353 27.2287 158.825 27.5928C159.238 27.9274 159.632 28.1832 159.986 28.3604C160.399 28.5769 160.783 28.6654 161.137 28.6654ZM177.584 11.5921C177.545 11.5921 177.505 11.5725 177.476 11.5725C177.161 11.5232 176.925 11.3166 176.836 11.0312C176.581 11.2576 176.315 11.4445 176.03 11.5921C175.558 11.848 175.007 12.0546 174.367 12.1629C173.964 12.2416 173.541 12.2908 173.079 12.3203V27.8684C173.079 29.9053 172.862 31.6766 172.449 33.1724C172.016 34.7174 171.357 35.9769 170.482 36.9511C169.626 37.9057 168.672 38.6437 167.659 39.1161C166.626 39.6278 165.524 39.8639 164.354 39.8639H159.701C159.622 39.8639 159.543 39.8443 159.465 39.8147C159.455 39.8639 159.435 39.8935 159.425 39.923C159.288 40.3363 159.504 40.7693 159.897 40.907C159.986 40.9366 160.075 40.9366 160.153 40.9366V40.9562H164.806C165.967 40.9562 167.069 40.7004 168.111 40.2084C169.134 39.7262 170.069 38.998 170.934 38.0434C171.81 37.0692 172.469 35.7998 172.892 34.2647C173.315 32.7689 173.521 30.9976 173.521 28.9606V13.4126C173.984 13.3831 174.417 13.3339 174.81 13.2552C175.44 13.1273 176 12.9403 176.482 12.6844C176.758 12.5368 177.023 12.3499 177.279 12.1235C177.368 12.4089 177.614 12.6155 177.909 12.6647C177.948 12.6647 177.987 12.6647 178.017 12.6647H179.374V11.5823H177.584V11.5921ZM189.624 22.2789C189.575 22.2494 189.526 22.2297 189.467 22.2199L189.457 22.2396C189.024 23.0071 188.552 23.6861 188.041 24.3159C187.519 24.9556 186.968 25.5263 186.378 26.0183C185.758 26.53 185.129 26.9138 184.49 27.1795C183.83 27.455 183.162 27.5928 182.493 27.5928C181.942 27.5928 181.47 27.4846 181.056 27.2779C181.037 27.2582 181.027 27.2582 181.007 27.2484C180.653 27.0614 180.368 26.7859 180.142 26.4513C180.22 26.7564 180.319 27.0221 180.437 27.2681C180.683 27.7503 181.017 28.1144 181.46 28.3505C181.479 28.3505 181.499 28.3702 181.519 28.3801C181.932 28.5867 182.404 28.6851 182.945 28.6851C183.614 28.6851 184.283 28.5572 184.942 28.2817C185.581 28.0061 186.201 27.6322 186.821 27.1008C187.411 26.6088 187.962 26.0479 188.483 25.4082C188.995 24.7883 189.467 24.0994 189.9 23.3516C189.969 23.2236 189.998 23.0957 189.998 22.9481C190.018 22.6726 189.88 22.4167 189.624 22.2789ZM141.247 14.1605C141.208 14.0031 141.149 13.8456 141.08 13.7275C141.05 13.6685 141.001 13.6291 140.952 13.5996C140.873 13.5504 140.775 13.5406 140.627 13.5406C140.499 13.5406 140.332 13.6193 140.125 13.7669C139.83 13.9735 139.496 14.2786 139.122 14.6919C138.699 15.1839 138.296 15.6464 137.912 16.0991C137.597 16.4632 137.273 16.8666 136.929 17.3095V24.6603C136.929 24.867 136.84 25.0736 136.663 25.2311C136.397 25.4673 136.112 25.6936 135.817 25.9199C135.522 26.1463 135.197 26.3824 134.843 26.6186C134.459 26.8745 134.046 27.0811 133.604 27.2582C133.171 27.4058 132.709 27.5141 132.236 27.5731C132.197 27.5928 132.158 27.5928 132.108 27.5928C132 27.5928 131.892 27.5633 131.794 27.5141V27.9176C131.794 28.3505 132.138 28.6851 132.571 28.6851C132.61 28.6851 132.649 28.6851 132.699 28.6851C133.171 28.6261 133.623 28.508 134.066 28.3505C134.509 28.1931 134.922 27.9864 135.315 27.7306C135.66 27.4944 135.984 27.2484 136.289 27.0319C136.584 26.8056 136.869 26.5891 137.135 26.3431C137.312 26.1856 137.401 25.979 137.401 25.7526V18.4215C137.745 17.9786 138.079 17.5752 138.394 17.2111C138.778 16.7682 139.181 16.2861 139.604 15.8039C139.978 15.3906 140.303 15.0658 140.607 14.8789C140.824 14.7313 140.991 14.6525 141.109 14.6525C141.198 14.6525 141.267 14.6722 141.326 14.6722C141.306 14.4656 141.276 14.3081 141.247 14.1605ZM156.966 23.0367C156.563 23.4204 156.169 23.7747 155.786 24.1093C155.028 24.7784 154.33 25.3689 153.71 25.8806C153.041 26.4415 152.412 26.8548 151.821 27.1205C151.182 27.4255 150.572 27.583 150.011 27.583C149.372 27.583 148.762 27.4058 148.192 27.0614C147.66 26.7268 147.169 26.2447 146.726 25.6247C146.569 25.3984 146.431 25.1819 146.303 24.926C146.519 25.5952 146.805 26.2053 147.178 26.7072C147.631 27.3468 148.123 27.8191 148.644 28.1537C149.215 28.4883 149.825 28.6654 150.464 28.6654C151.035 28.6654 151.635 28.5178 152.274 28.2226C152.864 27.9471 153.494 27.5338 154.163 26.9827C154.782 26.471 155.471 25.8806 156.238 25.2114C156.514 24.9752 156.789 24.7194 157.074 24.4635C157.005 24.1585 156.966 23.8239 156.966 23.4893V23.0367ZM147.621 12.7238C147.621 12.2416 147.542 11.8185 147.405 11.4052C147.316 11.1493 147.208 10.9131 147.06 10.7065C147.129 10.9919 147.169 11.3166 147.169 11.6315C147.169 12.2219 146.992 12.832 146.657 13.4618C146.342 14.0326 145.89 14.6427 145.28 15.2626C144.709 15.8334 144.159 16.3746 143.608 16.9159C143.096 17.4079 142.545 17.8999 141.985 18.4313C141.788 18.6183 141.483 18.7068 141.198 18.6183H141.188C140.991 19.0217 141.149 19.4645 141.532 19.6712C141.847 19.8188 142.211 19.7499 142.447 19.5138C142.998 19.002 143.539 18.51 144.06 17.9983C144.611 17.4768 145.162 16.9159 145.732 16.3451C145.9 16.1877 146.047 16.0302 146.185 15.8531C146.224 15.7744 146.254 15.6661 146.293 15.5775C146.628 14.6821 147.06 13.8751 147.601 13.1371C147.611 12.9993 147.621 12.8517 147.621 12.7238ZM34.2813 23.0859C34.3502 23.0859 34.4289 23.0662 34.5076 23.0563V9.93892C34.5076 9.63387 34.3207 9.34849 34.0452 9.24025V23.0662L34.0551 23.0859C34.0944 23.076 34.1731 23.0859 34.2813 23.0859ZM23.8051 11.848C23.8051 11.8775 23.8149 11.907 23.8149 11.9464V20.7143C23.8149 21.0981 23.8346 21.4326 23.8838 21.6983C23.9231 21.9542 23.9822 22.1609 24.0609 22.3085C24.0904 22.3675 24.1494 22.4167 24.2281 22.4561C24.2576 22.4757 24.2773 22.4757 24.3068 22.4856C24.2871 22.2789 24.2773 22.0526 24.2773 21.8164V13.0485C24.2773 13.019 24.2773 12.9895 24.2674 12.9501C24.2379 12.586 24.1789 12.2121 24.1002 11.8381C24.0215 11.4544 23.9231 11.0706 23.7953 10.7065C23.7854 10.677 23.7756 10.6573 23.7658 10.6278C23.6969 10.4506 23.5985 10.2735 23.5002 10.1357C23.5592 10.3424 23.6084 10.5392 23.6477 10.7458C23.7166 11.1001 23.7756 11.4839 23.8051 11.848ZM16.1225 13.5209C16.3685 13.698 16.6931 13.698 16.939 13.5504C17.3325 13.3241 17.6669 13.1469 17.9522 13.0584C18.0506 13.0092 18.1293 12.9993 18.2178 12.96V12.5467C18.2178 12.34 18.208 12.1432 18.1883 12.0054C18.1784 11.9267 18.1588 11.8578 18.1489 11.8283C18.1293 11.8283 18.1096 11.8283 18.0702 11.8283C17.9227 11.8283 17.7259 11.8578 17.4899 11.9562C17.2046 12.0645 16.8701 12.2318 16.4767 12.4483C16.2898 12.5565 16.0635 12.5762 15.857 12.527C15.6897 12.8714 15.7979 13.3044 16.1225 13.5209ZM38.7276 22.3872C38.6587 22.3577 38.5898 22.3281 38.521 22.2888C38.5013 22.3183 38.4915 22.3478 38.4718 22.3675C38.1275 22.8792 37.7144 23.4008 37.2127 23.942C36.7307 24.4832 36.17 25.0441 35.5306 25.6444C34.842 26.2643 34.1829 26.7465 33.5239 27.0614C32.8255 27.396 32.1467 27.5731 31.468 27.5731C30.9663 27.5731 30.5236 27.4944 30.14 27.3468C29.7072 27.1894 29.3629 26.9138 29.117 26.5792C29.0875 26.5497 29.058 26.5202 29.0383 26.4808C29.0481 26.5104 29.058 26.5399 29.0678 26.5792C29.176 27.0122 29.3531 27.3763 29.5793 27.6814C29.8351 28.016 30.1794 28.2718 30.6023 28.4489C30.986 28.5965 31.4188 28.6556 31.9303 28.6556C32.5992 28.6556 33.2878 28.4981 33.9862 28.1439C34.6453 27.829 35.3142 27.3665 35.9929 26.7269C36.6323 26.1364 37.2028 25.5755 37.6848 25.0343C38.1767 24.4734 38.5997 23.9617 38.9341 23.4598C39.1702 23.1252 39.0817 22.6234 38.7276 22.3872ZM44.8362 13.3437C44.9641 13.1863 45.0821 13.0288 45.21 12.8616C45.151 12.2121 45.0625 11.661 44.9444 11.2379C44.8461 10.8738 44.7182 10.5687 44.5313 10.3129C44.6296 10.7458 44.7083 11.2576 44.7575 11.8578C44.7969 12.3105 44.8264 12.8025 44.8362 13.3437ZM15.5815 32.5229H15.552C15.0208 32.3458 14.4798 32.2375 13.9486 32.1687C13.3977 32.1096 12.8567 32.1096 12.3059 32.1391C12.296 32.1391 12.2763 32.1391 12.2665 32.1391C11.3419 32.1883 10.4369 32.2867 9.54171 32.4245C8.64656 32.5721 7.75141 32.7591 6.85626 32.9854L6.81692 33.0051C5.84307 33.261 5.00694 33.4676 4.33804 33.6447C3.96424 33.7431 3.6593 33.8219 3.12811 33.9596C2.98056 34.0679 2.79366 34.186 2.57725 34.2745C2.31165 34.3828 1.98704 34.4615 1.58373 34.5599C1.47552 34.5796 1.37715 34.5796 1.27879 34.5599C0.944335 34.5009 0.64923 34.3729 0.413146 34.1564C0.373799 34.1269 0.334452 34.0974 0.304941 34.058C0.285268 34.186 0.295104 34.3139 0.334452 34.4418C0.442657 34.7764 0.61972 35.0322 0.86564 35.2586C1.10172 35.4456 1.39683 35.5932 1.74112 35.662C1.82965 35.6817 1.93785 35.6817 2.03622 35.662C2.43953 35.5833 2.76415 35.4751 3.02974 35.357C3.24615 35.2586 3.43305 35.17 3.5806 35.0421C4.11179 34.9142 4.41673 34.8354 4.79053 34.737C5.46927 34.5599 6.29556 34.3533 7.27925 34.0974L7.30876 34.0777C8.19407 33.8415 9.09906 33.6644 9.99421 33.5168C10.8894 33.3692 11.8042 33.2806 12.719 33.2314C12.7387 33.2314 12.7485 33.2314 12.7682 33.2314C13.3191 33.1822 13.8601 33.2019 14.4109 33.261C14.952 33.32 15.493 33.4381 16.0143 33.6152H16.0439C16.339 33.7136 16.5652 33.8219 16.7521 33.9695C16.7521 33.6152 16.6734 33.3298 16.516 33.1133C16.3193 32.8575 16.0045 32.6705 15.5815 32.5229ZM21.8771 30.5351C21.8181 30.4072 21.759 30.299 21.6902 30.1809C21.7197 30.2891 21.7492 30.417 21.7787 30.545C21.8869 30.9091 21.8672 31.3421 21.7394 31.7849C21.6312 32.1982 21.4246 32.641 21.1196 33.1429C21.0901 33.1921 21.0508 33.2413 21.0016 33.2905C20.5393 33.7727 20.0671 34.1663 19.5851 34.4517C19.0638 34.7666 18.5326 34.9634 18.0014 35.0421C17.844 35.0618 17.6964 35.0421 17.5686 34.983L17.2341 34.8748C17.2144 34.8551 17.1948 34.8551 17.1751 34.8453C17.1849 34.9535 17.1948 35.0716 17.1849 35.1995C17.1652 35.5341 17.362 35.849 17.6964 35.9769L18.0211 36.0852C18.1489 36.1442 18.3063 36.1639 18.4637 36.1442C18.9949 36.0655 19.5162 35.8589 20.0376 35.5538C20.5196 35.2684 20.9918 34.865 21.4639 34.3926C21.5131 34.3434 21.5426 34.2942 21.582 34.245C21.8771 33.753 22.0837 33.3003 22.2017 32.887C22.3296 32.4245 22.3394 32.0112 22.2312 31.6471C22.1624 31.2535 22.0443 30.8697 21.8771 30.5351ZM28.4481 24.1683C28.212 24.3946 27.9857 24.6013 27.7497 24.7883C27.1103 25.3295 26.4905 25.8117 25.8905 26.2348C25.2609 26.6678 24.6117 27.0024 23.933 27.2189C23.2444 27.455 22.5558 27.5731 21.8476 27.5731C21.1688 27.5731 20.5885 27.4157 20.0868 27.1106C19.6736 26.8351 19.3293 26.471 19.0638 26.0085C19.1523 26.2939 19.2605 26.5694 19.3785 26.8253C19.654 27.4354 20.0474 27.8979 20.5393 28.1931C21.041 28.508 21.6213 28.6556 22.3001 28.6556C22.9985 28.6556 23.6969 28.5473 24.3855 28.321C25.0544 28.0947 25.7134 27.7601 26.343 27.3173C26.943 26.904 27.5628 26.4218 28.2022 25.8806C28.3399 25.7526 28.4678 25.6444 28.6055 25.5263L28.5956 25.4771C28.4973 25.113 28.4481 24.6702 28.4481 24.1683ZM10.004 17.9983C9.66959 20.2813 9.29579 22.2986 8.88265 24.0699C8.51869 25.6346 8.11538 27.0024 7.67272 28.2029C7.95799 28.0947 8.27276 27.9668 8.62689 27.8388C8.87281 27.0221 9.11873 26.1364 9.34498 25.172C9.75812 23.4008 10.1319 21.3736 10.4664 19.1004C10.7615 17.6342 10.9484 16.1483 11.0172 14.6821C11.0959 13.2453 11.0664 11.8086 10.9287 10.3916C10.9287 10.3621 10.9287 10.3424 10.9287 10.3325C10.8303 9.15168 10.6139 8.08891 10.309 7.12454C10.2991 7.10486 10.2991 7.09501 10.2991 7.07533C10.1516 6.64235 9.98437 6.24873 9.79747 5.86495L9.83682 5.97319C9.84665 5.99288 9.84666 6.00272 9.84666 6.0224C10.1614 6.97693 10.368 8.04954 10.4664 9.24025C10.4762 9.25993 10.4762 9.26977 10.4762 9.28945C10.6041 10.7065 10.6434 12.1432 10.5647 13.5799C10.4762 15.056 10.2991 16.5321 10.004 17.9983ZM0.914824 5.05803C0.964008 5.05803 1.10172 5.20563 1.32797 5.47133C1.6034 5.77638 1.91818 6.23889 2.26247 6.83916L2.25263 6.81948L2.12475 6.56363C2.10508 6.5341 2.09524 6.50458 2.08541 6.46522H2.09524C2.07557 6.40618 2.05589 6.28809 2.02638 6.11096C1.59356 5.31388 1.20993 4.74313 0.885314 4.35935C0.64923 4.08382 0.511514 3.94605 0.472167 3.94605C0.295104 3.94605 0.137715 3.91653 0.00983667 3.81812C-1.50245e-07 3.86732 0 3.89685 0 3.94605V3.97557C0 4.07398 0.0196736 4.16254 0.0491841 4.26094L0.108205 4.41839C0.108205 4.43807 0.118042 4.44791 0.118042 4.4676C0.177063 4.64473 0.295105 4.80217 0.462331 4.91042C0.590209 5.00882 0.747598 5.05803 0.914824 5.05803ZM20.6573 28.9902C19.4474 27.8388 18.0309 27.2681 16.398 27.2386C14.6273 27.1598 12.719 27.4649 10.6533 28.134C8.59738 28.8032 7.44647 29.2854 7.17104 29.5412H6.82675L6.80708 29.4822C6.77757 29.4035 6.91528 29.0492 7.21039 28.4489C8.20391 25.9494 9.0302 22.4069 9.6991 17.8802C10.2696 14.9773 10.4172 12.1235 10.1516 9.33865C9.95486 7.02613 9.36465 5.245 8.35146 3.93621C5.56764 0.344418 0.21641 1.28911 0.777108 2.962L0.845966 3.14897C0.855803 3.17849 0.885313 3.20801 0.924661 3.20801C1.48536 3.20801 2.25263 4.1035 3.22648 5.88463C3.26582 6.09128 3.2855 6.21921 3.29533 6.24873L3.45272 6.55379C4.20032 9.27961 4.5151 12.4187 4.40689 15.9712C4.29869 19.5236 3.97407 23.2728 3.45272 27.2287C3.44289 28.4686 3.05925 29.9349 2.32149 31.5979C1.42634 32.4442 1.00336 32.9559 1.07221 33.133C1.20009 33.5168 1.47552 33.7431 1.88867 33.8219C2.58708 33.6743 3.0199 33.507 3.18713 33.2806C3.9544 33.074 5.27253 32.7394 7.11202 32.2769C8.9515 31.7849 10.8205 31.4995 12.6993 31.4011C13.8994 31.3027 15.0798 31.4503 16.2701 31.8144C17.4702 32.1982 18.0309 32.9756 17.9719 34.1564L18.3555 34.3041C19.231 34.1564 20.0868 33.6546 20.9229 32.7689C21.4541 31.9128 21.641 31.224 21.4836 30.7418C21.3557 30.0234 21.0901 29.433 20.6573 28.9902ZM34.7436 23.8534C34.419 23.8534 34.1928 23.8042 34.0649 23.696C33.937 23.5877 33.819 23.4696 33.7304 23.3811V8.83679C32.5894 8.83679 31.6254 9.14184 30.8581 9.76179C30.081 10.3817 29.6974 11.1001 29.6974 11.9464V18.9922C29.6974 19.809 29.1563 20.734 28.0743 21.7672C26.9922 22.8202 26.0774 23.3319 25.3495 23.3319C24.5625 23.3319 24.051 23.1055 23.8346 22.6627C23.6182 22.2199 23.5002 21.5606 23.5002 20.7143V11.9464C23.4411 11.228 23.2936 10.5392 23.0673 9.8602C22.8313 9.19104 22.2312 8.83679 21.2672 8.83679C20.3917 8.83679 19.5556 9.07296 18.7588 9.55514C17.9719 10.0373 17.2439 10.7852 16.5652 11.7889C17.4112 11.2969 18.0702 11.0509 18.5424 11.0509C18.926 11.0509 19.172 11.1788 19.29 11.415C19.408 11.6512 19.4671 12.035 19.4671 12.5467V22.0329C19.4671 23.3516 19.6736 24.4832 20.0966 25.4082C20.5294 26.3332 21.2574 26.7957 22.3197 26.7957C23.5789 26.7957 24.7789 26.3923 25.92 25.5952C27.0611 24.7981 28.3202 23.7255 29.6974 22.3773V24.1585C29.6974 25.0146 29.8646 25.6739 30.199 26.1167C30.5335 26.5596 31.1139 26.7859 31.9401 26.7859C33.0517 26.7859 34.2321 26.2151 35.4716 25.0638C36.7208 23.9125 37.6652 22.8595 38.3046 21.9247C37.4881 22.643 36.7897 23.1351 36.2192 23.4204C35.6388 23.7058 35.1469 23.8534 34.7436 23.8534ZM65.0804 23.9026V12.153C65.0804 11.0411 64.8837 10.244 64.4902 9.78148C64.0967 9.31897 63.4278 9.09264 62.4933 9.09264C61.1457 9.09264 59.8079 9.811 58.4799 11.2576C57.1519 12.6943 55.942 14.1408 54.8599 15.5972V13.1863C54.8599 11.8185 54.6829 10.795 54.3287 10.1062C53.9845 9.41738 53.2565 9.0828 52.1843 9.0828C50.7777 9.0828 49.4398 9.77164 48.1611 11.1395C46.8823 12.527 45.6822 14.0424 44.5411 15.7153V14.1999C44.5411 12.4483 44.4329 11.1591 44.2165 10.3227C43.9902 9.4961 43.4787 9.0828 42.6623 9.0828C42.1311 9.0828 41.413 9.4469 40.4982 10.1948C39.5735 10.9427 38.5702 11.9759 37.4586 13.2847C38.6882 12.5467 39.5243 12.1826 39.9572 12.1826C40.3113 12.1826 40.4883 12.4089 40.4883 12.832V26.7859C41.3245 26.7859 42.1704 26.53 43.0262 26.038C43.882 25.5263 44.3837 25.0048 44.5214 24.4242V17.4866C44.5214 17.2504 45.1215 16.414 46.3314 14.9871C47.5413 13.5504 48.5152 12.832 49.2529 12.832C49.9317 12.832 50.3448 13.019 50.4924 13.3733C50.6399 13.7374 50.7186 14.2294 50.7186 14.869V26.7761C51.6531 26.7761 52.5384 26.5202 53.3746 26.0282C54.2107 25.5165 54.6927 24.9949 54.8403 24.4143V17.4768C54.8403 17.2701 55.46 16.4435 56.6797 14.9871C57.9094 13.5406 58.8537 12.8222 59.5324 12.8222C60.0538 12.8222 60.4374 12.9796 60.6735 13.3142C60.9096 13.6291 61.0178 14.1408 61.0178 14.8592V23.7058C61.0178 25.7428 61.8736 26.7662 63.5754 26.7662C64.5984 26.7662 65.5034 26.4612 66.3002 25.8412C67.0871 25.2213 67.6675 24.4734 68.0118 23.5779C66.9887 24.4242 66.2215 24.8572 65.7296 24.8572C65.3066 24.8867 65.0804 24.5521 65.0804 23.9026ZM83.1605 23.263C82.2063 23.7452 81.1833 23.9813 80.1012 23.9813C79.0192 23.9813 78.0453 23.8534 77.1797 23.5976C76.314 23.322 75.5959 22.7513 75.0057 21.8558L85.6787 11.8775C84.3901 10.6671 83.3769 9.87004 82.6293 9.50594C81.8817 9.10248 80.9373 8.91551 79.7864 8.91551C76.9829 8.91551 74.6221 9.87004 72.7236 11.7889C70.8153 13.7177 69.8709 16.2565 69.8709 19.4252C69.8709 21.226 70.4119 22.9186 71.5038 24.4635C72.5859 26.0282 74.4254 26.8056 77.0321 26.8056C78.8519 26.8056 80.4652 26.3923 81.862 25.546C83.2687 24.7194 84.5573 23.4598 85.7279 21.7869C84.9606 22.2888 84.1048 22.8005 83.1605 23.263ZM74.1303 19.1693C74.0417 18.5789 73.9925 17.9589 73.9925 17.2898C73.9925 15.7448 74.2877 14.3868 74.8779 13.2552C75.4582 12.1038 76.2649 11.5331 77.2977 11.5331C78.1142 11.5331 78.7732 11.8185 79.2749 12.3499C79.7766 12.8714 80.0225 13.6291 80.0225 14.5837C80.0225 15.3807 79.2454 16.5616 77.6912 18.1262C76.6682 19.0512 75.6451 19.9959 74.6123 20.9308C74.3762 20.3305 74.2188 19.7598 74.1303 19.1693ZM102.893 24.0305V13.1863C102.893 11.8185 102.716 10.795 102.372 10.1062C102.027 9.41738 101.309 9.0828 100.227 9.0828C98.8305 9.0828 97.4927 9.77164 96.2238 11.1395C94.9548 12.527 93.7547 14.0424 92.6136 15.7153V14.1999C92.6136 12.4483 92.5054 11.1591 92.289 10.3227C92.0726 9.4961 91.5513 9.0828 90.7348 9.0828C90.2135 9.0828 89.4855 9.4469 88.5707 10.1948C87.6559 10.9427 86.6427 11.9759 85.541 13.2847C86.7706 12.5467 87.5969 12.1826 88.0494 12.1826C88.3936 12.1826 88.5707 12.4089 88.5707 12.832V26.7859C89.4068 26.7859 90.2528 26.53 91.1184 26.038C91.9743 25.5263 92.4661 25.0048 92.6136 24.4242V17.4866C92.6136 17.2504 93.2235 16.414 94.4433 14.9871C95.6532 13.5504 96.6369 12.832 97.3845 12.832C98.0731 12.832 98.4764 13.019 98.6338 13.3733C98.7813 13.7374 98.86 14.2294 98.86 14.869V24.0502C98.86 24.9752 99.0961 25.6641 99.5781 26.1069C100.06 26.5497 100.69 26.7761 101.467 26.7761C102.165 26.7761 102.952 26.4907 103.828 25.9298C104.713 25.3689 105.441 24.5718 106.021 23.5582C104.979 24.4537 104.162 24.8965 103.572 24.8965C103.119 24.926 102.893 24.621 102.893 24.0305ZM128.439 31.3814C128.066 31.903 127.692 32.3556 127.288 32.7197C126.915 32.9756 126.364 33.3594 125.193 33.753C123.649 34.2745 123.098 34.2647 120.924 34.2352C120.265 34.1761 119.626 34.0482 118.996 33.8514C118.544 33.7235 118.484 33.6743 118.002 33.5168C117.314 33.2413 116.655 32.9067 116.006 32.4934C113.93 31.0272 112.504 29.2067 111.697 27.0417C111.648 26.8941 111.569 26.7072 111.451 26.5005C111.441 26.3529 111.441 26.2643 111.431 26.2447L110.979 25.2606C110.389 23.263 110.271 20.793 110.635 17.8605L111.087 15.5283C111.097 14.8297 111.736 13.1863 113.035 10.6179C114.264 8.58093 115.642 6.80964 117.176 5.2942C118.101 4.38887 118.947 3.84764 119.714 3.67051C119.694 3.61147 120.147 3.49338 121.062 3.28673C121.888 3.25721 122.577 3.39498 123.127 3.74924C123.147 3.67051 123.147 3.60163 123.127 3.56227C123.019 3.15881 122.695 2.73566 122.193 2.283C122.341 1.64337 122.921 1.33831 123.934 1.33831C124.564 1.33831 125.223 1.52528 125.901 1.90906C126.58 2.29284 127.111 3.02104 127.495 4.11334C127.81 5.55005 127.672 7.07533 127.092 8.73838C126.492 10.3621 126.265 12.153 126.413 14.0818C126.433 14.1408 126.334 14.19 126.118 14.19H125.774C124.524 13.265 123.698 12.2121 123.324 11.0214L123.285 10.9131C123.039 10.1161 122.891 8.67934 122.862 6.64235C123.009 6.30777 123.019 5.94367 122.891 5.53037C122.813 5.50085 122.724 5.48117 122.616 5.48117H122.468C121.406 5.94367 120.314 6.86868 119.183 8.27588C117.491 11.1493 116.566 13.4126 116.448 15.056C115.622 19.1693 115.701 22.8202 116.714 26.0085L116.743 26.1167C118.278 30.0234 120.196 31.9325 122.498 31.903C124.337 31.9226 125.577 31.3322 126.197 30.1809C126.826 29.0295 127.043 27.8487 126.846 26.658C126.846 26.1167 127.141 25.8314 127.731 25.8314C127.987 25.851 128.282 26.1069 128.616 26.5497C129.295 28.6064 129.246 30.2301 128.439 31.3814ZM146.165 9.68307C145.713 9.14184 145.093 8.88599 144.296 8.88599C142.88 8.88599 141.453 9.68307 140.017 11.2576C138.876 12.6943 137.735 14.1408 136.614 15.5972V13.7472C136.614 11.9464 136.506 10.6868 136.289 9.96844C136.073 9.25009 135.551 8.88599 134.735 8.88599C134.155 8.88599 133.269 9.4469 132.069 10.5589C130.879 11.6709 130.053 12.6943 129.58 13.5898C130.013 13.1863 130.417 12.8911 130.761 12.714C131.115 12.5368 131.42 12.4384 131.686 12.4384C132.276 12.4384 132.561 12.7238 132.561 13.2945V26.7957C133.436 26.6875 134.194 26.412 134.863 25.9691C135.532 25.5263 136.112 25.0736 136.604 24.6505V17.0339C137.371 16.0794 138.168 15.1249 139.004 14.1802C139.84 13.2355 140.539 12.773 141.089 12.773C141.621 12.773 141.994 12.96 142.211 13.3437C142.427 13.7275 142.545 14.1999 142.545 14.81C142.545 15.302 142.467 15.8629 142.319 16.5124C142.172 17.152 142.024 17.5948 141.886 17.8704C142.968 16.8962 144.06 15.8432 145.182 14.7116C146.293 13.5799 146.854 12.5467 146.854 11.6217C146.844 10.8639 146.618 10.2046 146.165 9.68307ZM163.842 24.4931C163.478 24.6702 163.163 24.7686 162.898 24.7686C162.544 24.7686 162.357 24.5915 162.327 24.2274V9.09264H158.51C154.999 9.09264 152.136 10.1161 149.943 12.153C147.749 14.2097 146.647 17.0831 146.647 20.793C146.647 22.6135 147.041 24.0798 147.808 25.1819C148.585 26.2643 149.47 26.8056 150.464 26.8056C151.369 26.8056 152.441 26.3135 153.671 25.2901C154.9 24.2864 156.405 22.9481 158.186 21.285V23.4893C158.186 24.5127 158.57 25.3098 159.317 25.9101C160.065 26.5005 160.665 26.8056 161.137 26.8056C161.963 26.8056 162.819 26.4513 163.704 25.733C164.599 25.0343 165.229 24.3159 165.613 23.568C164.806 24.0109 164.216 24.3159 163.842 24.4931ZM158.196 19.3563C157.379 20.0451 156.563 20.5864 155.766 20.9701C154.959 21.3736 154.212 21.5803 153.504 21.5803C152.677 21.5803 152.038 21.2654 151.576 20.6356C151.103 19.9959 150.877 19.0217 150.877 17.6834C150.877 15.735 151.546 14.0129 152.894 12.4975C154.241 10.982 156.012 10.2341 158.206 10.2341V19.3563H158.196ZM172.774 9.26977V3.48354C172.774 2.99152 172.971 2.70614 173.374 2.63726C173.767 2.57822 174.682 2.53885 176.118 2.53885C177.879 2.53885 179.335 2.39125 180.486 2.10587C181.637 1.8205 182.581 1.12182 183.319 0H174.879C173.039 0 171.544 0.738039 170.423 2.1846C169.292 3.63115 168.731 5.35324 168.731 7.35087V9.25993H167.983L165.652 11.5725H168.731V33.7038C168.731 35.5046 167.452 36.4296 164.895 36.4788C162.327 36.528 160.763 37.4038 160.173 39.0964H164.826C166.931 39.0964 168.79 38.2206 170.384 36.4493C171.977 34.6681 172.774 31.8144 172.774 27.8684V11.5823C174.21 11.5823 175.331 11.356 176.138 10.9328C176.945 10.49 177.633 9.67323 178.223 8.49237C177.928 9.01392 176.118 9.26977 172.774 9.26977ZM186.988 23.5188C186.349 23.8829 185.837 24.0601 185.424 24.0601C184.922 24.0601 184.676 23.755 184.676 23.1646V10.795C185.326 10.7655 185.995 10.6671 186.673 10.49C187.362 10.3129 187.903 9.84052 188.277 9.04344H184.676V2.6471C183.299 5.91415 181.873 7.9413 180.397 8.70886C178.922 9.48626 178.135 10.1948 178.046 10.8147H180.633V22.2297C180.633 23.9518 180.801 25.1425 181.135 25.8018C181.47 26.471 182.08 26.8056 182.955 26.8056C184.096 26.8056 185.217 26.3431 186.339 25.3984C187.45 24.4734 188.414 23.2925 189.241 21.8558C188.375 22.6135 187.618 23.1547 186.988 23.5188ZM48.6922 35.3373H48.6726L48.6824 35.2881L48.6922 35.2586V35.1995H48.7021H48.7316L48.7119 35.2487V35.3471H48.6922V35.3373ZM92.9186 13.3339C93.0465 13.1765 93.1645 13.019 93.2924 12.8517C93.2334 12.2121 93.1448 11.6709 93.0268 11.2379C92.9284 10.8738 92.8005 10.5687 92.6136 10.3129C92.712 10.7458 92.7907 11.2576 92.8399 11.8578C92.8792 12.2908 92.9087 12.7927 92.9186 13.3339Z" fill="white"/>
<path fill-rule="evenodd" clip-rule="evenodd" d="M112.753 36.885C112.378 36.885 112.043 36.9833 111.757 37.1603C111.461 37.3374 111.244 37.5242 111.106 37.7308C110.86 38.0947 110.682 38.4782 110.584 38.911C110.475 39.3241 110.426 39.8552 110.426 40.4551C110.426 40.819 110.446 41.0944 110.475 41.2518C110.485 41.3009 110.495 41.3993 110.515 41.5271C110.554 41.8419 110.594 42.0681 110.643 42.2156C110.83 42.7565 110.958 43.1106 111.047 43.2385C111.175 43.4647 111.363 43.6712 111.619 43.8876C111.747 43.9958 111.935 44.0941 112.181 44.1925C112.428 44.2908 112.674 44.34 112.921 44.34C113.384 44.34 113.818 44.2318 114.222 44.0056C114.626 43.7991 114.942 43.4352 115.179 42.9041C115.415 42.3828 115.543 41.7042 115.543 40.8682C115.543 40.5141 115.514 40.0519 115.474 39.4618L115.435 39.3339C115.425 39.3044 115.405 39.2257 115.376 39.0782C115.218 38.3799 114.912 37.839 114.459 37.4652C114.005 37.0718 113.433 36.885 112.753 36.885ZM108.355 40.4945C108.355 39.9535 108.454 39.4224 108.671 38.8815C108.819 38.4979 109.026 38.1439 109.302 37.8095C109.568 37.4947 109.913 37.1997 110.327 36.9538C110.732 36.7178 111.156 36.5211 111.58 36.4129C112.004 36.3047 112.477 36.2555 112.999 36.2555C113.897 36.2555 114.676 36.4129 115.336 36.7669C115.987 37.0817 116.52 37.5439 116.894 38.1242C117.387 38.8717 117.634 39.6585 117.634 40.4649C117.634 41.6943 117.22 42.727 116.391 43.5925C115.563 44.4678 114.41 44.9006 112.93 44.9006C112.566 44.9006 112.221 44.8809 111.905 44.8416C111.668 44.7924 111.451 44.7629 111.274 44.6941C110.949 44.5859 110.761 44.517 110.722 44.5072C110.258 44.2318 109.874 43.9663 109.588 43.6909C109.302 43.4057 109.055 43.1008 108.858 42.7369C108.76 42.55 108.631 42.1763 108.493 41.6648C108.395 41.3304 108.355 40.9469 108.355 40.4945ZM102.567 40.2092C102.774 40.2092 102.932 40.2289 103.021 40.2289C103.76 40.2289 104.273 40.101 104.579 39.8257C104.884 39.5503 105.042 39.206 105.042 38.7733C105.042 38.4979 105.003 38.252 104.924 38.0062C104.845 37.7701 104.756 37.5931 104.648 37.4849C104.49 37.3079 104.283 37.1997 104.027 37.1013C103.839 37.0423 103.534 37.003 103.119 37.003C102.922 37.003 102.755 37.0226 102.607 37.0325L102.597 37.1603L102.607 38.016L102.587 38.5373V39.2552C102.587 39.4421 102.567 39.6978 102.567 40.0027V40.2092ZM99.6584 44.3695C99.7669 44.3105 99.9345 44.2711 100.161 44.2416C100.378 44.2121 100.575 44.163 100.753 44.0941C100.783 44.0154 100.792 43.9466 100.792 43.9072C100.802 43.8581 100.812 43.6515 100.812 43.2975L100.802 41.8615L100.822 41.0846L100.812 40.4945L100.822 40.1404C100.832 39.6585 100.842 39.2356 100.842 38.8225C100.842 37.9275 100.832 37.357 100.812 37.121L100.428 37.0423C100.082 37.0128 99.8458 36.9931 99.7373 36.9833L99.7275 36.5997L99.7472 36.5211C99.9641 36.4915 100.161 36.4719 100.339 36.4719C100.437 36.4719 100.635 36.4719 100.94 36.4719C101.246 36.4915 101.414 36.5014 101.443 36.5014L101.788 36.4817L102.597 36.4325C103.1 36.3834 103.632 36.3735 104.194 36.3735C105.082 36.3735 105.782 36.5997 106.304 37.0423C106.827 37.4849 107.083 37.9963 107.083 38.5864C107.083 39.0192 106.945 39.4126 106.669 39.7667C106.383 40.1207 105.959 40.3863 105.377 40.5633C105.427 40.6616 105.496 40.7502 105.585 40.878C105.762 41.1337 105.91 41.3599 106.018 41.5271L107.044 43.1991C107.31 43.6417 107.478 43.8974 107.547 43.9761C107.626 44.0351 107.793 44.1236 108.04 44.2121C108.237 44.2908 108.385 44.3597 108.483 44.4383C108.513 44.4974 108.523 44.5662 108.523 44.6252C108.523 44.6547 108.523 44.7039 108.513 44.7727H108.336H108.207L107.872 44.7432H107.606C107.458 44.7236 107.29 44.7236 107.093 44.7236L106.442 44.7039C106.393 44.7039 106.245 44.7236 105.989 44.7334C105.87 44.7531 105.772 44.7531 105.703 44.7629L105.486 44.3302C105.308 44.0154 105.17 43.7696 105.101 43.6122C104.904 43.1991 104.589 42.5402 104.125 41.6353C103.908 41.2026 103.76 40.9665 103.672 40.9174C103.543 40.819 103.317 40.7698 103.001 40.7698C102.912 40.7698 102.774 40.7698 102.557 40.7895C102.548 40.9174 102.538 41.0649 102.538 41.2321L102.577 42.668L102.528 43.8777C102.656 43.9367 102.814 44.0056 103.001 44.0351C103.336 44.0941 103.632 44.1826 103.879 44.2711C103.879 44.4974 103.869 44.6547 103.849 44.7531C103.77 44.7531 103.721 44.7531 103.701 44.7531L103.435 44.7727C102.508 44.6941 101.956 44.6449 101.778 44.6449C101.67 44.6449 101.591 44.6645 101.542 44.6645L100.644 44.7137C100.368 44.7432 100.132 44.7629 99.9049 44.7629H99.6289C99.619 44.6547 99.619 44.5859 99.619 44.5564C99.6387 44.5269 99.6486 44.4482 99.6584 44.3695ZM91.0109 36.049H91.4152C91.4448 36.0785 91.4744 36.1276 91.4842 36.1473C91.6025 36.3735 91.7011 36.5112 91.7603 36.5801C91.8195 36.5801 92.1054 36.5997 92.6576 36.5997C92.9928 36.5997 93.2788 36.5801 93.5352 36.5801H93.6634L94.4522 36.5604L95.9115 36.5801H97.9132L98.2977 36.5211C98.3569 36.4915 98.416 36.3735 98.4752 36.2063C98.4949 36.1768 98.5245 36.108 98.5541 36.049L98.84 36.0293C98.8795 36.0293 98.9485 36.049 99.0372 36.049C99.0471 36.3539 99.0471 36.7964 99.0471 37.3865L99.057 37.957L99.0471 38.2914C99.0471 38.3996 99.0372 38.4979 99.0175 38.5766C98.84 38.6356 98.6823 38.675 98.5442 38.6848C98.4358 38.5078 98.3174 38.2717 98.1794 37.9471C98.0512 37.6324 97.9625 37.4554 97.9329 37.4259C97.8737 37.3767 97.8146 37.3275 97.7554 37.3275C97.6469 37.298 97.1934 37.2784 96.375 37.2784C96.2566 37.2784 96.1087 37.298 95.9214 37.3079C95.9016 37.4849 95.8918 37.6128 95.8918 37.7209V40.4945L95.9115 42.5303L95.9016 43.3761C95.9016 43.681 95.9312 43.8974 95.9805 44.0449C96.0496 44.0744 96.1777 44.0941 96.3651 44.1236C96.4045 44.1236 96.5623 44.1728 96.8482 44.2318C96.9764 44.2613 97.0948 44.2908 97.1934 44.3302C97.2131 44.4875 97.2229 44.5859 97.2229 44.6154C97.2229 44.6449 97.2131 44.7137 97.2032 44.7727C97.1145 44.7727 97.0257 44.7727 96.9666 44.7727C96.5229 44.7727 96.1383 44.7727 95.8326 44.7432C95.527 44.7137 94.9551 44.6941 94.1465 44.6941C94.0183 44.6941 93.6338 44.7236 93.0027 44.7727C92.7562 44.7924 92.5984 44.8022 92.5196 44.8022C92.5196 44.7236 92.5097 44.6744 92.5097 44.6449L92.4998 44.4974V44.4482C92.5984 44.3203 92.7759 44.222 93.0323 44.163C93.4859 44.0646 93.7915 43.9564 93.969 43.8777C94.0085 43.7991 94.038 43.6909 94.0479 43.563C94.0676 43.0418 94.0873 42.2254 94.0873 41.0944L94.0676 38.6454C94.0676 37.9767 94.0578 37.5734 94.0183 37.4357C94.0085 37.3865 93.9986 37.357 93.9789 37.3374C93.9592 37.3177 93.9296 37.3079 93.8901 37.3079C93.7521 37.2882 93.3182 37.2784 92.5886 37.2784C92.1843 37.2784 91.9181 37.3275 91.7702 37.4062C91.5927 37.5144 91.3067 37.7898 90.9419 38.2619C90.8334 38.4094 90.7545 38.4684 90.6954 38.4684C90.4982 38.3701 90.37 38.2914 90.3108 38.2127C90.439 37.9373 90.6264 37.3865 90.863 36.5407C90.932 36.2948 90.9912 36.1276 91.0109 36.049ZM89.3741 36.6096C89.4135 36.7571 89.453 36.9735 89.4924 37.2784C89.5417 37.7209 89.5713 38.0553 89.5713 38.3111C89.5713 38.3897 89.5614 38.4684 89.5516 38.5471L89.4924 38.5766L89.029 38.5471L88.9501 38.5274C88.7628 37.957 88.5656 37.5734 88.3782 37.3669C88.043 37.0325 87.6584 36.8554 87.2147 36.8554C86.7907 36.8554 86.4554 36.9636 86.1991 37.1898C85.9526 37.4161 85.8244 37.6816 85.8244 38.0062C85.8244 38.2914 85.9526 38.5471 86.1991 38.8028C86.4456 39.0782 86.9583 39.2946 87.7373 39.5404C88.0035 39.5995 88.319 39.7273 88.6937 39.9043C89.0684 40.0617 89.3544 40.2584 89.5516 40.4649C89.808 40.7403 89.9854 40.9862 90.084 41.2321C90.1728 41.4878 90.2221 41.7927 90.2221 42.1763C90.2221 42.5795 90.1531 42.9729 89.9953 43.3761C89.9164 43.5827 89.7784 43.7794 89.591 43.9663C89.4628 44.0941 89.2558 44.2416 88.9895 44.4088C88.7135 44.5859 88.4374 44.7137 88.1416 44.7924C87.8457 44.8711 87.4711 44.9006 87.0175 44.9006C86.7118 44.9006 86.347 44.8514 85.9328 44.7727L85.1539 44.5465C84.9468 44.4875 84.8088 44.4383 84.7496 44.3892C84.7299 44.3695 84.7003 44.3302 84.6904 44.2613V44.2023C84.6904 44.1531 84.6806 43.8679 84.6609 43.3073C84.651 43.0319 84.651 42.8254 84.651 42.7172V42.4713L85.2525 42.4516C85.4595 42.9336 85.5877 43.2188 85.6568 43.3073C85.7849 43.5335 85.9427 43.7105 86.1005 43.8482C86.2681 43.9761 86.4554 44.0843 86.6822 44.163C86.909 44.2416 87.1457 44.2908 87.4119 44.2908C87.6387 44.2908 87.9049 44.2416 88.181 44.1433C88.4669 44.0351 88.6839 43.8679 88.8614 43.6515C89.029 43.4253 89.1177 43.1696 89.1177 42.9139C89.1177 42.5992 88.9698 42.3041 88.674 42.0386C88.4965 41.8812 88.0035 41.6353 87.2147 41.3501C86.416 41.0747 85.8638 40.8288 85.5581 40.6125C85.2525 40.3863 85.006 40.0912 84.8285 39.7175C84.651 39.3536 84.5622 38.9995 84.5622 38.6651C84.5622 37.9668 84.8088 37.3865 85.3018 36.9145C85.7948 36.4325 86.5146 36.1965 87.4809 36.1965C87.688 36.1965 87.9937 36.226 88.3979 36.3047C88.6346 36.3834 88.9698 36.4817 89.3741 36.6096ZM78.3995 41.1534C79.4151 41.1731 80.0068 41.1829 80.1843 41.1829L80.3519 41.1632C80.2237 40.7797 80.0561 40.3371 79.849 39.8257C79.6419 39.3142 79.4743 38.9208 79.3461 38.6651L78.3995 41.1534ZM75.3625 44.7826L75.3724 44.34C75.4513 44.3105 75.5992 44.2908 75.8063 44.2416C76.1415 44.1826 76.3387 44.1138 76.4077 44.0646C76.4768 44.0154 76.5655 43.8876 76.674 43.7007L77.9755 40.2879L79.5039 36.2752C79.6518 36.2752 79.7898 36.2752 79.918 36.2752H80.2138L80.273 36.3834L81.3971 39.0487C81.6436 39.6093 81.8802 40.1502 82.0774 40.6912C82.2845 41.2124 82.4521 41.6648 82.6 41.9992C82.6789 42.1861 82.8071 42.491 82.955 42.9041C83.024 43.1106 83.1522 43.3958 83.3001 43.7302C83.3889 43.9072 83.4579 44.0056 83.4973 44.0351C83.5762 44.0941 83.7044 44.1433 83.8819 44.163C84.0594 44.1925 84.2467 44.2416 84.4538 44.3203C84.4735 44.4678 84.4834 44.5564 84.4834 44.635C84.4834 44.6646 84.4834 44.7137 84.4834 44.7826C84.1678 44.7826 83.8129 44.7629 83.4283 44.7334C83.0438 44.7039 82.6986 44.6842 82.393 44.6842C82.0479 44.6842 81.8112 44.6842 81.6534 44.7039L80.5491 44.7531L80.2336 44.7727C80.2336 44.6252 80.2434 44.4875 80.2631 44.34L80.9829 44.1826C81.1999 44.1335 81.3182 44.0843 81.3576 44.0548C81.3971 44.0056 81.4168 43.9564 81.4168 43.9072C81.4168 43.8482 81.4069 43.7991 81.3872 43.7302L81.1308 43.0909L80.6181 41.832H78.1432C78.0544 42.0386 77.8572 42.5303 77.5713 43.327C77.4924 43.563 77.4431 43.7302 77.4431 43.8089C77.4431 43.9171 77.4727 43.9958 77.5417 44.0449C77.6403 44.1236 77.8276 44.1925 78.1136 44.222C78.1629 44.222 78.3108 44.2515 78.577 44.281C78.577 44.4383 78.5869 44.5367 78.5869 44.5957C78.5869 44.6449 78.577 44.6941 78.577 44.7432C78.3108 44.7432 77.6699 44.7137 76.6641 44.6449L76.3979 44.6941C76.0725 44.7432 75.7767 44.7727 75.4907 44.7727H75.3625V44.7826ZM74.5737 36.9636C74.6033 37.0915 74.6329 37.3275 74.6822 37.7111C74.7216 38.075 74.7413 38.3504 74.7413 38.5078C74.7413 38.5864 74.7216 38.6651 74.7019 38.7635C74.5146 38.7438 74.3568 38.734 74.2286 38.7045C73.9032 38.193 73.6764 37.8881 73.5384 37.7504C73.2919 37.5144 72.9665 37.3079 72.5819 37.1407C72.2861 37.0128 71.9607 36.9538 71.586 36.9538C70.8564 36.9538 70.2253 37.2685 69.683 37.9275C69.1308 38.5668 68.8646 39.5404 68.8646 40.7993C68.8646 41.4091 68.973 41.9992 69.1801 42.55C69.397 43.1106 69.7126 43.5532 70.1366 43.8679C70.5704 44.1826 71.0634 44.3498 71.6452 44.3498C71.9213 44.3498 72.2171 44.3203 72.5326 44.2515C72.7003 44.2023 72.8284 44.1433 72.927 44.0449C72.9961 43.9859 73.0454 43.8679 73.0552 43.7302C73.0947 43.4942 73.1144 43.1204 73.1144 42.6779C73.1144 42.2353 73.1045 41.9304 73.0848 41.7534C73.0552 41.6943 73.0256 41.6452 73.0059 41.6255C72.9763 41.6058 72.8876 41.5763 72.7397 41.5271L72.1579 41.3796C72.0297 41.3501 71.9607 41.3009 71.9311 41.2714C71.9213 41.2124 71.9213 41.1731 71.9213 41.1436C71.9213 41.0846 71.9311 40.996 71.9607 40.8879C72.0396 40.8682 72.0889 40.8387 72.1185 40.8387C72.5819 40.8387 72.9961 40.8682 73.3412 40.8879C73.4595 40.9075 73.5877 40.9075 73.7356 40.9075L74.7611 40.8879L75.1949 40.8682C75.2442 40.8682 75.3921 40.8879 75.6288 40.8977C75.6386 41.0059 75.6386 41.1042 75.6386 41.1731C75.6386 41.2223 75.6288 41.2813 75.5893 41.3304C75.5104 41.3796 75.3921 41.4386 75.2146 41.5075C75.0372 41.5665 74.9385 41.6157 74.9188 41.6353C74.8892 41.6648 74.8597 41.7337 74.8498 41.8124C74.8399 41.8714 74.8301 42.1271 74.8301 42.5795C74.8301 43.0713 74.8301 43.3761 74.8202 43.4745C74.8005 43.7892 74.7906 43.9859 74.7906 44.0154C74.7906 44.1728 74.7709 44.2711 74.7315 44.3203C74.6132 44.4285 74.2385 44.576 73.6074 44.7236C72.9862 44.8809 72.2565 44.9596 71.4184 44.9596C70.8366 44.9596 70.3338 44.9104 69.8999 44.8121C69.4661 44.7137 69.1111 44.5859 68.8054 44.399C68.4011 44.163 68.056 43.8777 67.7701 43.5237C67.4743 43.1893 67.2573 42.8057 67.1193 42.4123C66.9221 41.8517 66.8235 41.2813 66.8235 40.7207C66.8235 40.0814 66.9714 39.4421 67.2573 38.793C67.4743 38.3307 67.7799 37.898 68.1744 37.5144C68.5688 37.1505 69.0519 36.8456 69.6435 36.6194C70.2253 36.3932 70.8662 36.285 71.5565 36.285C71.6452 36.285 71.7832 36.3047 71.9706 36.3145C72.503 36.3145 72.9862 36.3735 73.4496 36.5014C73.8934 36.6292 74.268 36.7866 74.5737 36.9636Z" fill="white"/>
<path d="M27.0989 40.3403H62.8201" stroke="white" stroke-width="1.1339" stroke-linecap="round" stroke-linejoin="round"/>
<path d="M119.789 40.3403H152.123" stroke="white" stroke-width="1.1339" stroke-linecap="round" stroke-linejoin="round"/>
</g>
</svg>
