<svg width="49" height="23" viewBox="0 0 49 23" fill="none" xmlns="http://www.w3.org/2000/svg">
<g clip-path="url(#clip0)">
<path d="M24.4859 0.0267015C30.9432 0.0267015 37.4141 0.0801899 43.8715 -4.27046e-05C46.7068 -0.0267869 49.0265 1.9924 48.9859 5.08135C48.9316 9.40054 48.9723 13.7197 48.9723 18.0389C48.9723 20.9407 46.951 22.9732 44.0207 22.9732C31.0517 22.9732 18.0828 22.9465 5.11376 22.9866C2.10213 23.0133 -0.122673 20.8203 -0.00057953 17.9186C0.0401181 17.1564 -0.00057953 16.4075 -0.00057953 15.6453C-0.00057953 12.1686 -0.00057953 8.69182 -0.00057953 5.21507C-0.00057953 2.5674 1.32888 0.708678 3.68934 0.14705C4.15058 0.0400736 4.62539 0.0267015 5.10019 0.0133294C11.5576 0.0133294 18.0285 0.0133294 24.4859 0.0267015C24.4859 0.0133294 24.4859 0.0267015 24.4859 0.0267015ZM39.1641 13.7732C39.1234 13.7732 39.0827 13.7598 39.042 13.7598C38.9878 13.586 38.9335 13.4255 38.8793 13.2517C38.3502 11.4598 37.8347 9.66798 37.2785 7.87612C36.98 6.9267 36.0711 6.45868 35.2843 6.91333C34.8909 7.14066 34.5517 7.6488 34.4161 8.09007C33.8192 9.97554 33.2901 11.8744 32.6932 13.9337C32.5576 13.5459 32.4626 13.3052 32.3812 13.0511C31.8386 11.2459 31.3231 9.42728 30.7397 7.62205C30.4955 6.84647 30.0072 6.61914 29.356 6.81973C28.6913 7.03368 28.42 7.55519 28.6506 8.30403C29.0847 9.68135 29.5595 11.0453 30.0343 12.4226C30.4413 13.6261 30.8483 14.8296 31.2959 16.0064C31.5401 16.6482 32.0285 17.0093 32.7475 16.9959C33.4529 16.9825 33.8735 16.5947 34.0905 15.9662C34.3347 15.204 34.5653 14.4418 34.7959 13.6662C35.1351 12.5162 35.4742 11.3662 35.8541 10.0558C35.949 10.3232 35.9897 10.3901 36.0033 10.4703C36.5324 12.2221 37.0343 13.9738 37.5769 15.7122C37.8618 16.6215 38.2959 16.9691 39.0149 16.9959C39.7475 17.0093 40.1816 16.6883 40.5207 15.7924C40.9413 14.6424 41.3347 13.4924 41.7417 12.329C42.2165 10.9383 42.7048 9.56101 43.139 8.15694C43.3424 7.52845 42.9897 6.99356 42.3657 6.80635C41.7824 6.63252 41.2669 6.89996 41.0227 7.51508C40.9141 7.80926 40.8327 8.10345 40.7378 8.41101C40.2358 10.2029 39.6932 11.9947 39.1641 13.7732ZM20.4297 12.5029C21.8948 12.5029 23.2649 12.5162 24.6486 12.5029C25.2998 12.4895 25.951 12.4494 26.6021 12.3558C27.1448 12.2755 27.4568 11.9011 27.4975 11.3395C27.5924 9.85519 27.0905 8.59822 25.8696 7.71566C24.2145 6.51217 22.3696 6.45868 20.5382 7.23426C18.6797 8.02321 18.0149 9.61449 17.8657 11.4732C17.6486 14.2145 19.0595 16.3273 21.5692 16.8221C22.4781 16.9959 23.4684 16.9825 24.3909 16.8354C25.6254 16.6348 26.7242 16.0598 27.2397 14.8296C27.3618 14.5354 27.2804 14.0005 27.0769 13.7598C26.7514 13.3988 26.263 13.4657 25.8696 13.8133C25.4897 14.1343 25.137 14.4686 24.73 14.7627C23.8347 15.418 22.8579 15.5517 21.8676 15.0703C20.8231 14.5889 20.511 13.6529 20.4297 12.5029ZM9.1157 8.43775C9.075 8.09007 9.075 7.88949 9.0343 7.70228C8.88508 7.15403 8.5188 6.80635 7.93547 6.77961C7.35213 6.76624 6.94516 7.04705 6.8095 7.63542C6.75523 7.88949 6.74167 8.15694 6.74167 8.42438C6.74167 10.6709 6.74167 12.9308 6.74167 15.1773C6.74167 16.3941 7.18934 17.0226 8.03043 17.0093C8.88508 16.9959 9.26492 16.3941 9.27849 15.1372C9.29206 13.7331 9.31919 12.329 9.34632 10.925C9.35989 10.1895 9.6719 9.58775 10.2552 9.1331C11.4762 8.21042 12.9277 8.73194 13.2262 10.2029C13.2804 10.5104 13.2804 10.818 13.2804 11.1389C13.2804 12.5162 13.2533 13.9069 13.294 15.2843C13.3076 15.7122 13.4161 16.1802 13.6331 16.5412C13.8909 16.9825 14.3793 17.0761 14.8948 16.9424C15.5866 16.7552 15.8037 16.2069 15.8037 15.6186C15.8037 13.5459 15.8037 11.4732 15.7087 9.41391C15.6545 8.15693 14.6235 7.15403 13.3618 6.88659C11.6661 6.53891 10.2959 7.03368 9.1157 8.43775Z" fill="white"/>
<path d="M25.0154 11.0721C23.496 11.0721 22.0173 11.0721 20.5386 11.0721C20.4572 9.65462 21.3933 8.53136 22.682 8.49124C24.1064 8.45113 25.0425 9.45403 25.0154 11.0721Z" fill="white"/>
</g>
<defs>
<clipPath id="clip0">
<rect width="49" height="23" fill="white"/>
</clipPath>
</defs>
</svg>
