<svg width="41" height="41" viewBox="0 0 41 41" fill="none" xmlns="http://www.w3.org/2000/svg">
<rect width="41" height="41" rx="8" fill="#534DAA"/>
<path d="M15.7767 21.0753C16.0704 20.6374 16.3641 20.1873 16.6718 19.7616C17.3012 18.898 17.7348 17.9128 18.9236 17.4627C19.0634 17.4141 19.1753 17.2194 19.1893 17.0735C19.4271 15.3341 20.4341 13.838 21.2313 12.2811C21.7208 11.3201 21.2872 10.4808 20.1963 10.1524C19.7208 10.0065 19.469 10.1159 19.2872 10.5052C18.3501 12.4148 17.3991 14.3124 16.462 16.222C16.3781 16.3923 16.2802 16.5748 16.1823 16.7451C16.1264 16.7207 16.0564 16.6964 16.0005 16.6842C16.5599 15.4436 17.2592 14.2272 17.6369 12.9379C17.9306 11.977 17.8746 10.9187 17.8606 9.90916C17.8467 9.44695 16.49 8.83877 16.0005 9.02123C15.8327 9.08204 15.7068 9.3618 15.6928 9.54426C15.5669 11.8675 15.469 14.2029 15.3711 16.5383C15.3571 16.8059 15.3432 17.0856 15.1753 17.3532C15.1054 16.1855 15.0355 15.0057 14.9795 13.838C14.9376 12.9744 14.49 12.4513 13.6928 12.3297C13.1893 12.2567 12.9515 12.3662 13.0215 12.8649C13.2872 14.8232 13.497 16.7937 13.8047 18.752C14.3362 22.0605 14.9236 25.369 15.483 28.6775C15.497 28.7383 15.511 28.7991 15.511 28.8599C15.511 30.4534 15.9026 30.2466 17.3432 30.2466C19.0355 30.2466 20.7278 30.2223 22.4201 30.2587C23.0774 30.2709 23.3991 30.0763 23.7907 29.5897C25.1194 27.9355 26.4481 26.2813 27.9865 24.773C29.0495 23.7269 29.3432 22.7903 28.546 21.574C28.2662 21.1483 28.0984 20.6374 27.9446 20.163C27.7907 19.6765 27.4411 19.6278 26.9935 19.7738C26.3921 19.9684 26.0145 20.3455 25.9865 20.8928C25.9585 21.3307 26.0145 21.7808 26.0984 22.2065C26.1823 22.6079 26.1543 22.8998 25.6369 23.0701C24.7977 23.362 23.9865 23.7026 23.1613 24.0067C22.6718 24.1891 22.2662 24.0675 21.7907 23.8729C20.0425 23.2039 19.8746 21.9146 19.8886 20.5279C19.8886 20.3941 20.0285 20.236 20.1404 20.1265C20.3222 19.9441 20.546 19.7859 20.7418 19.6278C21.1613 19.2994 21.455 18.7764 22.2383 19.0196C22.7697 19.1778 23.3152 19.2143 23.7627 19.6278C24.6718 20.4549 25.3991 20.4549 26.3222 19.8224C26.6159 19.6157 26.6858 19.4575 26.4341 19.1778C25.8886 18.5818 25.3711 17.9493 24.8257 17.3532C24.6998 17.2073 24.462 17.0978 24.2662 17.0492C23.3152 16.8059 22.2942 16.3315 21.3991 16.441C20.504 16.5626 19.7487 17.3168 18.8956 17.7425C18.1404 18.1195 17.7907 18.752 17.3711 19.3481C16.9236 19.9684 16.49 20.5887 16.0425 21.2091C15.9446 21.1726 15.8606 21.1239 15.7767 21.0753Z" fill="white"/>
</svg>
