<svg width="20" height="24" viewBox="0 0 20 24" fill="none" xmlns="http://www.w3.org/2000/svg">
<path d="M19.9594 17.1443C19.9594 17.1536 19.9497 17.1629 19.9497 17.1722C19.969 17.1722 19.9787 17.1722 19.998 17.1815C19.998 17.1722 19.998 17.1536 19.9884 17.1443C19.9787 17.135 19.969 17.1443 19.9594 17.1443Z" fill="#304654"/>
<path d="M19.8244 14.3645C19.8244 16.2146 19.834 18.074 19.8244 19.9242C19.8244 20.1194 19.7567 20.3146 19.7181 20.5099C19.6601 20.5378 19.6022 20.5657 19.5442 20.5843C16.5973 21.3094 13.5925 21.6069 10.5684 21.7092C9.50555 21.7464 8.45242 21.6534 7.39928 21.6069C6.07561 21.5418 4.75194 21.421 3.44759 21.1793C2.37513 20.984 1.31233 20.7888 0.239867 20.5843C0.133587 20.4262 0.114263 20.2403 0.114263 20.0636C0.114263 18.5389 0.172234 17.0049 0.104601 15.4802C0.0369686 14.1786 0.664987 13.2117 1.47658 12.2913C2.15291 11.5196 3.05146 11.1012 3.99832 10.7573C4.03696 10.748 4.07561 10.7387 4.1046 10.7294C4.4331 10.7387 4.77126 10.7294 5.09976 10.7573C5.35097 10.7759 5.42827 10.6736 5.42827 10.4412C5.40894 9.92052 5.40894 9.39989 5.40894 8.88855C5.50556 8.90714 5.60218 8.90714 5.68913 8.93504C7.8244 9.74388 10.0273 9.79036 12.2688 9.372C13.0225 9.23254 13.7568 9.0559 14.5007 8.88855C14.5007 9.0559 14.5007 9.23254 14.5007 9.39989C14.5104 9.82755 14.3558 10.3854 14.578 10.655C14.8099 10.9339 15.4186 10.7108 15.863 10.748C15.892 10.748 15.9307 10.7573 15.9597 10.7573C16.0466 10.7944 16.1336 10.8409 16.2205 10.8688C17.1481 11.2035 17.95 11.6963 18.5877 12.4493C19.0901 13.0536 19.3799 13.7509 19.8244 14.3645ZM12.8002 13.3511C12.7519 13.314 12.7036 13.2768 12.6456 13.2489C8.42343 11.4359 3.45725 14.3273 3.22537 18.7713C3.15774 20.0264 3.01281 19.7289 4.22054 19.7661C4.26885 19.7661 4.31716 19.7568 4.36547 19.7475C8.01763 19.7568 11.6698 19.7568 15.3316 19.7568C15.7761 19.7568 16.3654 19.9521 16.6263 19.6731C16.9065 19.3663 16.7133 18.8085 16.636 18.3716C16.2592 16.0752 15.0418 14.3459 12.8002 13.3511Z" fill="#F9B419"/>
<path d="M0.87744 7.6056C0.423333 7.11286 0.181787 6.53645 0.104492 5.88566C0.230096 4.60267 1.02237 3.79383 2.1528 3.23601C2.99338 2.82695 3.92092 2.72468 4.8388 2.61312L4.85812 2.57593C5.27358 2.58522 5.68904 2.59452 6.1045 2.61312C6.26875 2.69679 6.45233 2.6596 6.62624 2.6596C9.40885 2.6596 12.1915 2.6596 14.9644 2.6596C15.3702 2.6596 15.7567 2.67819 16.1528 2.75257C17.2446 2.94781 18.2301 3.33828 19.0127 4.14712C19.3992 4.55619 19.5635 5.06752 19.834 5.54167C19.805 6.30402 19.5055 6.97341 19.0514 7.58701C19.0127 7.6149 18.9837 7.64279 18.9451 7.67068C18.7808 7.67998 18.6166 7.66138 18.462 7.69857C16.4523 8.15412 14.404 8.2285 12.3654 8.30288C10.3364 8.39585 8.29774 8.2378 6.26875 8.12623C5.76634 8.09834 5.2446 8.07045 4.74218 8.01467C3.44749 7.85662 2.16247 7.73576 0.87744 7.6056Z" fill="#F9B419"/>
<path d="M0.22998 20.5935C1.30244 20.7888 2.36525 20.9933 3.43771 21.1886C4.74206 21.421 6.06573 21.5511 7.3894 21.6162C8.44254 21.672 9.50535 21.7557 10.5585 21.7185C13.5923 21.6069 16.5971 21.3187 19.5343 20.5935C19.5923 20.5749 19.6503 20.5471 19.7083 20.5192C19.3701 21.9509 17.9595 23.0758 16.4329 23.1223C15.7952 23.1409 15.1479 23.1316 14.5102 23.1409C13.8049 23.1409 13.0899 23.1409 12.3846 23.1409C11.6116 23.1409 10.8387 23.1409 10.0657 23.1409C9.07056 23.1409 8.06573 23.1409 7.07056 23.1409C5.33143 23.0201 3.55365 23.3919 1.86283 22.7412V22.7505C1.87249 22.6668 1.80486 22.6575 1.75655 22.6296C1.04158 22.0904 0.394232 21.5047 0.22998 20.5935Z" fill="#AE802D"/>
<path d="M18.9547 7.68007C18.3943 8.4517 17.6117 8.80497 16.6359 8.83286C15.9209 8.85146 15.2059 8.7399 14.5006 8.89794C13.7567 9.05599 13.0127 9.24192 12.2687 9.38137C10.0368 9.79043 7.82429 9.74395 5.67937 8.93513C5.59241 8.89794 5.49579 8.89794 5.39918 8.88865C5.23492 8.80497 5.05135 8.84216 4.87744 8.84216C3.96923 8.83286 3.06101 8.89794 2.16246 8.70271V8.71201C2.16246 8.62834 2.10449 8.62834 2.03686 8.61904C1.6214 8.32154 1.11899 8.10772 0.877441 7.61499C2.16246 7.74514 3.45715 7.866 4.73251 8.02405C5.24459 8.08912 5.75666 8.10772 6.25908 8.13561C8.28806 8.24717 10.3267 8.40521 12.3653 8.33084C14.4137 8.24717 16.462 8.18209 18.462 7.72655C18.6262 7.67077 18.7905 7.68936 18.9547 7.68007Z" fill="#AE802D"/>
<path d="M10.0658 0.809692C10.7325 1.27456 11.4957 0.92126 12.2011 1.06072C12.6165 1.14439 13.0223 1.17229 13.3315 1.4791C13.4764 1.61855 13.6793 1.60926 13.8629 1.65574C14.4523 1.8138 15.0996 1.90677 15.3508 2.58547C13.9402 2.59477 12.5199 2.60406 11.1093 2.60406C9.45709 2.60406 7.80491 2.58547 6.14307 2.58547C6.69379 1.97185 7.36046 1.60926 8.23003 1.64645C8.31699 1.64645 8.44259 1.63715 8.50056 1.58137C8.94501 1.16299 9.53438 1.05142 10.0658 0.809692Z" fill="#00A1B0"/>
<path d="M6.1528 2.57593C7.80497 2.58522 9.45715 2.59452 11.119 2.59452C12.5296 2.59452 13.9499 2.58522 15.3605 2.57593C16.6842 2.58522 18.0079 2.58522 19.3315 2.60382C19.4958 2.60382 19.6794 2.53874 19.834 2.6689C19.9016 3.45915 19.9209 4.25869 19.9016 5.04894C19.9016 5.21629 19.9306 5.38364 19.834 5.54169C19.5731 5.07683 19.4088 4.5562 19.0127 4.14713C18.2301 3.33829 17.2542 2.94781 16.1528 2.75257C15.7567 2.6782 15.3605 2.6596 14.9644 2.6596C12.1818 2.6689 9.39918 2.6596 6.62623 2.6596C6.45232 2.6596 6.26874 2.69679 6.10449 2.61312C6.12382 2.60382 6.13348 2.58522 6.1528 2.57593Z" fill="#F4C646"/>
<path d="M4.83881 2.61306C3.92093 2.71532 2.99339 2.81759 2.15281 3.23595C1.02237 3.79376 0.220439 4.60259 0.104497 5.88556C-0.0694162 4.89079 0.0175405 3.88673 0.0561879 2.88267C0.0658498 2.63165 0.230101 2.60376 0.452324 2.60376C1.91126 2.61306 3.37987 2.61306 4.83881 2.61306Z" fill="#F4C646"/>
<path d="M3.979 10.7573C3.03215 11.1013 2.1336 11.5196 1.45727 12.2913C0.645677 13.221 0.0273209 14.1786 0.0852918 15.4802C0.162586 17.0049 0.104615 18.5389 0.0949536 20.0636C0.00799724 19.9148 0.0466445 19.7568 0.0466445 19.608C0.0466445 17.8416 0.0466445 16.0845 0.0466445 14.318C0.0563063 12.1704 1.74712 10.6364 3.979 10.7573Z" fill="#F4C646"/>
<path d="M6.15308 2.57591C6.13375 2.58521 6.12409 2.6038 6.10477 2.6131C5.68931 2.6038 5.27386 2.5945 4.8584 2.57591C5.38013 1.85071 6.07578 1.42303 7.02264 1.44163C7.22554 1.44163 7.38012 1.38584 7.54437 1.26498C8.29799 0.688536 9.14823 0.549075 10.0661 0.8187C9.5347 1.05113 8.94533 1.1627 8.51055 1.57179C8.45258 1.62757 8.32698 1.63687 8.24002 1.63687C7.37046 1.59038 6.7038 1.95298 6.15308 2.57591Z" fill="#7CCCD6"/>
<path d="M2.03711 8.60034C2.09508 8.60966 2.16271 8.60966 2.16271 8.69351C2.1144 8.66556 2.07576 8.63761 2.03711 8.60034Z" fill="#162A38"/>
<path d="M1.75684 22.6202C1.80514 22.6482 1.87278 22.6575 1.86311 22.7414C1.83413 22.6948 1.79548 22.6575 1.75684 22.6202Z" fill="#162A38"/>
<path d="M19.6407 12.9886C19.7083 13.2954 19.7759 13.6115 19.8436 13.9183C19.8339 14.067 19.8339 14.2251 19.8242 14.3738C19.3798 13.7602 19.0899 13.0537 18.5875 12.468C17.9402 11.7149 17.1479 11.2222 16.2203 10.8875C16.1334 10.8596 16.0464 10.8132 15.9595 10.776C16.6745 10.6923 17.3315 10.8875 17.9692 11.1478C18.7228 11.5848 19.2832 12.1984 19.6407 12.9886Z" fill="#F4C646"/>
<path d="M19.9594 17.1443C19.969 17.1443 19.9884 17.1443 19.9884 17.1443C19.998 17.1536 19.998 17.1629 19.998 17.1816C19.9787 17.1816 19.969 17.1816 19.9497 17.1722C19.9497 17.1629 19.9497 17.1536 19.9594 17.1443Z" fill="#263C49"/>
<path d="M12.8 13.3511C15.0415 14.3459 16.2589 16.0751 16.6357 18.3808C16.7034 18.8178 16.8966 19.3756 16.6261 19.6824C16.3652 19.9706 15.7758 19.7661 15.3314 19.7661C11.6792 19.7661 8.02706 19.7568 4.36523 19.7568C4.36523 19.3384 4.3749 18.9293 4.47151 18.5203C5.07055 15.9078 6.69373 14.225 9.34106 13.4254C10.4908 13.0814 11.6406 13.1558 12.8 13.3511ZM13.3217 15.4057C13.2638 15.1454 13.0512 14.9781 12.8096 14.8479C12.6067 14.7363 12.3845 14.7921 12.2396 14.9502C11.3894 15.9357 10.5391 16.9212 9.70821 17.916C9.457 18.2135 9.59227 18.4645 9.90144 18.6411C10.2203 18.8271 10.5005 18.8736 10.7807 18.5389C11.5633 17.5999 12.3749 16.6794 13.1671 15.759C13.2541 15.6753 13.3121 15.5638 13.3217 15.4057Z" fill="white"/>
<path d="M12.8003 13.3511C11.6409 13.1558 10.4911 13.0815 9.34136 13.4255C6.69402 14.2157 5.07083 15.9078 4.4718 18.5203C4.37518 18.9293 4.37518 19.3477 4.36552 19.7568C4.31721 19.7661 4.2689 19.7754 4.22059 19.7754C3.0032 19.7382 3.15779 20.0357 3.22542 18.7806C3.45731 14.3273 8.42348 11.4359 12.6457 13.2581C12.7037 13.2767 12.752 13.3139 12.8003 13.3511Z" fill="#B5B3B1"/>
<path d="M19.0516 7.58704C19.0129 7.61499 18.984 7.64294 18.9453 7.67089C18.984 7.65225 19.0226 7.61499 19.0516 7.58704Z" fill="#AE802D"/>
<path d="M13.3217 15.4058C13.3217 15.5638 13.2541 15.6661 13.1768 15.7684C12.3845 16.6981 11.5729 17.6092 10.7903 18.5482C10.5101 18.8829 10.2299 18.8364 9.91111 18.6504C9.60193 18.4738 9.46667 18.2135 9.71787 17.9253C10.5488 16.9305 11.399 15.945 12.2493 14.9595C12.3942 14.7922 12.6164 14.7364 12.8193 14.8573C13.0415 14.9874 13.2637 15.1455 13.3217 15.4058Z" fill="#4AA6B2"/>
</svg>
