<svg width="18" height="17" viewBox="0 0 18 17" fill="none" xmlns="http://www.w3.org/2000/svg">
<g clip-path="url(#clip0)">
<path d="M8 6.00001C8 5.60001 8.3 5.30001 8.7 5.30001H9.7L6 1.60001L2.3 5.30001H3.3C3.7 5.30001 4 5.60001 4 6.00001V10.7C4 11.1 3.7 11.4 3.3 11.4C2.9 11.4 2.6 11.1 2.6 10.7V6.70001H0.7C0.3 6.70001 0 6.30001 0 6.00001C0 5.80001 0.1 5.60001 0.2 5.50001L5.5 0.200006C5.8 -0.0999939 6.2 -0.0999939 6.4 0.200006L11.7 5.50001C12 5.80001 12 6.20001 11.7 6.40001C11.6 6.50001 11.4 6.60001 11.2 6.60001H9.4V10.7C9.4 11.1 9.1 11.4 8.7 11.4H7.7L11.4 15.1L15.1 11.4H14.1C13.7 11.4 13.4 11.1 13.4 10.7V6.00001C13.4 5.60001 13.7 5.30001 14.1 5.30001C14.5 5.30001 14.8 5.60001 14.8 6.00001V10.1H16.7C16.9 10.1 17 10.2 17.2 10.3C17.5 10.6 17.5 11 17.2 11.2L11.9 16.5C11.6 16.8 11.2 16.8 11 16.5L5.7 11.2C5.6 11.1 5.5 10.9 5.5 10.7C5.5 10.3 5.8 10 6.2 10H8V6.00001Z" fill="#393939"/>
</g>
<defs>
<clipPath id="clip0">
<rect width="17.4" height="16.7" fill="white"/>
</clipPath>
</defs>
</svg>
