<svg width="18" height="18" viewBox="0 0 18 18" fill="none" xmlns="http://www.w3.org/2000/svg">
<path d="M9.9 5.39998C10.6161 5.39998 11.3028 5.68444 11.8092 6.19079C12.3155 6.69714 12.6 7.38389 12.6 8.09998C12.6 8.33867 12.6948 8.56759 12.8636 8.73637C13.0324 8.90515 13.2613 8.99998 13.5 8.99998C13.7387 8.99998 13.9676 8.90515 14.1364 8.73637C14.3052 8.56759 14.4 8.33867 14.4 8.09998C14.4 6.9065 13.9259 5.76191 13.082 4.918C12.2381 4.07408 11.0935 3.59998 9.9 3.59998C9.66131 3.59998 9.43239 3.6948 9.2636 3.86358C9.09482 4.03236 9 4.26128 9 4.49998C9 4.73867 9.09482 4.96759 9.2636 5.13637C9.43239 5.30515 9.66131 5.39998 9.9 5.39998Z" fill="#B3B3B3"/>
<path d="M9.9 1.8C11.5709 1.8 13.1733 2.46375 14.3548 3.64523C15.5363 4.82671 16.2 6.42914 16.2 8.1C16.2 8.33869 16.2948 8.56761 16.4636 8.7364C16.6324 8.90518 16.8613 9 17.1 9C17.3387 9 17.5676 8.90518 17.7364 8.7364C17.9052 8.56761 18 8.33869 18 8.1C18 5.95175 17.1466 3.89148 15.6276 2.37243C14.1085 0.85339 12.0483 0 9.9 0C9.66131 0 9.43239 0.0948211 9.2636 0.263604C9.09482 0.432387 9 0.661305 9 0.9C9 1.13869 9.09482 1.36761 9.2636 1.5364C9.43239 1.70518 9.66131 1.8 9.9 1.8ZM17.775 12.519C17.7255 12.3745 17.64 12.245 17.5267 12.1427C17.4133 12.0403 17.2758 11.9685 17.127 11.934L11.727 10.701C11.5804 10.6678 11.4279 10.6718 11.2832 10.7126C11.1386 10.7535 11.0065 10.83 10.899 10.935C10.773 11.052 10.764 11.061 10.179 12.177C8.23788 11.2825 6.6825 9.72077 5.796 7.776C6.939 7.2 6.948 7.2 7.065 7.065C7.17004 6.9575 7.24648 6.82541 7.28736 6.68077C7.32823 6.53614 7.33223 6.38358 7.299 6.237L6.066 0.9C6.03148 0.751226 5.95967 0.613684 5.85733 0.50032C5.75499 0.386957 5.62548 0.301502 5.481 0.252C5.27082 0.17693 5.05378 0.12267 4.833 0.0899999C4.60553 0.0372557 4.3734 0.00710941 4.14 0C3.042 0 1.98898 0.436177 1.21258 1.21258C0.436177 1.98898 0 3.042 0 4.14C0.00476273 7.81444 1.46654 11.337 4.06476 13.9352C6.66298 16.5335 10.1856 17.9952 13.86 18C14.4037 18 14.942 17.8929 15.4443 17.6849C15.9466 17.4768 16.403 17.1719 16.7874 16.7874C17.1719 16.403 17.4768 15.9466 17.6849 15.4443C17.8929 14.942 18 14.4037 18 13.86C18.0003 13.6309 17.9822 13.4022 17.946 13.176C17.9082 12.9525 17.851 12.7326 17.775 12.519ZM13.86 16.2C10.6622 16.1976 7.5961 14.9262 5.33493 12.6651C3.07375 10.4039 1.80238 7.33778 1.8 4.14C1.80237 3.52012 2.04967 2.92631 2.48799 2.48799C2.92631 2.04967 3.52012 1.80237 4.14 1.8H4.437L5.4 5.976L4.914 6.228C4.14 6.633 3.528 6.957 3.852 7.659C4.3796 9.15262 5.2333 10.51 6.35106 11.6324C7.46883 12.7548 8.82259 13.6142 10.314 14.148C11.07 14.454 11.367 13.887 11.772 13.104L12.033 12.609L16.2 13.563V13.86C16.1976 14.4799 15.9503 15.0737 15.512 15.512C15.0737 15.9503 14.4799 16.1976 13.86 16.2Z" fill="#B3B3B3"/>
</svg>
