<svg width="17" height="16" viewBox="0 0 17 16" fill="none" xmlns="http://www.w3.org/2000/svg">
<path d="M13.2712 15.8388L11.8181 14.3857L12.581 13.6228L14.0341 15.0759C14.2521 15.2939 14.2521 15.6208 14.0341 15.8388C13.8525 16.0204 13.4892 16.0204 13.2712 15.8388Z" fill="#37474F"/>
<path d="M2.73641 15.8388L4.18951 14.3857L3.42663 13.6228L1.97353 15.0759C1.75557 15.2939 1.75557 15.6208 1.97353 15.8388C2.15517 16.0204 2.51844 16.0204 2.73641 15.8388Z" fill="#37474F"/>
<path d="M8.00402 15.6208C12.0166 15.6208 15.2695 12.3679 15.2695 8.35532C15.2695 4.34269 12.0166 1.08982 8.00402 1.08982C3.9914 1.08982 0.738525 4.34269 0.738525 8.35532C0.738525 12.3679 3.9914 15.6208 8.00402 15.6208Z" fill="#C62828"/>
<path d="M8.00404 14.1677C11.2141 14.1677 13.8164 11.5654 13.8164 8.35532C13.8164 5.14522 11.2141 2.54292 8.00404 2.54292C4.79395 2.54292 2.19165 5.14522 2.19165 8.35532C2.19165 11.5654 4.79395 14.1677 8.00404 14.1677Z" fill="#EEEEEE"/>
<path d="M4.76933 11.7992L4.56372 11.5936L7.90258 8.2547L8.10819 8.45995L4.76933 11.7992Z" fill="#E53935"/>
<path d="M7.64062 3.63275H8.36717V8.35532H7.64062V3.63275Z" fill="black"/>
<path d="M10.6503 10.4093L10.06 10.9999L7.69727 8.63721L8.28795 8.04616L10.6503 10.4093Z" fill="black"/>
<path d="M8.00389 9.08186C8.40515 9.08186 8.73044 8.75658 8.73044 8.35531C8.73044 7.95405 8.40515 7.62877 8.00389 7.62877C7.60263 7.62877 7.27734 7.95405 7.27734 8.35531C7.27734 8.75658 7.60263 9.08186 8.00389 9.08186Z" fill="black"/>
<path d="M8.0039 8.71859C8.20453 8.71859 8.36717 8.55595 8.36717 8.35532C8.36717 8.15468 8.20453 7.99204 8.0039 7.99204C7.80327 7.99204 7.64062 8.15468 7.64062 8.35532C7.64062 8.55595 7.80327 8.71859 8.0039 8.71859Z" fill="#C62828"/>
<path d="M7.27734 0H8.73044V1.08982H7.27734V0Z" fill="#37474F"/>
<path d="M15.4147 5.52178C16.3229 4.25032 16.1776 2.47028 15.0514 1.34412C13.9253 0.217974 12.1452 0.0726638 10.8738 0.98085L15.4147 5.52178Z" fill="#37474F"/>
<path d="M0.593142 5.52178C-0.315045 4.25032 -0.169735 2.47028 0.956416 1.34412C2.08257 0.217974 3.86261 0.0726638 5.13407 0.98085L0.593142 5.52178Z" fill="#37474F"/>
</svg>
