<svg width="20" height="20" viewBox="0 0 20 20" fill="none" xmlns="http://www.w3.org/2000/svg">
<path d="M3.35731 19.1786C3.35731 19.5508 3.06223 19.9231 2.64911 19.9231C2.29502 19.9231 1.94092 19.6129 1.94092 19.1786C1.94092 17.8757 2.47207 16.883 3.18026 16.1385C4.18354 15.1458 5.54092 14.7115 6.36715 14.6494C6.5442 14.6494 6.66223 14.5874 6.78026 14.4633C6.83928 14.4013 6.8983 14.3392 6.8983 14.2151C6.24912 13.6567 5.95403 12.8502 5.71797 12.2298C5.65895 11.8575 5.54092 11.6093 5.4819 11.5473C5.18682 11.2991 4.7737 10.7407 4.59666 10.1203C4.36059 9.49987 4.30157 8.87944 4.65567 8.25902C4.41961 7.70063 4.36059 7.14224 4.36059 6.52182C4.36059 5.71526 4.47862 4.9087 4.71469 4.22623V4.10214C5.06879 3.04741 5.59993 2.3029 6.36715 1.80656C7.13436 1.31021 8.07862 1 9.14092 1C9.55403 1 10.0852 1 10.6163 1.06204C11.2065 1.18613 11.7967 1.4343 12.1508 1.93064C12.859 1.8686 13.5081 2.3029 13.9803 2.92333C14.5704 3.66784 15.0426 4.72257 15.1016 5.40504C15.1606 5.90139 15.1606 6.39773 15.1016 6.89407C15.0426 7.32837 14.9835 7.76267 14.8655 8.19697C15.2196 8.8174 15.1606 9.49987 14.9835 10.1203C14.7475 10.7407 14.3934 11.2371 14.0983 11.5473C14.0393 11.6093 13.9212 11.9195 13.8032 12.2298C13.5671 12.8502 13.2721 13.6567 12.6229 14.2151C12.6229 14.3392 12.6819 14.4013 12.7409 14.4633C12.859 14.5874 12.977 14.6494 13.154 14.6494C13.9803 14.7115 15.3376 15.1458 16.3409 16.1385C17.0491 16.883 17.5803 17.8757 17.5803 19.1786C17.5803 19.5508 17.2852 19.9231 16.8721 19.9231C16.518 19.9231 16.1639 19.6129 16.1639 19.1786C16.1639 18.31 15.8098 17.6895 15.3376 17.1932C14.6294 16.4487 13.5671 16.1385 12.977 16.0764C12.5049 16.0144 12.0327 15.8282 11.6786 15.456C11.3245 15.0837 10.7934 13.6567 11.4426 13.1604C11.9147 12.8502 12.2098 12.2298 12.3868 11.6714C12.5639 11.175 12.7409 10.7407 13.036 10.4305C13.2131 10.2444 13.4491 9.93417 13.5671 9.56192C13.6852 9.31375 13.6852 9.00353 13.5081 8.8174C13.3311 8.63127 13.2721 8.19697 13.3311 7.9488C13.4491 7.5145 13.5671 7.0802 13.6262 6.6459C13.6852 6.27364 13.6852 5.90139 13.6262 5.52913C13.5671 5.09483 13.2721 4.35032 12.7999 3.79193C12.5639 3.48171 12.3278 3.29559 12.0917 3.35763C11.8557 3.41967 11.6196 3.35763 11.3835 3.23354C11.2065 3.10946 11.0294 2.98537 10.9114 2.79924L11.0885 2.86129C10.9704 2.67516 10.7344 2.61311 10.4393 2.55107C10.0262 2.48903 9.55403 2.48903 9.19993 2.48903C8.37371 2.48903 7.66551 2.67516 7.13436 3.04741C6.60321 3.35763 6.24911 3.91602 6.01305 4.59849V4.66053C5.77698 5.21892 5.71797 5.90139 5.71797 6.45977C5.71797 7.01816 5.836 7.5145 5.95403 8.01084C6.01305 8.13493 6.07207 8.32106 6.01305 8.50719C5.95403 9.00353 5.59993 9.00353 5.77698 9.62396C5.89502 9.93417 6.13108 10.3064 6.30813 10.4305C6.60321 10.7407 6.78026 11.113 6.95731 11.6093C7.19338 12.1677 7.42944 12.8502 7.90157 13.1604C8.13764 13.2845 8.25567 13.5327 8.25567 13.7808C8.25567 14.4013 8.13764 14.9596 7.72452 15.3939C7.42944 15.7662 6.95731 15.9523 6.42616 16.0144C5.836 16.0764 4.83272 16.3866 4.06551 17.1311C3.71141 17.6895 3.35731 18.31 3.35731 19.1786Z" fill="#FFFCF2"/>
</svg>
