<svg width="234" height="56" viewBox="0 0 234 56" fill="none" xmlns="http://www.w3.org/2000/svg">
<path fill-rule="evenodd" clip-rule="evenodd" d="M127.109 16.24V29.5955C127.109 29.6319 127.109 29.6925 127.109 29.7288C127.266 29.6925 127.448 29.6319 127.666 29.5107V17.5731C127.666 16.6884 127.605 15.9006 127.496 15.2219C127.375 14.4948 127.181 13.8888 126.915 13.3798C126.866 13.2828 126.818 13.1859 126.769 13.101C126.83 13.3313 126.891 13.5979 126.927 13.8646C127.048 14.5554 127.109 15.3431 127.109 16.24ZM80.5393 29.438C80.5393 29.5349 80.5393 29.5955 80.5514 29.6682C80.6847 29.6319 80.8785 29.547 81.0966 29.4137H81.1087V16.3248C81.1087 15.5613 81.036 14.8947 80.9028 14.3251C80.7695 13.8282 80.5999 13.404 80.3576 13.0526C80.4787 13.5979 80.5514 14.2524 80.5514 14.9795V29.438H80.5393ZM67.9399 16.24V16.4339C68.0853 16.2521 68.2185 16.0824 68.3639 15.9249L68.4124 15.8643C68.3882 15.634 68.3639 15.4158 68.3276 15.2219C68.1943 14.4948 68.0005 13.8646 67.7461 13.3798C67.6976 13.2828 67.6491 13.1859 67.6007 13.101C67.6613 13.3313 67.7218 13.5979 67.7582 13.8646C67.8914 14.5554 67.9399 15.3431 67.9399 16.24ZM94.0473 16.8702C94.3744 16.6399 94.7621 16.5187 95.1861 16.5187C95.5738 16.5187 95.9009 16.5793 96.1917 16.7005C96.4703 16.8217 96.7126 16.9792 96.9185 17.2095C96.9307 17.2338 96.9549 17.2459 96.967 17.2701C96.9428 17.0762 96.8943 16.8944 96.8459 16.7369L96.8337 16.7005C96.7247 16.3612 96.5672 16.0945 96.3492 15.8521C96.1432 15.634 95.9009 15.4643 95.6223 15.3431C95.3315 15.2219 94.9923 15.1613 94.6167 15.1613C94.1927 15.1613 93.805 15.2947 93.4779 15.5128C93.1145 15.7915 92.7753 16.1794 92.4845 16.749C92.1574 17.3792 91.9272 18.0458 91.7576 18.8093C91.6001 19.5728 91.5153 20.3969 91.5153 21.3059C91.5153 21.6816 91.5275 22.0573 91.5517 22.3845V22.4087C91.5759 22.7844 91.6123 23.1116 91.6728 23.4631C91.6971 23.657 91.7334 23.8509 91.7819 24.057L92.1211 23.7419C92.0968 23.4025 92.0847 23.0389 92.0847 22.6632C92.0847 21.7543 92.1695 20.9302 92.3391 20.1666C92.4966 19.4031 92.751 18.7366 93.0539 18.1063C93.3447 17.5367 93.6718 17.1247 94.0473 16.8702ZM204.026 16.5551H206.291V15.2219H203.468V15.1977C203.371 15.1977 203.275 15.1977 203.19 15.1613C202.996 15.537 203.056 15.9855 203.359 16.2763C203.529 16.4581 203.783 16.5551 204.026 16.5551ZM219.399 3.95092C218.442 4.04787 217.425 4.08423 216.334 4.08423C215.401 4.08423 214.687 4.10847 214.19 4.10847C213.718 4.13271 213.39 4.14483 213.172 4.18118V10.4469C213.366 10.4469 213.56 10.4469 213.73 10.4469V5.53855C213.948 5.5022 214.287 5.47796 214.747 5.46584C215.244 5.4416 215.959 5.4416 216.879 5.4416C217.97 5.4416 219 5.40524 219.945 5.28405C220.889 5.21133 221.738 5.0659 222.501 4.87199C223.337 4.67808 224.1 4.30238 224.778 3.8176C225.457 3.30859 226.038 2.65414 226.559 1.8785C226.85 1.44221 226.729 0.860476 226.281 0.557491C226.208 0.496894 226.123 0.460536 226.038 0.436298C226.026 0.472656 226.014 0.496894 225.99 0.533252C225.481 1.29677 224.887 1.95122 224.209 2.46023C223.531 2.96925 222.767 3.32071 221.931 3.53886C221.192 3.72065 220.344 3.85396 219.399 3.95092ZM227.843 14.1797V28.529C227.843 28.5896 227.843 28.6502 227.843 28.6866C227.977 28.6623 228.158 28.626 228.352 28.5654L228.413 28.5411V15.537C228.546 15.5128 228.679 15.5007 228.813 15.4764C229.224 15.4158 229.673 15.3189 230.157 15.1977C230.739 15.0401 231.248 14.7614 231.696 14.3736C231.72 14.3493 231.732 14.3372 231.756 14.313C232.144 13.9373 232.483 13.4646 232.762 12.895C232.992 12.4224 232.786 11.8527 232.314 11.6225C232.265 11.5982 232.229 11.5861 232.18 11.5619C231.902 12.1315 231.575 12.5799 231.187 12.9556C231.175 12.9799 231.151 12.992 231.127 13.0162C230.69 13.4283 230.169 13.6828 229.6 13.8403C229.128 13.9615 228.679 14.0585 228.255 14.1191C228.098 14.1433 227.965 14.1554 227.843 14.1797ZM227.843 28.7472C227.856 28.7714 227.856 28.7714 227.843 28.7472V28.7472ZM228.401 4.61748C228.401 4.22966 228.171 3.89032 227.843 3.75701V10.1803H228.401V4.61748ZM155.336 18.3609C155.312 18.3609 155.276 18.3851 155.239 18.3851C155.094 18.4215 154.936 18.4457 154.743 18.4457H154.331C154.088 18.4457 153.882 18.3487 153.713 18.2154C152.901 17.6095 152.211 16.955 151.665 16.2521C151.387 15.8764 151.144 15.5007 150.939 15.1371L150.963 15.1977L150.975 15.2341C151.241 16.0582 151.665 16.8581 152.235 17.5852C152.792 18.3124 153.471 18.9547 154.294 19.5728C154.452 19.7061 154.67 19.7909 154.912 19.7909H155.324C155.518 19.7909 155.688 19.7909 155.821 19.7546C155.845 19.7546 155.881 19.7303 155.906 19.7303C156.063 19.6697 156.208 19.5728 156.33 19.4758V19.4516C156.536 19.2577 156.645 19.0153 156.645 18.7244C156.645 18.6881 156.632 18.6275 156.632 18.5911C156.56 17.4761 156.584 16.4096 156.705 15.3916C156.838 14.3736 157.069 13.3919 157.42 12.4466H157.408H157.42C157.808 11.3437 158.05 10.2893 158.135 9.27132C158.232 8.22906 158.171 7.21103 157.953 6.22936C157.941 6.193 157.929 6.15664 157.929 6.1324C157.771 5.69611 157.602 5.28405 157.408 4.93259C157.614 5.89002 157.674 6.89592 157.59 7.91395C157.505 8.93198 157.262 9.99848 156.863 11.0892C156.511 12.0345 156.293 13.0162 156.16 14.0342C156.027 15.0523 156.003 16.1188 156.087 17.2338C156.099 17.2943 156.099 17.3307 156.099 17.3671C156.099 17.6579 155.99 17.9003 155.784 18.0942L155.772 18.1185C155.639 18.2275 155.494 18.3003 155.336 18.3609ZM168.638 16.4218L169.002 15.9491L169.123 15.7915C169.123 15.6582 169.099 15.5128 169.099 15.3795C169.026 14.5311 168.905 13.8646 168.747 13.3556C168.638 13.0041 168.493 12.689 168.299 12.4102C168.396 12.8587 168.469 13.3919 168.529 14.0221C168.602 14.7129 168.626 15.5007 168.638 16.4218ZM144.069 31.7164L144.106 31.8376C144.287 32.2739 144.457 32.686 144.639 33.0738H144.627C144.033 31.1832 143.718 29.1835 143.658 27.0262C143.609 24.869 143.827 22.5542 144.324 20.0576C144.336 20.0212 144.336 19.997 144.336 19.9606C144.409 19.0395 144.699 17.9246 145.232 16.6278C145.766 15.3068 146.541 13.804 147.546 12.0951C148.188 11.2953 148.831 10.6408 149.436 10.1076C149.557 9.98637 149.691 9.88941 149.824 9.79245C149.8 9.29556 149.776 8.77443 149.776 8.20482C149.776 8.16846 149.775 8.1321 149.788 8.08362C149.485 8.26541 149.194 8.49568 148.879 8.75019H148.891C148.273 9.28344 147.643 9.95001 146.989 10.7378C145.996 12.4466 145.22 13.9615 144.675 15.2947C144.154 16.5914 143.851 17.6943 143.779 18.6154C143.779 18.6517 143.767 18.6881 143.767 18.7366C143.27 21.2089 143.052 23.5237 143.112 25.6931C143.149 27.8261 143.476 29.8258 144.069 31.7164ZM186.75 18.7366C186.386 19.6819 186.193 20.6999 186.193 21.7785C186.193 22.5299 186.253 23.1722 186.386 23.7055C186.496 24.1782 186.665 24.5539 186.871 24.8205C186.883 24.8568 186.895 24.8568 186.92 24.8811C186.811 24.3842 186.762 23.8025 186.762 23.1117C186.762 22.0573 186.956 21.0271 187.319 20.0939C187.683 19.1365 188.252 18.2275 189.003 17.3792C189.742 16.5551 190.59 15.9249 191.547 15.537C192.093 15.3068 192.686 15.125 193.316 15.028V13.6101C192.468 13.6707 191.693 13.8888 190.978 14.1797C190.021 14.5917 189.173 15.1977 188.446 16.0218C187.683 16.8702 187.125 17.7912 186.75 18.7366ZM200.803 29.3047L200.864 29.2804V12.5557C200.864 12.1679 200.634 11.8285 200.306 11.671V29.4986H200.331C200.476 29.4622 200.634 29.4016 200.803 29.3168V29.3047ZM136.401 34.419C136.425 34.4554 136.437 34.4796 136.449 34.516C136.413 34.419 136.364 34.3221 136.316 34.2251C136.34 34.2857 136.364 34.3705 136.401 34.419ZM135.734 32.6375C135.734 32.6132 135.722 32.6011 135.722 32.5769L135.674 32.4557C135.686 32.5163 135.698 32.5769 135.722 32.6496V32.6375H135.734ZM161.369 16.3248C161.236 16.3612 161.091 16.4218 160.921 16.5066C160.752 16.5793 160.57 16.7005 160.364 16.8581C160.158 17.0156 159.928 17.2095 159.673 17.4277C159.431 17.6579 159.08 17.767 158.74 17.6458C158.498 18.1185 158.68 18.7002 159.152 18.9426C159.516 19.1244 159.952 19.0638 160.243 18.785C160.485 18.5548 160.715 18.373 160.933 18.2154C161.127 18.0579 161.309 17.9367 161.491 17.864C161.587 17.8276 161.672 17.767 161.757 17.7428V16.3854C161.757 16.3127 161.781 16.2884 161.769 16.2884C161.769 16.2642 161.733 16.2884 161.624 16.2884C161.539 16.2763 161.454 16.3006 161.369 16.3248ZM131.022 29.5592C130.961 29.5228 130.901 29.4986 130.84 29.4864L130.828 29.5107C130.428 30.2136 129.98 30.8317 129.495 31.3771C128.986 31.9224 128.429 32.3951 127.811 32.795C127.218 33.1707 126.624 33.4616 126.079 33.6555C125.485 33.8737 124.916 33.9948 124.383 33.9948C123.789 33.9948 123.256 33.8979 122.759 33.7161C122.251 33.5343 121.79 33.2677 121.403 32.892C121.221 32.7344 121.051 32.5405 120.918 32.3224C120.954 32.5042 121.003 32.6617 121.051 32.8193C121.257 33.3889 121.548 33.8615 121.96 34.2494C122.348 34.6251 122.808 34.8917 123.317 35.0735C123.813 35.2553 124.347 35.328 124.928 35.328C125.461 35.328 126.018 35.231 126.624 35.0129C127.181 34.819 127.763 34.516 128.357 34.1282C128.974 33.7525 129.532 33.2798 130.04 32.7344C130.537 32.1891 130.985 31.571 131.373 30.868C131.64 30.3954 131.482 29.8137 131.022 29.5592ZM159.286 33.7161C159.249 33.6434 159.213 33.5586 159.152 33.4616C159.092 33.3889 159.031 33.3283 158.983 33.2435C159.261 34.2857 159.395 35.2431 159.358 36.1157C159.322 37.3156 158.995 38.3336 158.389 39.1941L158.365 39.2304C157.832 39.9576 157.299 40.5878 156.742 41.0968C156.16 41.4725 155.36 41.8967 154.561 42.1391H154.549C153.216 42.5511 151.593 42.745 149.666 42.745C147.122 42.7814 144.821 42.1027 142.749 40.7211C141.15 39.6667 139.708 38.1639 138.412 36.2612L138.436 36.2975C138.448 36.3339 138.472 36.3702 138.484 36.3945C139.975 38.9032 141.683 40.7938 143.597 42.0664C144.821 42.8662 146.129 43.4358 147.522 43.7752C149.339 44.1872 154.355 44.0903 156.487 42.8541C157.602 42.1875 158.304 41.424 158.91 40.5514L158.946 40.5151C159.54 39.6667 159.867 38.6244 159.916 37.4489C159.952 36.346 159.734 35.0977 159.274 33.7161H159.286ZM120.022 16.8702C120.009 16.8459 120.021 16.8702 119.997 16.8702C119.864 16.8096 119.658 16.7975 119.367 16.7975C119.113 16.7975 118.774 16.9308 118.338 17.2701C117.804 17.6579 117.175 18.276 116.472 19.1001C115.127 20.6878 114.461 21.5119 114.461 21.5725V30.1166C114.461 30.1894 114.449 30.2742 114.424 30.3469C114.291 30.8559 114.013 31.3286 113.601 31.777C113.237 32.1648 112.741 32.5405 112.123 32.9162C111.529 33.2556 110.935 33.5222 110.342 33.704C109.724 33.8858 109.118 33.9827 108.512 33.9827C108.367 33.9827 108.246 33.9464 108.125 33.8858V34.3827C108.125 34.9159 108.549 35.328 109.082 35.328C109.675 35.328 110.293 35.2553 110.911 35.0735C111.505 34.8917 112.098 34.6251 112.704 34.2736C113.31 33.9221 113.794 33.5464 114.17 33.1586C114.594 32.7102 114.873 32.2133 114.994 31.7285C115.018 31.6558 115.018 31.571 115.018 31.4983V22.9177C115.018 22.8571 115.697 22.0088 117.041 20.4454C117.744 19.597 118.362 19.0153 118.907 18.6154C119.331 18.276 119.682 18.1185 119.937 18.1185C120.046 18.1185 120.143 18.1185 120.227 18.1427C120.215 17.8882 120.203 17.6458 120.167 17.4398C120.131 17.2095 120.082 17.0035 120.022 16.8702ZM46.0969 17.1853C45.8546 17.3428 45.5638 17.3792 45.2852 17.3065C45.0792 17.6822 45.164 18.1669 45.5154 18.4699C45.8425 18.7487 46.3149 18.7608 46.6542 18.5305C47.3205 18.1427 47.8778 17.8397 48.3381 17.6216V16.0461C48.2049 16.0824 48.0474 16.143 47.8535 16.24C47.3811 16.4339 46.7995 16.7732 46.0969 17.1853ZM60.7437 16.8702C60.7316 16.8459 60.7316 16.8702 60.7195 16.8702C60.5983 16.8096 60.3924 16.7975 60.1016 16.7975C59.8593 16.7975 59.5201 16.9308 59.084 17.2701C58.5388 17.6579 57.9209 18.276 57.2304 19.1001C56.4914 19.9606 55.9462 20.6514 55.607 21.1362C55.3526 21.4755 55.2315 21.524 55.2315 21.5725V30.1166C55.2315 30.1894 55.2193 30.2742 55.2072 30.3469C55.074 30.8559 54.7953 31.3286 54.3834 31.777C54.02 32.1648 53.5233 32.5405 52.9175 32.9162C52.3239 33.2556 51.7303 33.5222 51.1245 33.704C50.5067 33.8858 49.9009 33.9827 49.2952 33.9827C49.1498 33.9827 49.0166 33.9464 48.9075 33.8858V34.3827C48.9075 34.9159 49.3315 35.328 49.8525 35.328C50.4582 35.328 51.0761 35.2553 51.6818 35.0735C52.2754 34.8917 52.8691 34.6251 53.4627 34.2736C54.0805 33.9221 54.5651 33.5464 54.9407 33.1586C55.3526 32.7102 55.6312 32.2133 55.7645 31.7285C55.7887 31.6558 55.7887 31.571 55.7887 31.4983V22.9177C55.7887 22.8814 55.9099 22.8208 56.1643 22.4693C56.5156 21.9967 57.0487 21.3059 57.7877 20.4454C58.4903 19.6213 59.1082 19.0153 59.6413 18.6154C60.0653 18.276 60.4045 18.1185 60.6589 18.1185C60.7558 18.1185 60.8527 18.1185 60.9375 18.1427C60.9254 17.8882 60.9133 17.6337 60.8891 17.4398C60.8527 17.2095 60.8043 17.0035 60.7437 16.8702ZM84.1253 29.5349C84.1011 29.5349 84.089 29.5349 84.0647 29.5107C83.8224 30.1166 83.5074 30.6499 83.1198 31.1589C82.72 31.6922 82.2475 32.1769 81.6902 32.6132C81.1208 33.0617 80.503 33.401 79.8367 33.6191C79.1824 33.8494 78.4798 33.9706 77.7408 33.9706C76.4082 33.9706 75.3663 33.5343 74.6636 32.6738C74.5667 32.5769 74.4819 32.4436 74.4092 32.3224C74.5667 33.0132 74.8453 33.5586 75.233 34.0312C75.9478 34.8917 76.9776 35.3037 78.3102 35.3037C79.0371 35.3037 79.7397 35.2068 80.4061 34.9644C81.0602 34.7463 81.6781 34.419 82.2596 33.9585C82.8169 33.5222 83.2894 33.0374 83.6892 32.5042C84.089 31.9709 84.4161 31.4013 84.6583 30.7711C84.8522 30.2984 84.6099 29.7288 84.1253 29.5349ZM106.114 27.3777C106.041 27.3171 105.944 27.2807 105.847 27.2565C105.823 27.2807 105.811 27.3171 105.787 27.3534C105.023 28.4321 104.236 29.3895 103.4 30.2015C102.552 31.0498 101.668 31.7285 100.735 32.286C98.8448 33.401 96.7005 33.9706 94.2896 33.9706C92.5693 33.9706 91.0671 33.6919 89.8071 33.1707C88.4987 32.6254 87.4569 31.8012 86.6815 30.6741C86.306 30.1288 85.9789 29.5713 85.7002 29.0017C86.0637 30.0561 86.5846 31.062 87.2509 32.0194C88.0263 33.1223 89.056 33.9585 90.3644 34.516C91.6244 35.0492 93.1145 35.3037 94.8469 35.3037C97.2578 35.3037 99.4021 34.7584 101.292 33.6191C102.225 33.0738 103.109 32.383 103.957 31.5589C104.781 30.759 105.581 29.7894 106.344 28.7108C106.647 28.2745 106.538 27.6928 106.114 27.3777ZM105.314 17.1853C104.963 17.4034 104.502 17.4034 104.175 17.1126C104.091 17.052 104.018 16.955 103.969 16.8823L93.0903 27.0383C93.2599 27.2322 93.4416 27.414 93.6233 27.5473C93.7929 27.6807 93.9746 27.8261 94.1685 27.923L104.539 18.2275C104.587 18.3245 104.66 18.4093 104.757 18.482C105.084 18.7608 105.556 18.7729 105.896 18.5426C106.55 18.1548 107.119 17.8518 107.58 17.6337V16.0582C107.446 16.0945 107.277 16.1551 107.083 16.2521C106.598 16.4339 106.017 16.7732 105.314 17.1853ZM73.4037 16.9914C73.3673 16.9308 73.3068 16.8944 73.2341 16.8581C73.125 16.8217 72.9675 16.7975 72.7616 16.7975C72.5556 16.7975 72.2528 16.9308 71.8409 17.2701C71.3199 17.6458 70.7142 18.2518 70.0115 19.0759C69.9994 19.0759 69.9873 19.1001 69.9752 19.1123C69.2241 19.997 68.6668 20.6878 68.3155 21.1726C68.061 21.5119 67.9278 21.5119 67.9278 21.5604V30.1045C67.9278 30.1772 67.9157 30.2621 67.8914 30.3348C67.7582 30.8438 67.4917 31.3165 67.0919 31.7649C66.7163 32.1527 66.2438 32.5284 65.6623 32.8799H65.6502C65.0566 33.2313 64.4508 33.5101 63.833 33.6797C63.203 33.8615 62.5488 33.9585 61.8825 33.9585C61.7371 33.9585 61.616 33.9221 61.4948 33.8615V34.3584C61.4948 34.8917 61.9188 35.3037 62.4519 35.3037C63.1061 35.3037 63.7603 35.231 64.3903 35.0492C65.0202 34.8674 65.626 34.6008 66.2075 34.2494H66.2196C66.8011 33.8979 67.2857 33.5222 67.6491 33.1101C68.061 32.6738 68.3276 32.1891 68.4487 31.6922C68.473 31.6194 68.4851 31.5346 68.4851 31.4619H68.4972V22.9177C68.4972 22.8571 68.6183 22.8571 68.8727 22.5299C69.2362 22.033 69.7814 21.3543 70.5325 20.4696C70.5446 20.4454 70.5688 20.4333 70.5809 20.409C71.2715 19.6091 71.8772 18.9911 72.3982 18.6032C72.8101 18.2881 73.1129 18.1306 73.331 18.1306C73.4521 18.1306 73.5612 18.1548 73.646 18.1669C73.6339 17.8761 73.6096 17.6216 73.5733 17.4155C73.5248 17.2216 73.4764 17.0883 73.4037 16.9914ZM198.453 35.3037C199.083 35.3037 199.713 35.1825 200.367 34.9159C200.985 34.6614 201.591 34.2857 202.208 33.8009C202.802 33.3283 203.311 32.8556 203.747 32.3709C204.183 31.8618 204.547 31.3528 204.825 30.8196C205.068 30.3712 204.874 29.7773 204.413 29.547C204.365 29.5228 204.316 29.5107 204.256 29.4864C203.977 30.0197 203.626 30.5287 203.178 31.0135C202.754 31.5104 202.245 31.9709 201.639 32.4436C201.021 32.9405 200.403 33.304 199.785 33.5585C199.143 33.8373 198.501 33.9706 197.883 33.9706C197.459 33.9706 196.975 33.8373 196.466 33.5949C196.042 33.3768 195.557 33.0617 195.036 32.6375C194.612 32.2981 194.273 31.9346 193.995 31.4983C194.067 31.7891 194.164 32.0921 194.297 32.3587C194.588 32.9889 195.024 33.5343 195.606 33.9827C196.115 34.3948 196.599 34.7099 197.035 34.928C197.544 35.1947 198.017 35.3037 198.453 35.3037ZM218.709 14.2766C218.66 14.2766 218.612 14.2524 218.576 14.2524C218.188 14.1918 217.897 13.9373 217.788 13.5858C217.473 13.8646 217.146 14.0948 216.795 14.2766C216.213 14.5917 215.535 14.8462 214.747 14.9795C214.251 15.0765 213.73 15.1371 213.16 15.1735V34.3221C213.16 36.8308 212.894 39.0123 212.385 40.8544C211.852 42.7572 211.04 44.3084 209.962 45.5083C208.908 46.6838 207.733 47.5928 206.485 48.1745C205.213 48.8047 203.856 49.0956 202.414 49.0956H196.684C196.587 49.0956 196.49 49.0714 196.393 49.035C196.381 49.0956 196.357 49.1319 196.345 49.1683C196.175 49.6773 196.442 50.2106 196.926 50.3802C197.035 50.4166 197.144 50.4166 197.241 50.4166V50.4408H202.972C204.401 50.4408 205.758 50.1257 207.042 49.5198C208.302 48.9259 209.453 48.0291 210.519 46.8535C211.597 45.6537 212.409 44.0903 212.93 42.1997C213.451 40.3575 213.705 38.176 213.705 35.6673V16.5187C214.275 16.4824 214.808 16.4218 215.292 16.3248C216.068 16.1672 216.758 15.937 217.352 15.6219C217.691 15.4401 218.018 15.2098 218.333 14.9311C218.442 15.2825 218.745 15.537 219.109 15.5976C219.157 15.5976 219.206 15.5976 219.242 15.5976H220.914V14.2645H218.709V14.2766ZM233.537 27.4383C233.477 27.4019 233.416 27.3777 233.344 27.3655L233.331 27.3898C232.798 28.3351 232.217 29.1713 231.587 29.947C230.945 30.7347 230.266 31.4377 229.539 32.0436C228.776 32.6738 228.001 33.1465 227.213 33.4737C226.402 33.8131 225.578 33.9827 224.754 33.9827C224.076 33.9827 223.494 33.8494 222.985 33.5949C222.961 33.5707 222.949 33.5707 222.925 33.5585C222.489 33.3283 222.137 32.9889 221.859 32.5769C221.956 32.9526 222.077 33.2798 222.222 33.5828C222.525 34.1766 222.937 34.6251 223.482 34.9159C223.506 34.9159 223.531 34.9402 223.555 34.9523C224.064 35.2068 224.645 35.328 225.311 35.328C226.135 35.328 226.959 35.1704 227.771 34.8311C228.558 34.4917 229.321 34.0312 230.085 33.3768C230.812 32.7708 231.49 32.08 232.132 31.2922C232.762 30.5287 233.344 29.6804 233.877 28.7593C233.961 28.6017 233.998 28.4442 233.998 28.2624C234.022 27.923 233.852 27.6079 233.537 27.4383ZM173.957 17.4398C173.908 17.2459 173.836 17.052 173.751 16.9065C173.714 16.8338 173.654 16.7853 173.593 16.749C173.496 16.6884 173.375 16.6763 173.193 16.6763C173.036 16.6763 172.83 16.7732 172.576 16.955C172.212 17.2095 171.8 17.5852 171.34 18.0942C170.819 18.7002 170.322 19.2698 169.85 19.8273C169.462 20.2757 169.062 20.7726 168.638 21.318V30.3712C168.638 30.6257 168.529 30.8802 168.311 31.0741C167.984 31.3649 167.633 31.6437 167.269 31.9224C166.906 32.2012 166.506 32.492 166.07 32.7829C165.597 33.098 165.089 33.3525 164.543 33.5707C164.01 33.7525 163.441 33.8858 162.86 33.9585C162.811 33.9827 162.763 33.9827 162.702 33.9827C162.569 33.9827 162.435 33.9464 162.314 33.8858V34.3827C162.314 34.9159 162.738 35.328 163.271 35.328C163.32 35.328 163.368 35.328 163.429 35.328C164.01 35.2553 164.568 35.1098 165.113 34.9159C165.658 34.722 166.167 34.4675 166.651 34.1524C167.075 33.8615 167.475 33.5586 167.851 33.2919C168.214 33.0132 168.566 32.7466 168.893 32.4436C169.111 32.2497 169.22 31.9952 169.22 31.7164V22.6875C169.644 22.1421 170.056 21.6452 170.443 21.1968C170.916 20.6514 171.413 20.0576 171.934 19.4637C172.394 18.9547 172.794 18.5548 173.169 18.3245C173.436 18.1427 173.642 18.0458 173.787 18.0458C173.896 18.0458 173.981 18.07 174.054 18.07C174.029 17.8155 173.993 17.6216 173.957 17.4398ZM193.316 28.3715C192.819 28.8441 192.335 29.2804 191.862 29.6925C190.93 30.5166 190.069 31.2437 189.306 31.874C188.482 32.5648 187.707 33.0738 186.98 33.401C186.193 33.7767 185.442 33.9706 184.751 33.9706C183.964 33.9706 183.212 33.7525 182.51 33.3283C181.856 32.9162 181.25 32.3224 180.705 31.5589C180.511 31.2801 180.341 31.0135 180.184 30.6984C180.45 31.5225 180.802 32.2739 181.262 32.892C181.819 33.6797 182.425 34.2615 183.067 34.6735C183.77 35.0856 184.521 35.3037 185.308 35.3037C186.011 35.3037 186.75 35.122 187.537 34.7584C188.264 34.419 189.04 33.91 189.863 33.2313C190.627 32.6011 191.475 31.874 192.42 31.0498C192.759 30.759 193.098 30.4439 193.449 30.1288C193.365 29.7531 193.316 29.341 193.316 28.9289V28.3715ZM181.807 15.6704C181.807 15.0765 181.71 14.5554 181.541 14.0464C181.432 13.7313 181.298 13.4404 181.117 13.1859C181.201 13.5373 181.25 13.9373 181.25 14.3251C181.25 15.0523 181.032 15.8037 180.62 16.5793C180.232 17.2822 179.675 18.0336 178.924 18.7972C178.221 19.5001 177.543 20.1666 176.864 20.8332C176.234 21.4392 175.556 22.0451 174.865 22.6996C174.623 22.9299 174.247 23.0389 173.896 22.9299H173.884C173.642 23.4268 173.836 23.9721 174.308 24.2266C174.696 24.4084 175.144 24.3236 175.435 24.0327C176.113 23.4025 176.779 22.7965 177.422 22.1663C178.1 21.524 178.778 20.8332 179.481 20.1303C179.687 19.9364 179.869 19.7425 180.038 19.5243C180.087 19.4274 180.123 19.294 180.172 19.185C180.583 18.0821 181.117 17.0883 181.783 16.1794C181.795 16.0097 181.807 15.8279 181.807 15.6704ZM42.2201 28.4321C42.3049 28.4321 42.4019 28.4078 42.4988 28.3957V12.2406C42.4988 11.8649 42.2686 11.5134 41.9294 11.3801V28.4078L41.9415 28.4321C41.99 28.4199 42.0869 28.4321 42.2201 28.4321ZM29.3179 14.5917C29.3179 14.6281 29.33 14.6644 29.33 14.7129V25.5113C29.33 25.9839 29.3542 26.396 29.4148 26.7232C29.4632 27.0383 29.5359 27.2928 29.6328 27.4746C29.6692 27.5473 29.7419 27.6079 29.8388 27.6564C29.8751 27.6807 29.8994 27.6807 29.9357 27.6928C29.9115 27.4383 29.8994 27.1595 29.8994 26.8687V16.0703C29.8994 16.0339 29.8994 15.9976 29.8873 15.9491C29.8509 15.5007 29.7782 15.0401 29.6813 14.5796C29.5844 14.107 29.4632 13.6343 29.3057 13.1859C29.2936 13.1495 29.2815 13.1253 29.2694 13.0889C29.1846 12.8708 29.0634 12.6526 28.9423 12.483C29.015 12.7375 29.0756 12.9799 29.124 13.2344C29.2088 13.6707 29.2815 14.1433 29.3179 14.5917ZM19.8562 16.652C20.1591 16.8702 20.5588 16.8702 20.8617 16.6884C21.3463 16.4096 21.7582 16.1915 22.1095 16.0824C22.2307 16.0218 22.3276 16.0097 22.4366 15.9612V15.4522C22.4366 15.1977 22.4245 14.9553 22.4003 14.7856C22.3882 14.6887 22.364 14.6038 22.3518 14.5675C22.3276 14.5675 22.3034 14.5675 22.2549 14.5675C22.0732 14.5675 21.8309 14.6038 21.5401 14.725C21.1888 14.8584 20.7769 15.0644 20.2923 15.331C20.0621 15.4643 19.7835 15.4886 19.5291 15.428C19.3231 15.8521 19.4564 16.3854 19.8562 16.652ZM47.696 27.5716C47.6112 27.5352 47.5264 27.4989 47.4416 27.4504C47.4174 27.4867 47.4053 27.5231 47.3811 27.5473C46.957 28.1775 46.4482 28.8199 45.8304 29.4864C45.2367 30.153 44.5462 30.8438 43.7587 31.5831C42.9107 32.3466 42.099 32.9405 41.2873 33.3283C40.4271 33.7403 39.5912 33.9585 38.7553 33.9585C38.1374 33.9585 37.5923 33.8615 37.1198 33.6797C36.5868 33.4858 36.1627 33.1465 35.8599 32.7344C35.8235 32.6981 35.7872 32.6617 35.7629 32.6132C35.7751 32.6496 35.7872 32.686 35.7993 32.7344C35.9326 33.2677 36.1506 33.7161 36.4293 34.0918C36.7442 34.5039 37.1683 34.819 37.6892 35.0371C38.1617 35.2189 38.6947 35.2916 39.3247 35.2916C40.1485 35.2916 40.9965 35.0977 41.8567 34.6614C42.6684 34.2736 43.4922 33.704 44.3281 32.9162C45.1156 32.1891 45.8182 31.4983 46.4119 30.8317C47.0176 30.1409 47.5385 29.5107 47.9505 28.8926C48.2412 28.4805 48.1322 27.8624 47.696 27.5716ZM55.2193 16.4339C55.3768 16.24 55.5222 16.0461 55.6797 15.84C55.607 15.0401 55.498 14.3615 55.3526 13.8403C55.2315 13.3919 55.074 13.0162 54.8438 12.7011C54.9649 13.2344 55.0619 13.8646 55.1224 14.6038C55.1709 15.1613 55.2072 15.7673 55.2193 16.4339ZM19.1899 40.0545H19.1535C18.4993 39.8364 17.833 39.7031 17.1788 39.6182C16.5004 39.5455 15.8341 39.5455 15.1556 39.5819C15.1435 39.5819 15.1193 39.5819 15.1072 39.5819C13.9684 39.6425 12.8538 39.7637 11.7514 39.9333C10.6489 40.1151 9.54648 40.3454 8.44403 40.6241L8.39557 40.6484C7.1962 40.9635 6.16644 41.218 5.34264 41.4361C4.88227 41.5573 4.50671 41.6543 3.85251 41.824C3.67079 41.9573 3.44061 42.1027 3.17408 42.2118C2.84698 42.3451 2.44719 42.4421 1.95049 42.5632C1.81722 42.5875 1.69607 42.5875 1.57493 42.5632C1.16302 42.4905 0.799578 42.333 0.508822 42.0664C0.460363 42.03 0.411904 41.9936 0.375559 41.9452C0.35133 42.1027 0.363444 42.2603 0.411904 42.4178C0.545167 42.8299 0.763233 43.145 1.0661 43.4237C1.35686 43.654 1.7203 43.8358 2.14432 43.9206C2.25336 43.9449 2.38662 43.9449 2.50777 43.9206C3.00448 43.8237 3.40426 43.6903 3.73136 43.5449C3.99789 43.4237 4.22807 43.3146 4.40979 43.1571C5.06399 42.9995 5.43955 42.9026 5.89992 42.7814C6.73584 42.5632 7.75348 42.3087 8.96497 41.9936L9.00131 41.9694C10.0916 41.6785 11.2062 41.4604 12.3087 41.2786C13.4111 41.0968 14.5378 40.9877 15.6645 40.9271C15.6887 40.9271 15.7008 40.9271 15.725 40.9271C16.4035 40.8665 17.0698 40.8908 17.7482 40.9635C18.4145 41.0362 19.0808 41.1816 19.7229 41.3998H19.7593C20.1227 41.521 20.4014 41.6543 20.6315 41.8361C20.6315 41.3998 20.5346 41.0483 20.3408 40.7817C20.0985 40.4666 19.7108 40.2363 19.1899 40.0545ZM26.9434 37.6064C26.8707 37.4489 26.798 37.3156 26.7132 37.1701C26.7495 37.3034 26.7859 37.461 26.8222 37.6185C26.9555 38.067 26.9312 38.6002 26.7737 39.1456C26.6405 39.6546 26.3861 40.2 26.0105 40.8181C25.9742 40.8787 25.9257 40.9393 25.8651 40.9998C25.2957 41.5937 24.7142 42.0785 24.1206 42.4299C23.4785 42.8178 22.8243 43.0601 22.1701 43.1571C21.9763 43.1813 21.7946 43.1571 21.6371 43.0844L21.2252 42.9511C21.2009 42.9268 21.1767 42.9268 21.1525 42.9147C21.1646 43.048 21.1767 43.1935 21.1646 43.351C21.1404 43.7631 21.3827 44.1509 21.7946 44.3084L22.1943 44.4417C22.3518 44.5145 22.5457 44.5387 22.7395 44.5145C23.3937 44.4175 24.0358 44.163 24.6779 43.7873C25.2715 43.4358 25.853 42.9389 26.4345 42.3572C26.4951 42.2966 26.5315 42.236 26.5799 42.1754C26.9434 41.5695 27.1978 41.012 27.3431 40.503C27.5006 39.9333 27.5128 39.4243 27.3795 38.9759C27.2947 38.4911 27.1493 38.0185 26.9434 37.6064ZM35.0361 29.7652C34.7453 30.0439 34.4667 30.2984 34.1759 30.5287C33.3884 31.1953 32.6252 31.7891 31.8862 32.3103C31.1109 32.8435 30.3113 33.2556 29.4754 33.5222C28.6273 33.8131 27.7793 33.9585 26.907 33.9585C26.0711 33.9585 25.3563 33.7646 24.7385 33.3889C24.2296 33.0495 23.8056 32.6011 23.4785 32.0315C23.5876 32.383 23.7208 32.7223 23.8662 33.0374C24.2054 33.7888 24.69 34.3584 25.2957 34.722C25.9136 35.1098 26.6284 35.2916 27.4643 35.2916C28.3244 35.2916 29.1846 35.1583 30.0326 34.8796C30.8564 34.6008 31.6681 34.1888 32.4435 33.6434C33.1825 33.1344 33.9457 32.5405 34.7332 31.874C34.9028 31.7164 35.0603 31.5831 35.2299 31.4377L35.2178 31.3771C35.0966 30.9286 35.0361 30.3833 35.0361 29.7652ZM12.3208 22.1663C11.9089 24.978 11.4485 27.4625 10.9397 29.644C10.4914 31.571 9.99473 33.2556 9.44956 34.7341C9.80089 34.6008 10.1886 34.4433 10.6247 34.2857C10.9276 33.2798 11.2304 32.1891 11.5091 31.0014C12.0179 28.8199 12.4783 26.3233 12.8902 23.5237C13.2536 21.7179 13.4838 19.8879 13.5686 18.0821C13.6655 16.3127 13.6292 14.5433 13.4596 12.7981C13.4596 12.7617 13.4596 12.7375 13.4596 12.7253C13.3384 11.271 13.0719 9.96213 12.6963 8.77443C12.6842 8.75019 12.6842 8.73807 12.6842 8.71383C12.5025 8.18058 12.2965 7.6958 12.0664 7.22315L12.1148 7.35646C12.1269 7.3807 12.1269 7.39282 12.1269 7.41706C12.5146 8.59264 12.769 9.91365 12.8902 11.3801C12.9023 11.4043 12.9023 11.4165 12.9023 11.4407C13.0598 13.1859 13.1082 14.9553 13.0113 16.7247C12.9023 18.5426 12.6842 20.3606 12.3208 22.1663ZM1.12668 6.22936C1.18725 6.22936 1.35686 6.41115 1.6355 6.73837C1.97472 7.11407 2.36239 7.68368 2.78641 8.42297L2.77429 8.39873L2.6168 8.08362C2.59257 8.04727 2.58046 8.01091 2.56834 7.96243H2.58046C2.55623 7.88971 2.532 7.74428 2.49565 7.52613C1.9626 6.54446 1.49012 5.84154 1.09033 5.36888C0.799578 5.02954 0.62997 4.85987 0.581511 4.85987C0.363444 4.85987 0.169607 4.82351 0.0121146 4.70232C-1.85038e-07 4.76291 0 4.79927 0 4.85987V4.89623C0 5.01742 0.0242296 5.1265 0.0605741 5.24769L0.133263 5.4416C0.133263 5.46584 0.145378 5.47796 0.145378 5.5022C0.218067 5.72035 0.363445 5.91426 0.569397 6.04757C0.726889 6.16876 0.920726 6.22936 1.12668 6.22936ZM25.4411 35.7037C23.951 34.2857 22.2065 33.5828 20.1954 33.5464C18.0147 33.4495 15.6645 33.8252 13.1203 34.6493C10.5884 35.4734 9.17092 36.0673 8.8317 36.3824H8.40768L8.38345 36.3097C8.34711 36.2127 8.51672 35.7764 8.88016 35.0371C10.1038 31.9588 11.1214 27.5958 11.9452 22.0209C12.6479 18.4457 12.8296 14.9311 12.5025 11.5013C12.2602 8.65323 11.5333 6.45963 10.2855 4.84775C6.85699 0.424178 0.266526 1.58764 0.95707 3.64793L1.04187 3.8782C1.05399 3.91456 1.09033 3.95092 1.13879 3.95092C1.82934 3.95092 2.77429 5.05378 3.97366 7.24739C4.02212 7.50189 4.04635 7.65945 4.05846 7.6958L4.2523 8.0715C5.17303 11.4286 5.5607 15.2947 5.42744 19.6697C5.29418 24.0448 4.89439 28.6623 4.2523 33.5343C4.24019 35.0614 3.76771 36.8671 2.8591 38.9153C1.75665 39.9576 1.23571 40.5878 1.32051 40.8059C1.47801 41.2786 1.81722 41.5573 2.32605 41.6543C3.1862 41.4725 3.71925 41.2665 3.9252 40.9877C4.87016 40.7332 6.49354 40.3212 8.75901 39.7515C11.0245 39.1456 13.3263 38.7941 15.6402 38.6729C17.1182 38.5517 18.572 38.7335 20.0379 39.1819C21.5159 39.6546 22.2065 40.612 22.1338 42.0664L22.6063 42.2481C23.6845 42.0664 24.7385 41.4483 25.7682 40.3575C26.4224 39.3031 26.6526 38.4548 26.4588 37.8609C26.3013 36.9762 25.9742 36.2491 25.4411 35.7037ZM42.7895 29.3774C42.3897 29.3774 42.1111 29.3168 41.9536 29.1835C41.7961 29.0501 41.6507 28.9047 41.5417 28.7956V10.8832C40.1364 10.8832 38.9491 11.2589 38.0042 12.0224C37.0471 12.7859 36.5746 13.6707 36.5746 14.7129V23.3904C36.5746 24.3963 35.9083 25.5355 34.5757 26.8081C33.2431 28.1048 32.1164 28.735 31.2199 28.735C30.2507 28.735 29.6207 28.4563 29.3542 27.9109C29.0877 27.3656 28.9423 26.5536 28.9423 25.5113V14.7129C28.8696 13.8282 28.6879 12.9799 28.4093 12.1436C28.1185 11.3195 27.3795 10.8832 26.1922 10.8832C25.114 10.8832 24.0843 11.1741 23.103 11.7679C22.1338 12.3618 21.2373 13.2828 20.4014 14.519C21.4432 13.913 22.2549 13.6101 22.8364 13.6101C23.3089 13.6101 23.6118 13.7676 23.7572 14.0585C23.9025 14.3493 23.9752 14.822 23.9752 15.4522V27.1353C23.9752 28.7593 24.2296 30.153 24.7506 31.2922C25.2836 32.4314 26.1801 33.0011 27.4885 33.0011C29.0392 33.0011 30.5172 32.5042 31.9225 31.5225C33.3279 30.5408 34.8786 29.2198 36.5746 27.5595V29.7531C36.5746 30.8075 36.7806 31.6194 37.1925 32.1648C37.6044 32.7102 38.3192 32.9889 39.3368 32.9889C40.7058 32.9889 42.1596 32.286 43.686 30.868C45.2246 29.4501 46.3876 28.1533 47.1751 27.002C46.1696 27.8867 45.3094 28.4927 44.6068 28.8441C43.892 29.1956 43.2862 29.3774 42.7895 29.3774ZM80.1516 29.438V14.9674C80.1516 13.5979 79.9093 12.6163 79.4247 12.0467C78.9402 11.477 78.1163 11.1983 76.9654 11.1983C75.3057 11.1983 73.6581 12.083 72.0226 13.8646C70.3871 15.634 68.897 17.4155 67.5643 19.2092V16.24C67.5643 14.5554 67.3463 13.295 66.9101 12.4466C66.4861 11.5982 65.5896 11.1862 64.2691 11.1862C62.5367 11.1862 60.8891 12.0345 59.3141 13.7191C57.7392 15.428 56.2612 17.2943 54.8559 19.3546V17.4883C54.8559 15.331 54.7226 13.7434 54.4561 12.7132C54.1775 11.6952 53.5475 11.1862 52.542 11.1862C51.8878 11.1862 51.0034 11.6346 49.8767 12.5557C48.7379 13.4767 47.5022 14.7493 46.1332 16.3612C47.6476 15.4522 48.6773 15.0038 49.2104 15.0038C49.6465 15.0038 49.8646 15.2825 49.8646 15.8037V32.9889C50.8943 32.9889 51.9362 32.6738 52.9902 32.0679C54.0442 31.4377 54.6621 30.7953 54.8317 30.0803V21.5361C54.8317 21.2453 55.5707 20.2151 57.0608 18.4578C58.5509 16.6884 59.7503 15.8037 60.6589 15.8037C61.4948 15.8037 62.0036 16.0339 62.1854 16.4702C62.3671 16.9186 62.464 17.5246 62.464 18.3124V32.9768C63.6149 32.9768 64.7052 32.6617 65.735 32.0557C66.7648 31.4255 67.3584 30.7832 67.5401 30.0682V21.524C67.5401 21.2695 68.3033 20.2515 69.8056 18.4578C71.3199 16.6763 72.483 15.7915 73.3189 15.7915C73.961 15.7915 74.4334 15.9855 74.7242 16.3975C75.015 16.7853 75.1482 17.4155 75.1482 18.3003V29.1956C75.1482 31.7043 76.2022 32.9647 78.2981 32.9647C79.558 32.9647 80.6726 32.589 81.6539 31.8255C82.6231 31.062 83.3378 30.1409 83.7618 29.038C82.5019 30.0803 81.557 30.6135 80.9512 30.6135C80.4303 30.6499 80.1516 30.2378 80.1516 29.438ZM102.419 28.6502C101.244 29.2441 99.9836 29.5349 98.651 29.5349C97.3183 29.5349 96.119 29.3774 95.0529 29.0623C93.9868 28.7229 93.1024 28.02 92.3755 26.9171L105.52 14.6281C103.933 13.1374 102.685 12.1557 101.764 11.7073C100.844 11.2104 99.6807 10.9802 98.2633 10.9802C94.8106 10.9802 91.903 12.1557 89.5648 14.519C87.2146 16.8944 86.0516 20.0212 86.0516 23.9236C86.0516 26.1415 86.7179 28.226 88.0626 30.1288C89.3952 32.0557 91.6607 33.0132 94.8711 33.0132C97.1124 33.0132 99.0992 32.5042 100.82 31.4619C102.552 30.4439 104.139 28.8926 105.581 26.8323C104.636 27.4504 103.582 28.0806 102.419 28.6502ZM91.2973 23.6085C91.1882 22.8814 91.1277 22.1179 91.1277 21.2937C91.1277 19.391 91.4911 17.7185 92.218 16.3248C92.9328 14.9068 93.9262 14.2039 95.1982 14.2039C96.2038 14.2039 97.0155 14.5554 97.6333 15.2098C98.2512 15.8521 98.554 16.7853 98.554 17.9609C98.554 18.9426 97.597 20.3969 95.6828 22.3239C94.4229 23.4631 93.163 24.6266 91.8909 25.7779C91.6001 25.0386 91.4063 24.3357 91.2973 23.6085ZM126.721 29.5955V16.24C126.721 14.5554 126.503 13.295 126.079 12.4466C125.655 11.5982 124.771 11.1862 123.438 11.1862C121.718 11.1862 120.07 12.0345 118.507 13.7191C116.944 15.428 115.466 17.2943 114.061 19.3546V17.4883C114.061 15.331 113.928 13.7434 113.661 12.7132C113.395 11.6952 112.753 11.1862 111.747 11.1862C111.105 11.1862 110.208 11.6346 109.082 12.5557C107.955 13.4767 106.707 14.7493 105.35 16.3612C106.865 15.4522 107.882 15.0038 108.44 15.0038C108.864 15.0038 109.082 15.2825 109.082 15.8037V32.9889C110.112 32.9889 111.153 32.6738 112.22 32.0679C113.274 31.4377 113.879 30.7953 114.061 30.0803V21.5361C114.061 21.2453 114.812 20.2151 116.314 18.4578C117.804 16.6884 119.016 15.8037 119.937 15.8037C120.785 15.8037 121.281 16.0339 121.475 16.4702C121.657 16.9186 121.754 17.5246 121.754 18.3124V29.6198C121.754 30.759 122.045 31.6073 122.638 32.1527C123.232 32.6981 124.007 32.9768 124.964 32.9768C125.825 32.9768 126.794 32.6254 127.872 31.9346C128.962 31.2437 129.859 30.2621 130.574 29.0138C129.289 30.1166 128.284 30.662 127.557 30.662C127 30.6984 126.721 30.3227 126.721 29.5955ZM158.183 38.6487C157.723 39.291 157.262 39.8485 156.766 40.2969C156.305 40.612 155.627 41.0847 154.185 41.5695C152.283 42.2118 151.605 42.1997 148.927 42.1633C148.116 42.0906 147.328 41.933 146.553 41.6907C145.996 41.5331 145.923 41.4725 145.329 41.2786C144.481 40.9393 143.67 40.5272 142.87 40.0182C140.314 38.2124 138.557 35.9703 137.564 33.304C137.503 33.1223 137.406 32.892 137.261 32.6375C137.249 32.4557 137.249 32.3466 137.237 32.3224L136.679 31.1104C135.952 28.6502 135.807 25.6082 136.255 21.9967L136.813 19.1244C136.825 18.2639 137.612 16.24 139.211 13.0768C140.726 10.5681 142.422 8.38661 144.312 6.52022C145.451 5.40524 146.492 4.73868 147.437 4.52053C147.413 4.44781 147.97 4.30238 149.097 4.04787C150.115 4.01151 150.963 4.18118 151.641 4.61748C151.665 4.52053 151.665 4.43569 151.641 4.38721C151.508 3.89032 151.108 3.36919 150.49 2.81169C150.672 2.02394 151.387 1.64824 152.635 1.64824C153.41 1.64824 154.222 1.8785 155.058 2.35116C155.893 2.82381 156.548 3.72065 157.02 5.0659C157.408 6.83533 157.238 8.71383 156.523 10.762C155.784 12.7617 155.506 14.9674 155.688 17.3428C155.712 17.4155 155.591 17.4761 155.324 17.4761H154.9C153.361 16.3369 152.344 15.0401 151.883 13.5737L151.835 13.4404C151.532 12.4587 151.35 10.6893 151.314 8.18058C151.496 7.76852 151.508 7.3201 151.35 6.81109C151.254 6.77473 151.144 6.75049 151.011 6.75049H150.829C149.521 7.3201 148.176 8.45932 146.783 10.1924C144.699 13.7313 143.561 16.5187 143.415 18.5426C142.398 23.6085 142.494 28.1048 143.742 32.0315L143.779 32.1648C145.669 36.9762 148.031 39.3274 150.866 39.291C153.131 39.3153 154.658 38.5881 155.421 37.1701C156.196 35.7522 156.463 34.2978 156.221 32.8314C156.221 32.1648 156.584 31.8134 157.311 31.8134C157.626 31.8376 157.989 32.1527 158.401 32.6981C159.237 35.231 159.177 37.2307 158.183 38.6487ZM180.014 11.9255C179.457 11.2589 178.694 10.9438 177.712 10.9438C175.968 10.9438 174.211 11.9255 172.442 13.8646C171.037 15.634 169.632 17.4155 168.251 19.2092V16.9308C168.251 14.7129 168.117 13.1616 167.851 12.2769C167.584 11.3922 166.942 10.9438 165.937 10.9438C165.222 10.9438 164.132 11.6346 162.654 13.0041C161.188 14.3736 160.17 15.634 159.589 16.7369C160.122 16.24 160.618 15.8764 161.042 15.6582C161.478 15.4401 161.854 15.3189 162.181 15.3189C162.908 15.3189 163.259 15.6704 163.259 16.3733V33.0011C164.338 32.8677 165.27 32.5284 166.094 31.983C166.918 31.4377 167.633 30.8802 168.238 30.359V20.9786C169.183 19.8031 170.165 18.6275 171.195 17.464C172.224 16.3006 173.084 15.7309 173.763 15.7309C174.417 15.7309 174.877 15.9612 175.144 16.4339C175.41 16.9065 175.556 17.4883 175.556 18.2397C175.556 18.8456 175.459 19.5364 175.277 20.3363C175.095 21.1241 174.914 21.6694 174.744 22.0088C176.077 20.809 177.422 19.5122 178.803 18.1185C180.172 16.7247 180.862 15.4522 180.862 14.313C180.85 13.3798 180.571 12.5678 180.014 11.9255ZM201.784 30.1651C201.336 30.3833 200.948 30.5045 200.621 30.5045C200.185 30.5045 199.955 30.2863 199.919 29.8379V11.1983H195.218C190.893 11.1983 187.368 12.4587 184.666 14.9674C181.965 17.5004 180.608 21.0392 180.608 25.6082C180.608 27.8503 181.092 29.6561 182.037 31.0135C182.994 32.3466 184.085 33.0132 185.308 33.0132C186.423 33.0132 187.743 32.4072 189.258 31.1468C190.772 29.9106 192.626 28.2624 194.818 26.2142V28.9289C194.818 30.1894 195.291 31.171 196.212 31.9103C197.132 32.6375 197.871 33.0132 198.453 33.0132C199.47 33.0132 200.524 32.5769 201.615 31.6922C202.717 30.8317 203.493 29.947 203.965 29.0259C202.972 29.5713 202.245 29.947 201.784 30.1651ZM194.831 23.8388C193.825 24.6872 192.819 25.3537 191.838 25.8264C190.845 26.3233 189.924 26.5778 189.052 26.5778C188.034 26.5778 187.247 26.19 186.677 25.4143C186.096 24.6266 185.817 23.4268 185.817 21.7785C185.817 19.3789 186.641 17.258 188.301 15.3916C189.96 13.5252 192.141 12.6041 194.843 12.6041V23.8388H194.831ZM212.785 11.4165V4.29026C212.785 3.68429 213.027 3.33283 213.524 3.24799C214.008 3.17528 215.135 3.1268 216.904 3.1268C219.072 3.1268 220.865 2.94501 222.283 2.59355C223.7 2.24208 224.863 1.38161 225.772 0H215.377C213.112 0 211.27 0.908953 209.889 2.6905C208.496 4.47205 207.805 6.59294 207.805 9.05317V11.4043H206.885L204.014 14.2524H207.805V41.5089C207.805 43.7267 206.231 44.8659 203.081 44.9265C199.919 44.9871 197.992 46.0657 197.266 48.1503H202.996C205.588 48.1503 207.878 47.0717 209.841 44.8902C211.803 42.6966 212.785 39.1819 212.785 34.3221V14.2645C214.553 14.2645 215.935 13.9858 216.928 13.4646C217.921 12.9193 218.769 11.9133 219.496 10.459C219.133 11.1013 216.904 11.4165 212.785 11.4165ZM230.291 28.9653C229.503 29.4137 228.873 29.6319 228.364 29.6319C227.746 29.6319 227.444 29.2562 227.444 28.529V13.295C228.243 13.2586 229.067 13.1374 229.903 12.9193C230.751 12.7011 231.417 12.1194 231.878 11.1377H227.444V3.26011C225.748 7.28374 223.991 9.78034 222.174 10.7256C220.356 11.6831 219.387 12.5557 219.278 13.3192H222.464V27.3777C222.464 29.4986 222.67 30.965 223.082 31.777C223.494 32.6011 224.245 33.0132 225.324 33.0132C226.729 33.0132 228.11 32.4436 229.491 31.2801C230.86 30.1409 232.047 28.6866 233.065 26.9171C231.999 27.8503 231.066 28.5169 230.291 28.9653ZM59.9683 43.5207H59.9441L59.9562 43.4601L59.9683 43.4237V43.351H59.9805H60.0168L59.9926 43.4116V43.5328H59.9683V43.5207ZM114.437 16.4218C114.594 16.2278 114.739 16.0339 114.897 15.8279C114.824 15.0401 114.715 14.3736 114.57 13.8403C114.449 13.3919 114.291 13.0162 114.061 12.7011C114.182 13.2344 114.279 13.8646 114.34 14.6038C114.388 15.1371 114.424 15.7552 114.437 16.4218Z" fill="white"/>
<path fill-rule="evenodd" clip-rule="evenodd" d="M138.864 45.4266C138.403 45.4266 137.99 45.5477 137.638 45.7658C137.273 45.9838 137.006 46.2139 136.836 46.4683C136.533 46.9165 136.314 47.3889 136.193 47.9218C136.059 48.4306 135.998 49.0847 135.998 49.8235C135.998 50.2717 136.022 50.6109 136.059 50.8047C136.071 50.8652 136.083 50.9864 136.108 51.1438C136.156 51.5314 136.205 51.81 136.265 51.9917C136.496 52.6579 136.654 53.094 136.763 53.2514C136.921 53.53 137.152 53.7844 137.468 54.0509C137.625 54.1841 137.856 54.3053 138.16 54.4264C138.463 54.5475 138.767 54.6081 139.071 54.6081C139.641 54.6081 140.176 54.4748 140.674 54.1962C141.171 53.9419 141.56 53.4937 141.852 52.8396C142.143 52.1976 142.301 51.3619 142.301 50.3323C142.301 49.8962 142.264 49.3269 142.216 48.6002L142.167 48.4427C142.155 48.4064 142.131 48.3094 142.094 48.1278C141.9 47.2678 141.524 46.6015 140.965 46.1413C140.406 45.6568 139.702 45.4266 138.864 45.4266ZM133.448 49.872C133.448 49.2058 133.569 48.5517 133.837 47.8855C134.019 47.4131 134.274 46.977 134.614 46.5652C134.942 46.1776 135.367 45.8142 135.877 45.5114C136.375 45.2207 136.897 44.9784 137.419 44.8452C137.941 44.712 138.524 44.6514 139.168 44.6514C140.273 44.6514 141.232 44.8452 142.046 45.2813C142.847 45.6689 143.503 46.2382 143.965 46.9528C144.572 47.8734 144.875 48.8424 144.875 49.8357C144.875 51.3497 144.365 52.6216 143.345 53.6875C142.325 54.7655 140.904 55.2985 139.083 55.2985C138.633 55.2985 138.208 55.2743 137.82 55.2258C137.528 55.1653 137.261 55.1289 137.043 55.0441C136.642 54.9109 136.411 54.8261 136.363 54.814C135.792 54.4748 135.318 54.1478 134.966 53.8086C134.614 53.4574 134.31 53.0819 134.067 52.6337C133.946 52.4036 133.788 51.9433 133.618 51.3134C133.497 50.9016 133.448 50.4292 133.448 49.872ZM126.32 49.5207C126.575 49.5207 126.769 49.5449 126.878 49.5449C127.789 49.5449 128.42 49.3875 128.797 49.0483C129.173 48.7092 129.368 48.2852 129.368 47.7523C129.368 47.4131 129.319 47.1103 129.222 46.8075C129.125 46.5168 129.016 46.2987 128.882 46.1655C128.688 45.9475 128.433 45.8142 128.117 45.6931C127.886 45.6204 127.51 45.572 127 45.572C126.757 45.572 126.55 45.5962 126.368 45.6083L126.356 45.7658L126.368 46.8196L126.344 47.4616V48.3458C126.344 48.5759 126.32 48.8909 126.32 49.2664V49.5207ZM122.737 54.6444C122.871 54.5717 123.077 54.5233 123.357 54.487C123.624 54.4506 123.867 54.39 124.085 54.3053C124.122 54.2084 124.134 54.1236 124.134 54.0751C124.146 54.0146 124.158 53.7602 124.158 53.3241L124.146 51.5557L124.17 50.5988L124.158 49.872L124.17 49.4359C124.182 48.8424 124.194 48.3216 124.194 47.8128C124.194 46.7106 124.182 46.008 124.158 45.7173L123.684 45.6204C123.259 45.5841 122.968 45.5599 122.834 45.5477L122.822 45.0753L122.846 44.9784C123.114 44.9421 123.357 44.9179 123.575 44.9179C123.697 44.9179 123.939 44.9179 124.316 44.9179C124.692 44.9421 124.899 44.9542 124.935 44.9542L125.36 44.93L126.356 44.8694C126.975 44.8089 127.631 44.7967 128.323 44.7967C129.416 44.7967 130.278 45.0753 130.922 45.6204C131.566 46.1655 131.881 46.7954 131.881 47.5221C131.881 48.0551 131.711 48.5396 131.371 48.9756C131.019 49.4117 130.497 49.7388 129.781 49.9568C129.841 50.0779 129.926 50.1869 130.036 50.3444C130.254 50.6593 130.436 50.9379 130.57 51.1438L131.833 53.203C132.161 53.7481 132.367 54.063 132.452 54.1599C132.549 54.2326 132.756 54.3416 133.059 54.4506C133.302 54.5475 133.484 54.6323 133.606 54.7292C133.642 54.8019 133.654 54.8867 133.654 54.9593C133.654 54.9957 133.654 55.0562 133.642 55.141H133.424H133.266L132.853 55.1047H132.525C132.343 55.0805 132.136 55.0805 131.894 55.0805L131.092 55.0563C131.031 55.0563 130.849 55.0805 130.534 55.0926C130.388 55.1168 130.266 55.1168 130.181 55.1289L129.914 54.596C129.696 54.2084 129.526 53.9055 129.441 53.7117C129.198 53.203 128.809 52.3914 128.238 51.2771C127.971 50.7441 127.789 50.4534 127.68 50.3928C127.522 50.2717 127.243 50.2112 126.854 50.2112C126.745 50.2112 126.575 50.2111 126.307 50.2354C126.295 50.3928 126.283 50.5745 126.283 50.7804L126.332 52.5489L126.271 54.0388C126.429 54.1115 126.623 54.1962 126.854 54.2326C127.267 54.3053 127.631 54.4143 127.935 54.5233C127.935 54.8019 127.923 54.9957 127.898 55.1168C127.801 55.1168 127.74 55.1168 127.716 55.1168L127.388 55.141C126.247 55.0441 125.567 54.9836 125.348 54.9836C125.215 54.9836 125.117 55.0078 125.057 55.0078L123.952 55.0684C123.612 55.1047 123.32 55.1289 123.041 55.1289H122.701C122.689 54.9957 122.689 54.9109 122.689 54.8746C122.713 54.8382 122.725 54.7413 122.737 54.6444ZM112.087 44.397H112.585C112.621 44.4334 112.658 44.4939 112.67 44.5182C112.816 44.7968 112.937 44.9663 113.01 45.0511C113.083 45.0511 113.435 45.0753 114.115 45.0753C114.528 45.0753 114.88 45.0511 115.196 45.0511H115.354L116.325 45.0269L118.123 45.0511H120.588L121.061 44.9784C121.134 44.9421 121.207 44.7967 121.28 44.5908C121.304 44.5545 121.341 44.4697 121.377 44.397L121.729 44.3728C121.778 44.3728 121.863 44.397 121.972 44.397C121.984 44.7725 121.984 45.3176 121.984 46.0444L121.996 46.7469L121.984 47.1587C121.984 47.292 121.972 47.4131 121.948 47.51C121.729 47.5827 121.535 47.6311 121.365 47.6432C121.231 47.4252 121.086 47.1345 120.916 46.7348C120.758 46.3472 120.648 46.1292 120.612 46.0928C120.539 46.0323 120.466 45.9717 120.393 45.9717C120.26 45.9353 119.701 45.9111 118.693 45.9111C118.548 45.9111 118.365 45.9353 118.135 45.9475C118.11 46.1655 118.098 46.323 118.098 46.4562V49.872L118.123 52.3793L118.11 53.421C118.11 53.7965 118.147 54.063 118.208 54.2447C118.293 54.281 118.45 54.3053 118.681 54.3416C118.73 54.3416 118.924 54.4022 119.276 54.4748C119.434 54.5112 119.58 54.5475 119.701 54.596C119.726 54.7898 119.738 54.9109 119.738 54.9472C119.738 54.9836 119.726 55.0684 119.713 55.141C119.604 55.141 119.495 55.141 119.422 55.141C118.875 55.141 118.402 55.141 118.025 55.1047C117.649 55.0684 116.945 55.0441 115.949 55.0441C115.791 55.0441 115.317 55.0805 114.54 55.141C114.237 55.1653 114.042 55.1774 113.945 55.1774C113.945 55.0805 113.933 55.0199 113.933 54.9836L113.921 54.8019V54.7413C114.042 54.5839 114.261 54.4627 114.577 54.39C115.135 54.2689 115.512 54.1357 115.73 54.0388C115.779 53.9419 115.815 53.8086 115.827 53.6512C115.852 53.0092 115.876 52.0038 115.876 50.6109L115.852 47.5948C115.852 46.7711 115.84 46.2745 115.791 46.1049C115.779 46.0444 115.767 46.008 115.742 45.9838C115.718 45.9596 115.682 45.9475 115.633 45.9475C115.463 45.9232 114.929 45.9111 114.03 45.9111C113.532 45.9111 113.204 45.9717 113.022 46.0686C112.804 46.2018 112.451 46.541 112.002 47.1224C111.868 47.3041 111.771 47.3768 111.698 47.3768C111.456 47.2556 111.298 47.1587 111.225 47.0618C111.383 46.7227 111.613 46.0444 111.905 45.0027C111.99 44.6998 112.063 44.4939 112.087 44.397ZM110.071 45.0875C110.12 45.2691 110.168 45.5356 110.217 45.9111C110.278 46.4562 110.314 46.868 110.314 47.183C110.314 47.2799 110.302 47.3768 110.29 47.4737L110.217 47.51L109.646 47.4737L109.549 47.4494C109.318 46.7469 109.075 46.2745 108.845 46.0201C108.432 45.6083 107.958 45.3903 107.412 45.3903C106.89 45.3903 106.477 45.5235 106.161 45.8021C105.857 46.0807 105.699 46.4077 105.699 46.8075C105.699 47.1587 105.857 47.4737 106.161 47.7886C106.464 48.1278 107.096 48.3942 108.055 48.6971C108.383 48.7697 108.772 48.9272 109.233 49.1452C109.695 49.339 110.047 49.5813 110.29 49.8357C110.606 50.1748 110.824 50.4776 110.946 50.7804C111.055 51.0954 111.116 51.4709 111.116 51.9433C111.116 52.4399 111.031 52.9244 110.836 53.421C110.739 53.6754 110.569 53.9177 110.338 54.1478C110.18 54.3053 109.925 54.487 109.598 54.6929C109.258 54.9109 108.918 55.0684 108.553 55.1653C108.189 55.2622 107.727 55.2985 107.169 55.2985C106.792 55.2985 106.343 55.2379 105.833 55.141L104.874 54.8624C104.619 54.7898 104.449 54.7292 104.376 54.6686C104.351 54.6444 104.315 54.596 104.303 54.5112V54.4385C104.303 54.3779 104.291 54.0267 104.266 53.3362C104.254 52.9971 104.254 52.7427 104.254 52.6095V52.3067L104.995 52.2824C105.25 52.876 105.408 53.2272 105.493 53.3362C105.651 53.6148 105.845 53.8329 106.039 54.0024C106.246 54.1599 106.477 54.2931 106.756 54.39C107.035 54.487 107.327 54.5475 107.655 54.5475C107.934 54.5475 108.262 54.487 108.602 54.3658C108.954 54.2326 109.221 54.0267 109.44 53.7602C109.646 53.4816 109.755 53.1667 109.755 52.8517C109.755 52.4641 109.573 52.1007 109.209 51.7737C108.99 51.5799 108.383 51.2771 107.412 50.9258C106.428 50.5866 105.748 50.2838 105.372 50.0173C104.995 49.7388 104.691 49.3754 104.473 48.9151C104.254 48.4669 104.145 48.0309 104.145 47.619C104.145 46.759 104.449 46.0444 105.056 45.463C105.663 44.8694 106.55 44.5787 107.74 44.5787C107.995 44.5787 108.371 44.6151 108.869 44.712C109.16 44.8089 109.573 44.93 110.071 45.0875ZM96.5552 50.6835C97.806 50.7078 98.5346 50.7199 98.7532 50.7199L98.9596 50.6957C98.8018 50.2233 98.5953 49.6782 98.3403 49.0483C98.0853 48.4185 97.8788 47.934 97.721 47.619L96.5552 50.6835ZM92.8149 55.1532L92.827 54.6081C92.9242 54.5717 93.1063 54.5475 93.3613 54.487C93.7742 54.4143 94.0171 54.3295 94.1021 54.2689C94.1871 54.2084 94.2964 54.0509 94.43 53.8207L96.033 49.6176L97.9153 44.6756C98.0974 44.6756 98.2674 44.6756 98.4253 44.6756H98.7896L98.8625 44.8089L100.247 48.0914C100.55 48.7818 100.842 49.448 101.085 50.1142C101.34 50.7562 101.546 51.3134 101.728 51.7252C101.826 51.9554 101.983 52.3309 102.166 52.8396C102.251 53.094 102.408 53.4453 102.591 53.8571C102.7 54.0751 102.785 54.1962 102.833 54.2326C102.931 54.3053 103.089 54.3658 103.307 54.39C103.526 54.4264 103.756 54.4869 104.011 54.5839C104.036 54.7655 104.048 54.8746 104.048 54.9715C104.048 55.0078 104.048 55.0684 104.048 55.1532C103.659 55.1532 103.222 55.1289 102.748 55.0926C102.275 55.0563 101.85 55.032 101.473 55.032C101.048 55.032 100.757 55.032 100.563 55.0563L99.2025 55.1168L98.8139 55.141C98.8139 54.9593 98.826 54.7898 98.8503 54.6081L99.7368 54.4143C100.004 54.3537 100.15 54.2931 100.198 54.2568C100.247 54.1962 100.271 54.1357 100.271 54.0751C100.271 54.0024 100.259 53.9419 100.235 53.8571L99.919 53.0698L99.2875 51.5193H96.2394C96.1301 51.7737 95.8872 52.3793 95.5351 53.3605C95.4379 53.6512 95.3772 53.8571 95.3772 53.954C95.3772 54.0872 95.4136 54.1841 95.4986 54.2447C95.6201 54.3416 95.8508 54.4264 96.203 54.4627C96.2637 54.4627 96.4459 54.4991 96.7737 54.5354C96.7737 54.7292 96.7859 54.8503 96.7859 54.923C96.7859 54.9836 96.7737 55.0441 96.7737 55.1047C96.4459 55.1047 95.6565 55.0684 94.4178 54.9836L94.09 55.0441C93.6892 55.1047 93.3249 55.141 92.9727 55.141H92.8149V55.1532ZM91.8434 45.5235C91.8798 45.681 91.9162 45.9717 91.9769 46.4441C92.0255 46.8923 92.0498 47.2314 92.0498 47.4252C92.0498 47.5221 92.0255 47.619 92.0012 47.7401C91.7705 47.7159 91.5762 47.7038 91.4183 47.6675C91.0176 47.0376 90.7383 46.6621 90.5683 46.4925C90.2647 46.2018 89.8639 45.9475 89.3903 45.7415C89.026 45.5841 88.6253 45.5114 88.1638 45.5114C87.2652 45.5114 86.4879 45.899 85.82 46.7106C85.14 47.4979 84.8121 48.6971 84.8121 50.2475C84.8121 50.9985 84.9457 51.7252 85.2007 52.4036C85.4679 53.094 85.8565 53.6391 86.3787 54.0267C86.913 54.4143 87.5202 54.6202 88.2367 54.6202C88.5767 54.6202 88.941 54.5839 89.3296 54.4991C89.536 54.4385 89.6939 54.3658 89.8153 54.2447C89.9004 54.172 89.9611 54.0267 89.9732 53.8571C90.0218 53.5664 90.0461 53.1061 90.0461 52.561C90.0461 52.016 90.0339 51.6405 90.0097 51.4224C89.9732 51.3497 89.9368 51.2892 89.9125 51.265C89.8761 51.2407 89.7668 51.2044 89.5846 51.1438L88.8681 50.9621C88.7103 50.9258 88.6253 50.8652 88.5888 50.8289C88.5767 50.7562 88.5767 50.7078 88.5767 50.6714C88.5767 50.5988 88.5888 50.4897 88.6253 50.3565C88.7224 50.3323 88.7831 50.2959 88.8196 50.2959C89.3903 50.2959 89.9004 50.3323 90.3254 50.3565C90.4711 50.3807 90.629 50.3807 90.8111 50.3807L92.0741 50.3565L92.6084 50.3323C92.6691 50.3323 92.8513 50.3565 93.1427 50.3686C93.1549 50.5019 93.1549 50.623 93.1549 50.7078C93.1549 50.7683 93.1427 50.841 93.0942 50.9016C92.997 50.9621 92.8513 51.0348 92.6327 51.1196C92.4141 51.1923 92.2927 51.2528 92.2684 51.2771C92.232 51.3134 92.1955 51.3982 92.1834 51.4951C92.1712 51.5678 92.1591 51.8827 92.1591 52.4399C92.1591 53.0455 92.1591 53.421 92.147 53.5422C92.1227 53.9298 92.1105 54.172 92.1105 54.2084C92.1105 54.4022 92.0862 54.5233 92.0377 54.5839C91.8919 54.7171 91.4305 54.8988 90.6533 55.0805C89.8882 55.2743 88.9896 55.3712 87.9573 55.3712C87.2409 55.3712 86.6215 55.3106 86.0872 55.1895C85.5529 55.0684 85.1157 54.9109 84.7392 54.6808C84.2413 54.39 83.8163 54.0388 83.4641 53.6027C83.0998 53.1909 82.8327 52.7185 82.6627 52.234C82.4198 51.5436 82.2983 50.841 82.2983 50.1506C82.2983 49.3633 82.4805 48.5759 82.8327 47.7765C83.0998 47.2072 83.4763 46.6742 83.962 46.2018C84.4478 45.7537 85.0428 45.3782 85.7715 45.0996C86.4879 44.821 87.2773 44.6877 88.1274 44.6877C88.2367 44.6877 88.4067 44.712 88.6374 44.7241C89.2932 44.7241 89.8882 44.7967 90.459 44.9542C91.0054 45.1117 91.4669 45.3055 91.8434 45.5235Z" fill="white"/>
<path d="M33.3745 49.6824H77.368" stroke="white" stroke-width="1.1339" stroke-linecap="round" stroke-linejoin="round"/>
<path d="M147.53 49.6824H187.352" stroke="white" stroke-width="1.1339" stroke-linecap="round" stroke-linejoin="round"/>
</svg>
